<svg width="134" height="48" viewBox="0 0 134 48" fill="none" xmlns="http://www.w3.org/2000/svg">
<rect width="134" height="48" rx="8" fill="#009191"/>
<path d="M42.444 27.18H43.508C44.4227 27.18 45.1413 26.9 45.664 26.34C46.1867 25.78 46.448 25.0287 46.448 24.086C46.448 23.1433 46.1867 22.392 45.664 21.832C45.1413 21.272 44.4227 20.992 43.508 20.992H42.444V27.18ZM43.508 19.172C45.076 19.172 46.364 19.6293 47.372 20.544C48.38 21.4493 48.884 22.63 48.884 24.086C48.884 25.5327 48.38 26.7133 47.372 27.628C46.364 28.5427 45.076 29 43.508 29H40.05V19.172H43.508ZM55.5896 26.55C55.9069 26.214 56.0656 25.7287 56.0656 25.094C56.0656 24.4593 55.9023 23.9787 55.5756 23.652C55.2489 23.316 54.8616 23.148 54.4136 23.148C53.9656 23.148 53.5783 23.316 53.2516 23.652C52.9343 23.9787 52.7756 24.4593 52.7756 25.094C52.7756 25.7287 52.9389 26.214 53.2656 26.55C53.6016 26.886 53.9936 27.054 54.4416 27.054C54.8896 27.054 55.2723 26.886 55.5896 26.55ZM51.5156 27.992C50.7316 27.2547 50.3396 26.284 50.3396 25.08C50.3396 23.876 50.7316 22.9147 51.5156 22.196C52.2996 21.468 53.2703 21.104 54.4276 21.104C55.5849 21.104 56.5509 21.468 57.3256 22.196C58.1096 22.9147 58.5016 23.876 58.5016 25.08C58.5016 26.284 58.1143 27.2547 57.3396 27.992C56.5649 28.7293 55.5989 29.098 54.4416 29.098C53.2843 29.098 52.3089 28.7293 51.5156 27.992ZM69.3241 21.188H71.5781L69.2401 29H66.6641L65.5721 24.38L64.4661 29H61.8901L59.5521 21.188H61.9461L63.1641 26.676L64.3681 21.188H66.9021L68.1061 26.676L69.3241 21.188ZM75.567 21.188V22.336C76.0617 21.5147 76.8504 21.104 77.933 21.104C78.829 21.104 79.5524 21.4027 80.103 22C80.663 22.5973 80.943 23.4093 80.943 24.436V29H78.563V24.758C78.563 24.254 78.4277 23.8667 78.157 23.596C77.8957 23.316 77.5317 23.176 77.065 23.176C76.5984 23.176 76.2297 23.316 75.959 23.596C75.6977 23.8667 75.567 24.254 75.567 24.758V29H73.173V21.188H75.567ZM83.4758 29V18.64H85.8698V29H83.4758ZM93.1638 26.55C93.4812 26.214 93.6398 25.7287 93.6398 25.094C93.6398 24.4593 93.4765 23.9787 93.1498 23.652C92.8232 23.316 92.4358 23.148 91.9878 23.148C91.5398 23.148 91.1525 23.316 90.8258 23.652C90.5085 23.9787 90.3498 24.4593 90.3498 25.094C90.3498 25.7287 90.5132 26.214 90.8398 26.55C91.1758 26.886 91.5678 27.054 92.0158 27.054C92.4638 27.054 92.8465 26.886 93.1638 26.55ZM89.0898 27.992C88.3058 27.2547 87.9138 26.284 87.9138 25.08C87.9138 23.876 88.3058 22.9147 89.0898 22.196C89.8738 21.468 90.8445 21.104 92.0018 21.104C93.1592 21.104 94.1252 21.468 94.8998 22.196C95.6838 22.9147 96.0758 23.876 96.0758 25.08C96.0758 26.284 95.6885 27.2547 94.9138 27.992C94.1392 28.7293 93.1732 29.098 92.0158 29.098C90.8585 29.098 89.8832 28.7293 89.0898 27.992ZM102.88 26.522C103.226 26.186 103.398 25.71 103.398 25.094C103.398 24.478 103.226 24.0067 102.88 23.68C102.535 23.344 102.138 23.176 101.69 23.176C101.242 23.176 100.846 23.344 100.5 23.68C100.155 24.016 99.9823 24.492 99.9823 25.108C99.9823 25.724 100.155 26.2 100.5 26.536C100.846 26.8627 101.242 27.026 101.69 27.026C102.138 27.026 102.535 26.858 102.88 26.522ZM98.5823 27.978C97.8916 27.2313 97.5463 26.2747 97.5463 25.108C97.5463 23.9413 97.8916 22.9847 98.5823 22.238C99.273 21.482 100.113 21.104 101.102 21.104C102.101 21.104 102.866 21.4727 103.398 22.21V21.188H105.792V29H103.398V27.866C102.82 28.6873 102.045 29.098 101.074 29.098C100.104 29.098 99.273 28.7247 98.5823 27.978ZM113.156 26.522C113.501 26.186 113.674 25.71 113.674 25.094C113.674 24.478 113.501 24.0067 113.156 23.68C112.81 23.344 112.414 23.176 111.966 23.176C111.518 23.176 111.121 23.344 110.776 23.68C110.43 24.016 110.258 24.492 110.258 25.108C110.258 25.724 110.43 26.2 110.776 26.536C111.121 26.8627 111.518 27.026 111.966 27.026C112.414 27.026 112.81 26.858 113.156 26.522ZM108.858 27.978C108.167 27.2313 107.822 26.2747 107.822 25.108C107.822 23.9413 108.167 22.9847 108.858 22.238C109.548 21.482 110.388 21.104 111.378 21.104C112.376 21.104 113.142 21.4727 113.674 22.21V18.64H116.068V29H113.674V27.866C113.095 28.6873 112.32 29.098 111.35 29.098C110.379 29.098 109.548 28.7247 108.858 27.978Z" fill="white"/>
<path d="M24.3337 30C24.5989 30 24.8533 30.1054 25.0408 30.2929C25.2283 30.4804 25.3337 30.7348 25.3337 31C25.3337 31.2652 25.2283 31.5196 25.0408 31.7071C24.8533 31.8946 24.5989 32 24.3337 32H17.0004C16.7351 32 16.4808 31.8946 16.2932 31.7071C16.1057 31.5196 16.0004 31.2652 16.0004 31C16.0004 30.7348 16.1057 30.4804 16.2932 30.2929C16.4808 30.1054 16.7351 30 17.0004 30H24.3337ZM20.667 16C20.9322 16 21.1866 16.1054 21.3741 16.2929C21.5617 16.4804 21.667 16.7348 21.667 17V24.0953L23.5964 21.9907C23.7689 21.7989 24.0089 21.6813 24.2662 21.6623C24.5234 21.6434 24.7781 21.7246 24.9769 21.8889C25.1757 22.0533 25.3033 22.2882 25.333 22.5444C25.3627 22.8007 25.2923 23.0585 25.1364 23.264L25.071 23.3427L21.4044 27.3427C21.2269 27.5363 20.9803 27.6523 20.718 27.6657C20.4556 27.679 20.1986 27.5886 20.0024 27.414L19.9297 27.3427L16.263 23.3427C16.0897 23.1537 15.9956 22.9054 16.0002 22.6491C16.0047 22.3927 16.1075 22.1479 16.2874 21.9652C16.4673 21.7825 16.7105 21.6758 16.9667 21.6673C17.223 21.6588 17.4727 21.749 17.6644 21.9193L17.7377 21.9907L19.667 24.0967V17C19.667 16.7348 19.7724 16.4804 19.9599 16.2929C20.1475 16.1054 20.4018 16 20.667 16Z" fill="white"/>
</svg>
