<svg width="1585" height="128" viewBox="0 0 1585 128" fill="none" xmlns="http://www.w3.org/2000/svg">
<rect x="0.5" y="40.5" width="95" height="47" rx="7.5" fill="white" stroke="#009191"/>
<path d="M16.752 69.144C15.5787 69.144 14.592 68.7173 13.792 67.864C12.992 67 12.592 65.9013 12.592 64.568C12.592 63.224 12.9867 62.136 13.776 61.304C14.576 60.4613 15.568 60.04 16.752 60.04C17.4453 60.04 18.0533 60.2 18.576 60.52C19.1093 60.8293 19.52 61.24 19.808 61.752V60.184H21.648V69.144C21.648 70.3813 21.264 71.3893 20.496 72.168C19.7387 72.9573 18.7253 73.352 17.456 73.352C16.1867 73.352 15.1573 73.0693 14.368 72.504C13.5787 71.9493 13.1307 71.192 13.024 70.232H14.832C14.9707 70.6907 15.264 71.0587 15.712 71.336C16.1707 71.624 16.7413 71.768 17.424 71.768C18.1067 71.768 18.672 71.544 19.12 71.096C19.5787 70.648 19.808 69.9973 19.808 69.144V67.352C19.5093 67.896 19.0987 68.3333 18.576 68.664C18.0533 68.984 17.4453 69.144 16.752 69.144ZM19.008 66.76C19.5413 66.216 19.808 65.4907 19.808 64.584C19.808 63.6773 19.5413 62.9573 19.008 62.424C18.4853 61.8907 17.8613 61.624 17.136 61.624C16.4107 61.624 15.7813 61.8853 15.248 62.408C14.7253 62.9307 14.464 63.6453 14.464 64.552C14.464 65.4587 14.7253 66.1893 15.248 66.744C15.7813 67.288 16.4107 67.56 17.136 67.56C17.8613 67.56 18.4853 67.2933 19.008 66.76ZM30.0017 66.76C30.5351 66.216 30.8018 65.4907 30.8018 64.584C30.8018 63.6773 30.5351 62.9573 30.0017 62.424C29.4791 61.8907 28.8551 61.624 28.1297 61.624C27.4044 61.624 26.7751 61.8853 26.2417 62.408C25.7191 62.9307 25.4577 63.6453 25.4577 64.552C25.4577 65.4587 25.7191 66.1893 26.2417 66.744C26.7751 67.288 27.4044 67.56 28.1297 67.56C28.8551 67.56 29.4791 67.2933 30.0017 66.76ZM27.7457 69.144C26.5724 69.144 25.5857 68.7173 24.7857 67.864C23.9857 67 23.5857 65.9013 23.5857 64.568C23.5857 63.224 23.9804 62.136 24.7697 61.304C25.5697 60.4613 26.5617 60.04 27.7457 60.04C28.4391 60.04 29.0471 60.2 29.5697 60.52C30.1031 60.8293 30.5138 61.24 30.8018 61.752V60.184H32.6418V69H30.8018V67.352C30.5031 67.896 30.0924 68.3333 29.5697 68.664C29.0471 68.984 28.4391 69.144 27.7457 69.144ZM39.4595 61.672H37.3155V66.552C37.3155 66.8827 37.3902 67.1227 37.5395 67.272C37.6995 67.4107 37.9662 67.48 38.3395 67.48H39.4595V69H38.0195C36.3235 69 35.4755 68.184 35.4755 66.552V61.672H34.4355V60.184H35.4755V57.992H37.3155V60.184H39.4595V61.672ZM45.0026 69.144C43.7226 69.144 42.6826 68.728 41.8826 67.896C41.0826 67.064 40.6826 65.96 40.6826 64.584C40.6826 63.208 41.088 62.1093 41.8986 61.288C42.7093 60.456 43.7546 60.04 45.0346 60.04C46.3253 60.04 47.3706 60.44 48.1706 61.24C48.9706 62.0293 49.3706 63.064 49.3706 64.344C49.3706 64.6533 49.3493 64.9413 49.3066 65.208H42.5546C42.5973 65.944 42.8426 66.5307 43.2906 66.968C43.7493 67.3947 44.32 67.608 45.0026 67.608C45.9946 67.608 46.6933 67.1973 47.0986 66.376H49.0666C48.8 67.1867 48.3146 67.8533 47.6106 68.376C46.9066 68.888 46.0373 69.144 45.0026 69.144ZM47.4666 63.96C47.456 63.2347 47.216 62.6587 46.7466 62.232C46.2773 61.7947 45.7066 61.576 45.0346 61.576C44.3626 61.576 43.7973 61.7947 43.3386 62.232C42.8906 62.6587 42.6346 63.2347 42.5706 63.96H47.4666ZM61.3636 60.184H63.1556L60.4196 69H58.4996L56.7236 62.488L54.9476 69H53.0276L50.2756 60.184H52.1316L53.9716 67.272L55.8436 60.184H57.7476L59.5396 67.24L61.3636 60.184ZM70.4768 66.76C71.0101 66.216 71.2768 65.4907 71.2768 64.584C71.2768 63.6773 71.0101 62.9573 70.4768 62.424C69.9541 61.8907 69.3301 61.624 68.6048 61.624C67.8794 61.624 67.2501 61.8853 66.7168 62.408C66.1941 62.9307 65.9328 63.6453 65.9328 64.552C65.9328 65.4587 66.1941 66.1893 66.7168 66.744C67.2501 67.288 67.8794 67.56 68.6048 67.56C69.3301 67.56 69.9541 67.2933 70.4768 66.76ZM68.2208 69.144C67.0474 69.144 66.0608 68.7173 65.2608 67.864C64.4608 67 64.0608 65.9013 64.0608 64.568C64.0608 63.224 64.4554 62.136 65.2448 61.304C66.0448 60.4613 67.0368 60.04 68.2208 60.04C68.9141 60.04 69.5221 60.2 70.0448 60.52C70.5781 60.8293 70.9888 61.24 71.2768 61.752V60.184H73.1168V69H71.2768V67.352C70.9781 67.896 70.5674 68.3333 70.0448 68.664C69.5221 68.984 68.9141 69.144 68.2208 69.144ZM78.0945 68.856L74.6225 60.184H76.6545L79.1345 66.904L81.7105 60.184H83.5985L78.1905 73.144H76.3025L78.0945 68.856Z" fill="#009191"/>
<rect x="1489.5" y="40.5" width="95" height="47" rx="7.5" fill="white" stroke="#009191"/>
<path d="M1505.75 69.144C1504.58 69.144 1503.59 68.7173 1502.79 67.864C1501.99 67 1501.59 65.9013 1501.59 64.568C1501.59 63.224 1501.99 62.136 1502.78 61.304C1503.58 60.4613 1504.57 60.04 1505.75 60.04C1506.45 60.04 1507.05 60.2 1507.58 60.52C1508.11 60.8293 1508.52 61.24 1508.81 61.752V60.184H1510.65V69.144C1510.65 70.3813 1510.26 71.3893 1509.5 72.168C1508.74 72.9573 1507.73 73.352 1506.46 73.352C1505.19 73.352 1504.16 73.0693 1503.37 72.504C1502.58 71.9493 1502.13 71.192 1502.02 70.232H1503.83C1503.97 70.6907 1504.26 71.0587 1504.71 71.336C1505.17 71.624 1505.74 71.768 1506.42 71.768C1507.11 71.768 1507.67 71.544 1508.12 71.096C1508.58 70.648 1508.81 69.9973 1508.81 69.144V67.352C1508.51 67.896 1508.1 68.3333 1507.58 68.664C1507.05 68.984 1506.45 69.144 1505.75 69.144ZM1508.01 66.76C1508.54 66.216 1508.81 65.4907 1508.81 64.584C1508.81 63.6773 1508.54 62.9573 1508.01 62.424C1507.49 61.8907 1506.86 61.624 1506.14 61.624C1505.41 61.624 1504.78 61.8853 1504.25 62.408C1503.73 62.9307 1503.46 63.6453 1503.46 64.552C1503.46 65.4587 1503.73 66.1893 1504.25 66.744C1504.78 67.288 1505.41 67.56 1506.14 67.56C1506.86 67.56 1507.49 67.2933 1508.01 66.76ZM1519 66.76C1519.54 66.216 1519.8 65.4907 1519.8 64.584C1519.8 63.6773 1519.54 62.9573 1519 62.424C1518.48 61.8907 1517.86 61.624 1517.13 61.624C1516.4 61.624 1515.78 61.8853 1515.24 62.408C1514.72 62.9307 1514.46 63.6453 1514.46 64.552C1514.46 65.4587 1514.72 66.1893 1515.24 66.744C1515.78 67.288 1516.4 67.56 1517.13 67.56C1517.86 67.56 1518.48 67.2933 1519 66.76ZM1516.75 69.144C1515.57 69.144 1514.59 68.7173 1513.79 67.864C1512.99 67 1512.59 65.9013 1512.59 64.568C1512.59 63.224 1512.98 62.136 1513.77 61.304C1514.57 60.4613 1515.56 60.04 1516.75 60.04C1517.44 60.04 1518.05 60.2 1518.57 60.52C1519.1 60.8293 1519.51 61.24 1519.8 61.752V60.184H1521.64V69H1519.8V67.352C1519.5 67.896 1519.09 68.3333 1518.57 68.664C1518.05 68.984 1517.44 69.144 1516.75 69.144ZM1528.46 61.672H1526.32V66.552C1526.32 66.8827 1526.39 67.1227 1526.54 67.272C1526.7 67.4107 1526.97 67.48 1527.34 67.48H1528.46V69H1527.02C1525.32 69 1524.48 68.184 1524.48 66.552V61.672H1523.44V60.184H1524.48V57.992H1526.32V60.184H1528.46V61.672ZM1534 69.144C1532.72 69.144 1531.68 68.728 1530.88 67.896C1530.08 67.064 1529.68 65.96 1529.68 64.584C1529.68 63.208 1530.09 62.1093 1530.9 61.288C1531.71 60.456 1532.75 60.04 1534.03 60.04C1535.33 60.04 1536.37 60.44 1537.17 61.24C1537.97 62.0293 1538.37 63.064 1538.37 64.344C1538.37 64.6533 1538.35 64.9413 1538.31 65.208H1531.55C1531.6 65.944 1531.84 66.5307 1532.29 66.968C1532.75 67.3947 1533.32 67.608 1534 67.608C1534.99 67.608 1535.69 67.1973 1536.1 66.376H1538.07C1537.8 67.1867 1537.31 67.8533 1536.61 68.376C1535.91 68.888 1535.04 69.144 1534 69.144ZM1536.47 63.96C1536.46 63.2347 1536.22 62.6587 1535.75 62.232C1535.28 61.7947 1534.71 61.576 1534.03 61.576C1533.36 61.576 1532.8 61.7947 1532.34 62.232C1531.89 62.6587 1531.63 63.2347 1531.57 63.96H1536.47ZM1550.36 60.184H1552.16L1549.42 69H1547.5L1545.72 62.488L1543.95 69H1542.03L1539.28 60.184H1541.13L1542.97 67.272L1544.84 60.184H1546.75L1548.54 67.24L1550.36 60.184ZM1559.48 66.76C1560.01 66.216 1560.28 65.4907 1560.28 64.584C1560.28 63.6773 1560.01 62.9573 1559.48 62.424C1558.95 61.8907 1558.33 61.624 1557.6 61.624C1556.88 61.624 1556.25 61.8853 1555.72 62.408C1555.19 62.9307 1554.93 63.6453 1554.93 64.552C1554.93 65.4587 1555.19 66.1893 1555.72 66.744C1556.25 67.288 1556.88 67.56 1557.6 67.56C1558.33 67.56 1558.95 67.2933 1559.48 66.76ZM1557.22 69.144C1556.05 69.144 1555.06 68.7173 1554.26 67.864C1553.46 67 1553.06 65.9013 1553.06 64.568C1553.06 63.224 1553.46 62.136 1554.24 61.304C1555.04 60.4613 1556.04 60.04 1557.22 60.04C1557.91 60.04 1558.52 60.2 1559.04 60.52C1559.58 60.8293 1559.99 61.24 1560.28 61.752V60.184H1562.12V69H1560.28V67.352C1559.98 67.896 1559.57 68.3333 1559.04 68.664C1558.52 68.984 1557.91 69.144 1557.22 69.144ZM1567.09 68.856L1563.62 60.184H1565.65L1568.13 66.904L1570.71 60.184H1572.6L1567.19 73.144H1565.3L1567.09 68.856Z" fill="#009191"/>
<rect opacity="0.8" x="425" width="96" height="48" rx="8" fill="#FBCB67"/>
<path d="M438.2 29V17.88H440.024V29H438.2ZM444.393 20.184V21.576C444.979 20.552 445.918 20.04 447.209 20.04C447.891 20.04 448.499 20.2 449.033 20.52C449.566 20.84 449.971 21.304 450.249 21.912C450.558 21.3253 450.985 20.8667 451.529 20.536C452.083 20.2053 452.707 20.04 453.401 20.04C454.414 20.04 455.246 20.3707 455.897 21.032C456.547 21.6827 456.873 22.6053 456.873 23.8V29H455.049V24.072C455.049 23.2827 454.851 22.68 454.457 22.264C454.062 21.8373 453.523 21.624 452.841 21.624C452.158 21.624 451.619 21.8373 451.225 22.264C450.83 22.68 450.633 23.2827 450.633 24.072V29H448.825V24.072C448.825 23.2827 448.627 22.68 448.233 22.264C447.838 21.8373 447.299 21.624 446.617 21.624C445.934 21.624 445.39 21.8373 444.985 22.264C444.59 22.68 444.393 23.2827 444.393 24.072V29H442.569V20.184H444.393ZM462.896 29.144C461.722 29.144 460.736 28.7173 459.936 27.864C459.136 27 458.736 25.9013 458.736 24.568C458.736 23.224 459.13 22.136 459.92 21.304C460.72 20.4613 461.712 20.04 462.896 20.04C463.589 20.04 464.197 20.2 464.72 20.52C465.253 20.8293 465.664 21.24 465.952 21.752V20.184H467.792V29.144C467.792 30.3813 467.408 31.3893 466.64 32.168C465.882 32.9573 464.869 33.352 463.6 33.352C462.33 33.352 461.301 33.0693 460.512 32.504C459.722 31.9493 459.274 31.192 459.168 30.232H460.976C461.114 30.6907 461.408 31.0587 461.856 31.336C462.314 31.624 462.885 31.768 463.568 31.768C464.25 31.768 464.816 31.544 465.264 31.096C465.722 30.648 465.952 29.9973 465.952 29.144V27.352C465.653 27.896 465.242 28.3333 464.72 28.664C464.197 28.984 463.589 29.144 462.896 29.144ZM465.152 26.76C465.685 26.216 465.952 25.4907 465.952 24.584C465.952 23.6773 465.685 22.9573 465.152 22.424C464.629 21.8907 464.005 21.624 463.28 21.624C462.554 21.624 461.925 21.8853 461.392 22.408C460.869 22.9307 460.608 23.6453 460.608 24.552C460.608 25.4587 460.869 26.1893 461.392 26.744C461.925 27.288 462.554 27.56 463.28 27.56C464.005 27.56 464.629 27.2933 465.152 26.76ZM470.338 29V17.88H476.882V19.304H472.162V22.68H475.842V24.088H472.162V29H470.338ZM480.802 17.848C480.802 18.1787 480.69 18.456 480.466 18.68C480.242 18.904 479.965 19.016 479.634 19.016C479.314 19.016 479.042 18.904 478.818 18.68C478.594 18.456 478.482 18.1787 478.482 17.848C478.482 17.5173 478.594 17.24 478.818 17.016C479.042 16.792 479.314 16.68 479.634 16.68C479.965 16.68 480.242 16.792 480.466 17.016C480.69 17.24 480.802 17.5173 480.802 17.848ZM478.722 29V20.184H480.546V29H478.722ZM483.091 29V17.16H484.915V29H483.091ZM491.731 21.672H489.587V26.552C489.587 26.8827 489.662 27.1227 489.811 27.272C489.971 27.4107 490.238 27.48 490.611 27.48H491.731V29H490.291C488.595 29 487.747 28.184 487.747 26.552V21.672H486.707V20.184H487.747V17.992H489.587V20.184H491.731V21.672ZM497.274 29.144C495.994 29.144 494.954 28.728 494.154 27.896C493.354 27.064 492.954 25.96 492.954 24.584C492.954 23.208 493.36 22.1093 494.17 21.288C494.981 20.456 496.026 20.04 497.306 20.04C498.597 20.04 499.642 20.44 500.442 21.24C501.242 22.0293 501.642 23.064 501.642 24.344C501.642 24.6533 501.621 24.9413 501.578 25.208H494.826C494.869 25.944 495.114 26.5307 495.562 26.968C496.021 27.3947 496.592 27.608 497.274 27.608C498.266 27.608 498.965 27.1973 499.37 26.376H501.339C501.072 27.1867 500.586 27.8533 499.882 28.376C499.178 28.888 498.309 29.144 497.274 29.144ZM499.738 23.96C499.728 23.2347 499.488 22.6587 499.018 22.232C498.549 21.7947 497.978 21.576 497.306 21.576C496.634 21.576 496.069 21.7947 495.61 22.232C495.162 22.6587 494.906 23.2347 494.842 23.96H499.738ZM505.411 20.184V21.72C505.977 20.6 506.857 20.04 508.051 20.04V21.928H507.587C506.873 21.928 506.329 22.1093 505.955 22.472C505.593 22.8347 505.411 23.464 505.411 24.36V29H503.587V20.184H505.411Z" fill="white"/>
<rect opacity="0.8" x="415" y="80" width="97" height="48" rx="8" fill="#EB6161"/>
<path d="M427.624 99.304V97.88H435.384V99.304H432.424V109H430.6V99.304H427.624ZM441.093 109.144C439.813 109.144 438.773 108.728 437.973 107.896C437.173 107.064 436.773 105.96 436.773 104.584C436.773 103.208 437.179 102.109 437.989 101.288C438.8 100.456 439.845 100.04 441.125 100.04C442.416 100.04 443.461 100.44 444.261 101.24C445.061 102.029 445.461 103.064 445.461 104.344C445.461 104.653 445.44 104.941 445.397 105.208H438.645C438.688 105.944 438.933 106.531 439.381 106.968C439.84 107.395 440.411 107.608 441.093 107.608C442.085 107.608 442.784 107.197 443.189 106.376H445.157C444.891 107.187 444.405 107.853 443.701 108.376C442.997 108.888 442.128 109.144 441.093 109.144ZM443.557 103.96C443.547 103.235 443.307 102.659 442.837 102.232C442.368 101.795 441.797 101.576 441.125 101.576C440.453 101.576 439.888 101.795 439.429 102.232C438.981 102.659 438.725 103.235 438.661 103.96H443.557ZM454.03 100.184L451.182 104.536L454.03 109H451.966L450.062 106.008L448.27 109H446.366L449.214 104.664L446.366 100.184H448.43L450.334 103.176L452.126 100.184H454.03ZM459.813 101.672H457.669V106.552C457.669 106.883 457.743 107.123 457.893 107.272C458.053 107.411 458.319 107.48 458.693 107.48H459.813V109H458.373C456.677 109 455.829 108.184 455.829 106.552V101.672H454.789V100.184H455.829V97.992H457.669V100.184H459.813V101.672ZM461.644 109V97.88H468.188V99.304H463.468V102.68H467.148V104.088H463.468V109H461.644ZM472.108 97.848C472.108 98.1787 471.996 98.456 471.772 98.68C471.548 98.904 471.271 99.016 470.94 99.016C470.62 99.016 470.348 98.904 470.124 98.68C469.9 98.456 469.788 98.1787 469.788 97.848C469.788 97.5173 469.9 97.24 470.124 97.016C470.348 96.792 470.62 96.68 470.94 96.68C471.271 96.68 471.548 96.792 471.772 97.016C471.996 97.24 472.108 97.5173 472.108 97.848ZM470.028 109V100.184H471.852V109H470.028ZM474.397 109V97.16H476.221V109H474.397ZM483.038 101.672H480.894V106.552C480.894 106.883 480.968 107.123 481.118 107.272C481.278 107.411 481.544 107.48 481.918 107.48H483.038V109H481.598C479.902 109 479.054 108.184 479.054 106.552V101.672H478.014V100.184H479.054V97.992H480.894V100.184H483.038V101.672ZM488.581 109.144C487.301 109.144 486.261 108.728 485.461 107.896C484.661 107.064 484.261 105.96 484.261 104.584C484.261 103.208 484.666 102.109 485.477 101.288C486.287 100.456 487.333 100.04 488.613 100.04C489.903 100.04 490.949 100.44 491.749 101.24C492.549 102.029 492.949 103.064 492.949 104.344C492.949 104.653 492.927 104.941 492.885 105.208H486.133C486.175 105.944 486.421 106.531 486.869 106.968C487.327 107.395 487.898 107.608 488.581 107.608C489.573 107.608 490.271 107.197 490.677 106.376H492.645C492.378 107.187 491.893 107.853 491.189 108.376C490.485 108.888 489.615 109.144 488.581 109.144ZM491.045 103.96C491.034 103.235 490.794 102.659 490.325 102.232C489.855 101.795 489.285 101.576 488.613 101.576C487.941 101.576 487.375 101.795 486.917 102.232C486.469 102.659 486.213 103.235 486.149 103.96H491.045ZM496.718 100.184V101.72C497.283 100.6 498.163 100.04 499.358 100.04V101.928H498.894C498.179 101.928 497.635 102.109 497.262 102.472C496.899 102.835 496.718 103.464 496.718 104.36V109H494.894V100.184H496.718Z" fill="white"/>
<rect opacity="0.8" x="567" y="80" width="120" height="48" rx="8" fill="#EB6161"/>
<path d="M583.912 109.144C582.632 109.144 581.592 108.728 580.792 107.896C579.992 107.064 579.592 105.96 579.592 104.584C579.592 103.208 579.997 102.109 580.808 101.288C581.619 100.456 582.664 100.04 583.944 100.04C585.235 100.04 586.28 100.44 587.08 101.24C587.88 102.029 588.28 103.064 588.28 104.344C588.28 104.653 588.259 104.941 588.216 105.208H581.464C581.507 105.944 581.752 106.531 582.2 106.968C582.659 107.395 583.229 107.608 583.912 107.608C584.904 107.608 585.603 107.197 586.008 106.376H587.976C587.709 107.187 587.224 107.853 586.52 108.376C585.816 108.888 584.947 109.144 583.912 109.144ZM586.376 103.96C586.365 103.235 586.125 102.659 585.656 102.232C585.187 101.795 584.616 101.576 583.944 101.576C583.272 101.576 582.707 101.795 582.248 102.232C581.8 102.659 581.544 103.235 581.48 103.96H586.376ZM592.049 100.184V101.576C592.636 100.552 593.574 100.04 594.865 100.04C595.857 100.04 596.673 100.371 597.313 101.032C597.964 101.693 598.289 102.616 598.289 103.8V109H596.481V104.072C596.481 103.283 596.284 102.68 595.889 102.264C595.494 101.837 594.956 101.624 594.273 101.624C593.59 101.624 593.046 101.837 592.641 102.264C592.246 102.68 592.049 103.283 592.049 104.072V109H590.225V100.184H592.049ZM604.478 109.144C603.198 109.144 602.158 108.728 601.358 107.896C600.558 107.064 600.158 105.965 600.158 104.6C600.158 103.224 600.558 102.12 601.358 101.288C602.168 100.456 603.208 100.04 604.478 100.04C605.544 100.04 606.424 100.296 607.118 100.808C607.822 101.309 608.296 102.029 608.542 102.968H606.574C606.243 102.04 605.544 101.576 604.478 101.576C603.731 101.576 603.134 101.843 602.686 102.376C602.248 102.899 602.03 103.635 602.03 104.584C602.03 105.533 602.248 106.275 602.686 106.808C603.134 107.341 603.731 107.608 604.478 107.608C605.534 107.608 606.232 107.144 606.574 106.216H608.542C608.286 107.112 607.806 107.827 607.102 108.36C606.398 108.883 605.523 109.144 604.478 109.144ZM616.237 106.808C616.771 106.275 617.037 105.533 617.037 104.584C617.037 103.635 616.776 102.899 616.253 102.376C615.741 101.843 615.117 101.576 614.381 101.576C613.645 101.576 613.027 101.843 612.525 102.376C612.024 102.899 611.773 103.64 611.773 104.6C611.773 105.549 612.019 106.291 612.509 106.824C613 107.347 613.608 107.608 614.333 107.608C615.069 107.608 615.704 107.341 616.237 106.808ZM614.333 109.144C613.053 109.144 611.997 108.728 611.165 107.896C610.333 107.053 609.917 105.955 609.917 104.6C609.917 103.235 610.344 102.136 611.197 101.304C612.061 100.461 613.133 100.04 614.413 100.04C615.693 100.04 616.76 100.461 617.613 101.304C618.477 102.136 618.909 103.229 618.909 104.584C618.909 105.939 618.467 107.037 617.581 107.88C616.707 108.723 615.624 109.144 614.333 109.144ZM626.67 106.76C627.204 106.216 627.47 105.491 627.47 104.584C627.47 103.677 627.204 102.957 626.67 102.424C626.148 101.891 625.524 101.624 624.798 101.624C624.073 101.624 623.444 101.885 622.91 102.408C622.388 102.931 622.126 103.645 622.126 104.552C622.126 105.459 622.388 106.189 622.91 106.744C623.444 107.288 624.073 107.56 624.798 107.56C625.524 107.56 626.148 107.293 626.67 106.76ZM624.414 109.144C623.241 109.144 622.254 108.717 621.454 107.864C620.654 107 620.254 105.901 620.254 104.568C620.254 103.224 620.649 102.136 621.438 101.304C622.238 100.461 623.23 100.04 624.414 100.04C625.108 100.04 625.716 100.2 626.238 100.52C626.772 100.829 627.182 101.24 627.47 101.752V97.16H629.31V109H627.47V107.352C627.172 107.896 626.761 108.333 626.238 108.664C625.716 108.984 625.108 109.144 624.414 109.144ZM635.568 109.144C634.288 109.144 633.248 108.728 632.448 107.896C631.648 107.064 631.248 105.96 631.248 104.584C631.248 103.208 631.654 102.109 632.464 101.288C633.275 100.456 634.32 100.04 635.6 100.04C636.891 100.04 637.936 100.44 638.736 101.24C639.536 102.029 639.936 103.064 639.936 104.344C639.936 104.653 639.915 104.941 639.872 105.208H633.12C633.163 105.944 633.408 106.531 633.856 106.968C634.315 107.395 634.886 107.608 635.568 107.608C636.56 107.608 637.259 107.197 637.664 106.376H639.632C639.366 107.187 638.88 107.853 638.176 108.376C637.472 108.888 636.603 109.144 635.568 109.144ZM638.032 103.96C638.022 103.235 637.782 102.659 637.312 102.232C636.843 101.795 636.272 101.576 635.6 101.576C634.928 101.576 634.363 101.795 633.904 102.232C633.456 102.659 633.2 103.235 633.136 103.96H638.032ZM641.305 99.304V97.88H649.065V99.304H646.105V109H644.281V99.304H641.305ZM654.775 109.144C653.495 109.144 652.455 108.728 651.655 107.896C650.855 107.064 650.455 105.96 650.455 104.584C650.455 103.208 650.86 102.109 651.671 101.288C652.481 100.456 653.527 100.04 654.807 100.04C656.097 100.04 657.143 100.44 657.943 101.24C658.743 102.029 659.143 103.064 659.143 104.344C659.143 104.653 659.121 104.941 659.079 105.208H652.327C652.369 105.944 652.615 106.531 653.063 106.968C653.521 107.395 654.092 107.608 654.775 107.608C655.767 107.608 656.465 107.197 656.871 106.376H658.839C658.572 107.187 658.087 107.853 657.383 108.376C656.679 108.888 655.809 109.144 654.775 109.144ZM657.239 103.96C657.228 103.235 656.988 102.659 656.519 102.232C656.049 101.795 655.479 101.576 654.807 101.576C654.135 101.576 653.569 101.795 653.111 102.232C652.663 102.659 652.407 103.235 652.343 103.96H657.239ZM667.711 100.184L664.863 104.536L667.711 109H665.647L663.743 106.008L661.951 109H660.047L662.895 104.664L660.047 100.184H662.111L664.015 103.176L665.807 100.184H667.711ZM673.494 101.672H671.35V106.552C671.35 106.883 671.425 107.123 671.574 107.272C671.734 107.411 672.001 107.48 672.374 107.48H673.494V109H672.054C670.358 109 669.51 108.184 669.51 106.552V101.672H668.47V100.184H669.51V97.992H671.35V100.184H673.494V101.672Z" fill="white"/>
<rect x="1150" y="40" width="70" height="48" rx="8" fill="#009191"/>
<path d="M1163.2 60.184H1165.02V70.728C1165.02 72.3707 1164.18 73.192 1162.5 73.192H1161.55V71.656H1162.18C1162.55 71.656 1162.81 71.5813 1162.96 71.432C1163.12 71.2933 1163.2 71.0587 1163.2 70.728V60.184ZM1165.28 57.848C1165.28 58.1787 1165.17 58.456 1164.94 58.68C1164.72 58.904 1164.44 59.016 1164.11 59.016C1163.79 59.016 1163.52 58.904 1163.3 58.68C1163.07 58.456 1162.96 58.1787 1162.96 57.848C1162.96 57.5173 1163.07 57.24 1163.3 57.016C1163.52 56.792 1163.79 56.68 1164.11 56.68C1164.44 56.68 1164.72 56.792 1164.94 57.016C1165.17 57.24 1165.28 57.5173 1165.28 57.848ZM1173.3 66.808C1173.83 66.2747 1174.1 65.5333 1174.1 64.584C1174.1 63.6347 1173.84 62.8987 1173.31 62.376C1172.8 61.8427 1172.18 61.576 1171.44 61.576C1170.7 61.576 1170.09 61.8427 1169.58 62.376C1169.08 62.8987 1168.83 63.64 1168.83 64.6C1168.83 65.5493 1169.08 66.2907 1169.57 66.824C1170.06 67.3467 1170.67 67.608 1171.39 67.608C1172.13 67.608 1172.76 67.3413 1173.3 66.808ZM1171.39 69.144C1170.11 69.144 1169.06 68.728 1168.22 67.896C1167.39 67.0533 1166.98 65.9547 1166.98 64.6C1166.98 63.2347 1167.4 62.136 1168.26 61.304C1169.12 60.4613 1170.19 60.04 1171.47 60.04C1172.75 60.04 1173.82 60.4613 1174.67 61.304C1175.54 62.136 1175.97 63.2293 1175.97 64.584C1175.97 65.9387 1175.53 67.0373 1174.64 67.88C1173.77 68.7227 1172.68 69.144 1171.39 69.144ZM1180 57.848C1180 58.1787 1179.89 58.456 1179.67 58.68C1179.44 58.904 1179.16 59.016 1178.83 59.016C1178.51 59.016 1178.24 58.904 1178.02 58.68C1177.79 58.456 1177.68 58.1787 1177.68 57.848C1177.68 57.5173 1177.79 57.24 1178.02 57.016C1178.24 56.792 1178.51 56.68 1178.83 56.68C1179.16 56.68 1179.44 56.792 1179.67 57.016C1179.89 57.24 1180 57.5173 1180 57.848ZM1177.92 69V60.184H1179.75V69H1177.92ZM1184.11 60.184V61.576C1184.7 60.552 1185.64 60.04 1186.93 60.04C1187.92 60.04 1188.74 60.3707 1189.38 61.032C1190.03 61.6933 1190.35 62.616 1190.35 63.8V69H1188.55V64.072C1188.55 63.2827 1188.35 62.68 1187.95 62.264C1187.56 61.8373 1187.02 61.624 1186.34 61.624C1185.66 61.624 1185.11 61.8373 1184.71 62.264C1184.31 62.68 1184.11 63.2827 1184.11 64.072V69H1182.29V60.184H1184.11ZM1196.54 69.144C1195.26 69.144 1194.22 68.728 1193.42 67.896C1192.62 67.064 1192.22 65.96 1192.22 64.584C1192.22 63.208 1192.63 62.1093 1193.44 61.288C1194.25 60.456 1195.3 60.04 1196.58 60.04C1197.87 60.04 1198.91 60.44 1199.71 61.24C1200.51 62.0293 1200.91 63.064 1200.91 64.344C1200.91 64.6533 1200.89 64.9413 1200.85 65.208H1194.1C1194.14 65.944 1194.38 66.5307 1194.83 66.968C1195.29 67.3947 1195.86 67.608 1196.54 67.608C1197.54 67.608 1198.23 67.1973 1198.64 66.376H1200.61C1200.34 67.1867 1199.86 67.8533 1199.15 68.376C1198.45 68.888 1197.58 69.144 1196.54 69.144ZM1199.01 63.96C1199 63.2347 1198.76 62.6587 1198.29 62.232C1197.82 61.7947 1197.25 61.576 1196.58 61.576C1195.9 61.576 1195.34 61.7947 1194.88 62.232C1194.43 62.6587 1194.18 63.2347 1194.11 63.96H1199.01ZM1204.68 60.184V61.72C1205.25 60.6 1206.13 60.04 1207.32 60.04V61.928H1206.86C1206.14 61.928 1205.6 62.1093 1205.22 62.472C1204.86 62.8347 1204.68 63.464 1204.68 64.36V69H1202.86V60.184H1204.68Z" fill="white"/>
<rect x="1256" y="40" width="82" height="48" rx="8" fill="#009191"/>
<path d="M1271.02 64.488V69H1269.2V57.88H1273.04C1274.3 57.88 1275.27 58.1947 1275.95 58.824C1276.63 59.4427 1276.98 60.232 1276.98 61.192C1276.98 61.9387 1276.75 62.6107 1276.29 63.208C1275.84 63.8053 1275.15 64.1947 1274.21 64.376L1277.15 69H1274.93L1272.14 64.488H1271.02ZM1271.02 59.304V63.064H1273.04C1273.73 63.064 1274.25 62.8987 1274.59 62.568C1274.93 62.2373 1275.1 61.7787 1275.1 61.192C1275.1 60.5947 1274.93 60.1307 1274.59 59.8C1274.25 59.4693 1273.73 59.304 1273.04 59.304H1271.02ZM1285.27 66.76C1285.8 66.216 1286.07 65.4907 1286.07 64.584C1286.07 63.6773 1285.8 62.9573 1285.27 62.424C1284.74 61.8907 1284.12 61.624 1283.4 61.624C1282.67 61.624 1282.04 61.8853 1281.51 62.408C1280.98 62.9307 1280.72 63.6453 1280.72 64.552C1280.72 65.4587 1280.98 66.1893 1281.51 66.744C1282.04 67.288 1282.67 67.56 1283.4 67.56C1284.12 67.56 1284.74 67.2933 1285.27 66.76ZM1283.01 69.144C1281.84 69.144 1280.85 68.7173 1280.05 67.864C1279.25 67 1278.85 65.9013 1278.85 64.568C1278.85 63.224 1279.25 62.136 1280.04 61.304C1280.84 60.4613 1281.83 60.04 1283.01 60.04C1283.7 60.04 1284.31 60.2 1284.84 60.52C1285.37 60.8293 1285.78 61.24 1286.07 61.752V60.184H1287.91V69H1286.07V67.352C1285.77 67.896 1285.36 68.3333 1284.84 68.664C1284.31 68.984 1283.7 69.144 1283.01 69.144ZM1292.28 60.184V61.576C1292.86 60.552 1293.8 60.04 1295.09 60.04C1296.09 60.04 1296.9 60.3707 1297.54 61.032C1298.19 61.6933 1298.52 62.616 1298.52 63.8V69H1296.71V64.072C1296.71 63.2827 1296.51 62.68 1296.12 62.264C1295.72 61.8373 1295.18 61.624 1294.5 61.624C1293.82 61.624 1293.27 61.8373 1292.87 62.264C1292.47 62.68 1292.28 63.2827 1292.28 64.072V69H1290.45V60.184H1292.28ZM1302.82 69H1300.99V57.16H1302.82V64.04L1306.02 60.184H1308.55L1304.48 64.6L1308.55 69H1306.08L1302.82 65.208V69ZM1313.72 69.144C1312.44 69.144 1311.4 68.728 1310.6 67.896C1309.8 67.064 1309.4 65.96 1309.4 64.584C1309.4 63.208 1309.8 62.1093 1310.61 61.288C1311.42 60.456 1312.47 60.04 1313.75 60.04C1315.04 60.04 1316.08 60.44 1316.88 61.24C1317.68 62.0293 1318.08 63.064 1318.08 64.344C1318.08 64.6533 1318.06 64.9413 1318.02 65.208H1311.27C1311.31 65.944 1311.56 66.5307 1312 66.968C1312.46 67.3947 1313.03 67.608 1313.72 67.608C1314.71 67.608 1315.41 67.1973 1315.81 66.376H1317.78C1317.51 67.1867 1317.03 67.8533 1316.32 68.376C1315.62 68.888 1314.75 69.144 1313.72 69.144ZM1316.18 63.96C1316.17 63.2347 1315.93 62.6587 1315.46 62.232C1314.99 61.7947 1314.42 61.576 1313.75 61.576C1313.08 61.576 1312.51 61.7947 1312.05 62.232C1311.6 62.6587 1311.35 63.2347 1311.28 63.96H1316.18ZM1321.85 60.184V61.72C1322.42 60.6 1323.3 60.04 1324.49 60.04V61.928H1324.03C1323.31 61.928 1322.77 62.1093 1322.4 62.472C1322.03 62.8347 1321.85 63.464 1321.85 64.36V69H1320.03V60.184H1321.85Z" fill="white"/>
<rect x="1374" y="40" width="79" height="48" rx="8" fill="#009191"/>
<path d="M1393.01 66.76C1393.54 66.216 1393.81 65.4907 1393.81 64.584C1393.81 63.6773 1393.54 62.9573 1393.01 62.424C1392.49 61.8907 1391.86 61.624 1391.14 61.624C1390.41 61.624 1389.78 61.8853 1389.25 62.408C1388.73 62.9307 1388.46 63.6453 1388.46 64.552C1388.46 65.4587 1388.73 66.1893 1389.25 66.744C1389.78 67.288 1390.41 67.56 1391.14 67.56C1391.86 67.56 1392.49 67.2933 1393.01 66.76ZM1390.75 69.144C1389.58 69.144 1388.59 68.7173 1387.79 67.864C1386.99 67 1386.59 65.9013 1386.59 64.568C1386.59 63.224 1386.99 62.136 1387.78 61.304C1388.58 60.4613 1389.57 60.04 1390.75 60.04C1391.45 60.04 1392.05 60.2 1392.58 60.52C1393.11 60.8293 1393.52 61.24 1393.81 61.752V57.16H1395.65V69H1393.81V67.352C1393.51 67.896 1393.1 68.3333 1392.58 68.664C1392.05 68.984 1391.45 69.144 1390.75 69.144ZM1403.92 66.808C1404.46 66.2747 1404.72 65.5333 1404.72 64.584C1404.72 63.6347 1404.46 62.8987 1403.94 62.376C1403.43 61.8427 1402.8 61.576 1402.07 61.576C1401.33 61.576 1400.71 61.8427 1400.21 62.376C1399.71 62.8987 1399.46 63.64 1399.46 64.6C1399.46 65.5493 1399.7 66.2907 1400.19 66.824C1400.68 67.3467 1401.29 67.608 1402.02 67.608C1402.75 67.608 1403.39 67.3413 1403.92 66.808ZM1402.02 69.144C1400.74 69.144 1399.68 68.728 1398.85 67.896C1398.02 67.0533 1397.6 65.9547 1397.6 64.6C1397.6 63.2347 1398.03 62.136 1398.88 61.304C1399.75 60.4613 1400.82 60.04 1402.1 60.04C1403.38 60.04 1404.44 60.4613 1405.3 61.304C1406.16 62.136 1406.59 63.2293 1406.59 64.584C1406.59 65.9387 1406.15 67.0373 1405.27 67.88C1404.39 68.7227 1403.31 69.144 1402.02 69.144ZM1412.26 69.144C1410.98 69.144 1409.94 68.728 1409.14 67.896C1408.34 67.064 1407.94 65.9653 1407.94 64.6C1407.94 63.224 1408.34 62.12 1409.14 61.288C1409.95 60.456 1410.99 60.04 1412.26 60.04C1413.33 60.04 1414.21 60.296 1414.9 60.808C1415.6 61.3093 1416.08 62.0293 1416.32 62.968H1414.35C1414.02 62.04 1413.33 61.576 1412.26 61.576C1411.51 61.576 1410.91 61.8427 1410.47 62.376C1410.03 62.8987 1409.81 63.6347 1409.81 64.584C1409.81 65.5333 1410.03 66.2747 1410.47 66.808C1410.91 67.3413 1411.51 67.608 1412.26 67.608C1413.31 67.608 1414.01 67.144 1414.35 66.216H1416.32C1416.07 67.112 1415.59 67.8267 1414.88 68.36C1414.18 68.8827 1413.3 69.144 1412.26 69.144ZM1420.37 57.848C1420.37 58.1787 1420.26 58.456 1420.03 58.68C1419.81 58.904 1419.53 59.016 1419.2 59.016C1418.88 59.016 1418.61 58.904 1418.39 58.68C1418.16 58.456 1418.05 58.1787 1418.05 57.848C1418.05 57.5173 1418.16 57.24 1418.39 57.016C1418.61 56.792 1418.88 56.68 1419.2 56.68C1419.53 56.68 1419.81 56.792 1420.03 57.016C1420.26 57.24 1420.37 57.5173 1420.37 57.848ZM1418.29 69V60.184H1420.11V69H1418.29ZM1428.47 66.76C1429 66.216 1429.27 65.4907 1429.27 64.584C1429.27 63.6773 1429 62.9573 1428.47 62.424C1427.94 61.8907 1427.32 61.624 1426.6 61.624C1425.87 61.624 1425.24 61.8853 1424.71 62.408C1424.18 62.9307 1423.92 63.6453 1423.92 64.552C1423.92 65.4587 1424.18 66.1893 1424.71 66.744C1425.24 67.288 1425.87 67.56 1426.6 67.56C1427.32 67.56 1427.94 67.2933 1428.47 66.76ZM1426.21 69.144C1425.04 69.144 1424.05 68.7173 1423.25 67.864C1422.45 67 1422.05 65.9013 1422.05 64.568C1422.05 63.224 1422.45 62.136 1423.24 61.304C1424.04 60.4613 1425.03 60.04 1426.21 60.04C1426.9 60.04 1427.51 60.2 1428.04 60.52C1428.57 60.8293 1428.98 61.24 1429.27 61.752V57.16H1431.11V69H1429.27V67.352C1428.97 67.896 1428.56 68.3333 1428.04 68.664C1427.51 68.984 1426.9 69.144 1426.21 69.144ZM1440.28 60.184L1437.43 64.536L1440.28 69H1438.21L1436.31 66.008L1434.52 69H1432.61L1435.46 64.664L1432.61 60.184H1434.68L1436.58 63.176L1438.37 60.184H1440.28Z" fill="white"/>
<rect opacity="0.8" x="557" width="139" height="48" rx="8" fill="#FBCB67"/>
<path d="M573.912 29.144C572.632 29.144 571.592 28.728 570.792 27.896C569.992 27.064 569.592 25.96 569.592 24.584C569.592 23.208 569.997 22.1093 570.808 21.288C571.619 20.456 572.664 20.04 573.944 20.04C575.235 20.04 576.28 20.44 577.08 21.24C577.88 22.0293 578.28 23.064 578.28 24.344C578.28 24.6533 578.259 24.9413 578.216 25.208H571.464C571.507 25.944 571.752 26.5307 572.2 26.968C572.659 27.3947 573.229 27.608 573.912 27.608C574.904 27.608 575.603 27.1973 576.008 26.376H577.976C577.709 27.1867 577.224 27.8533 576.52 28.376C575.816 28.888 574.947 29.144 573.912 29.144ZM576.376 23.96C576.365 23.2347 576.125 22.6587 575.656 22.232C575.187 21.7947 574.616 21.576 573.944 21.576C573.272 21.576 572.707 21.7947 572.248 22.232C571.8 22.6587 571.544 23.2347 571.48 23.96H576.376ZM582.049 20.184V21.576C582.636 20.552 583.574 20.04 584.865 20.04C585.857 20.04 586.673 20.3707 587.313 21.032C587.964 21.6933 588.289 22.616 588.289 23.8V29H586.481V24.072C586.481 23.2827 586.284 22.68 585.889 22.264C585.494 21.8373 584.956 21.624 584.273 21.624C583.59 21.624 583.046 21.8373 582.641 22.264C582.246 22.68 582.049 23.2827 582.049 24.072V29H580.225V20.184H582.049ZM594.478 29.144C593.198 29.144 592.158 28.728 591.358 27.896C590.558 27.064 590.158 25.9653 590.158 24.6C590.158 23.224 590.558 22.12 591.358 21.288C592.168 20.456 593.208 20.04 594.478 20.04C595.544 20.04 596.424 20.296 597.118 20.808C597.822 21.3093 598.296 22.0293 598.542 22.968H596.574C596.243 22.04 595.544 21.576 594.478 21.576C593.731 21.576 593.134 21.8427 592.686 22.376C592.248 22.8987 592.03 23.6347 592.03 24.584C592.03 25.5333 592.248 26.2747 592.686 26.808C593.134 27.3413 593.731 27.608 594.478 27.608C595.534 27.608 596.232 27.144 596.574 26.216H598.542C598.286 27.112 597.806 27.8267 597.102 28.36C596.398 28.8827 595.523 29.144 594.478 29.144ZM606.237 26.808C606.771 26.2747 607.037 25.5333 607.037 24.584C607.037 23.6347 606.776 22.8987 606.253 22.376C605.741 21.8427 605.117 21.576 604.381 21.576C603.645 21.576 603.027 21.8427 602.525 22.376C602.024 22.8987 601.773 23.64 601.773 24.6C601.773 25.5493 602.019 26.2907 602.509 26.824C603 27.3467 603.608 27.608 604.333 27.608C605.069 27.608 605.704 27.3413 606.237 26.808ZM604.333 29.144C603.053 29.144 601.997 28.728 601.165 27.896C600.333 27.0533 599.917 25.9547 599.917 24.6C599.917 23.2347 600.344 22.136 601.197 21.304C602.061 20.4613 603.133 20.04 604.413 20.04C605.693 20.04 606.76 20.4613 607.613 21.304C608.477 22.136 608.909 23.2293 608.909 24.584C608.909 25.9387 608.467 27.0373 607.581 27.88C606.707 28.7227 605.624 29.144 604.333 29.144ZM616.67 26.76C617.204 26.216 617.47 25.4907 617.47 24.584C617.47 23.6773 617.204 22.9573 616.67 22.424C616.148 21.8907 615.524 21.624 614.798 21.624C614.073 21.624 613.444 21.8853 612.91 22.408C612.388 22.9307 612.126 23.6453 612.126 24.552C612.126 25.4587 612.388 26.1893 612.91 26.744C613.444 27.288 614.073 27.56 614.798 27.56C615.524 27.56 616.148 27.2933 616.67 26.76ZM614.414 29.144C613.241 29.144 612.254 28.7173 611.454 27.864C610.654 27 610.254 25.9013 610.254 24.568C610.254 23.224 610.649 22.136 611.438 21.304C612.238 20.4613 613.23 20.04 614.414 20.04C615.108 20.04 615.716 20.2 616.238 20.52C616.772 20.8293 617.182 21.24 617.47 21.752V17.16H619.31V29H617.47V27.352C617.172 27.896 616.761 28.3333 616.238 28.664C615.716 28.984 615.108 29.144 614.414 29.144ZM625.568 29.144C624.288 29.144 623.248 28.728 622.448 27.896C621.648 27.064 621.248 25.96 621.248 24.584C621.248 23.208 621.654 22.1093 622.464 21.288C623.275 20.456 624.32 20.04 625.6 20.04C626.891 20.04 627.936 20.44 628.736 21.24C629.536 22.0293 629.936 23.064 629.936 24.344C629.936 24.6533 629.915 24.9413 629.872 25.208H623.12C623.163 25.944 623.408 26.5307 623.856 26.968C624.315 27.3947 624.886 27.608 625.568 27.608C626.56 27.608 627.259 27.1973 627.664 26.376H629.632C629.366 27.1867 628.88 27.8533 628.176 28.376C627.472 28.888 626.603 29.144 625.568 29.144ZM628.032 23.96C628.022 23.2347 627.782 22.6587 627.312 22.232C626.843 21.7947 626.272 21.576 625.6 21.576C624.928 21.576 624.363 21.7947 623.904 22.232C623.456 22.6587 623.2 23.2347 623.136 23.96H628.032ZM631.881 29V17.88H633.705V29H631.881ZM638.074 20.184V21.576C638.661 20.552 639.599 20.04 640.89 20.04C641.573 20.04 642.181 20.2 642.714 20.52C643.247 20.84 643.653 21.304 643.93 21.912C644.239 21.3253 644.666 20.8667 645.21 20.536C645.765 20.2053 646.389 20.04 647.082 20.04C648.095 20.04 648.927 20.3707 649.578 21.032C650.229 21.6827 650.554 22.6053 650.554 23.8V29H648.73V24.072C648.73 23.2827 648.533 22.68 648.138 22.264C647.743 21.8373 647.205 21.624 646.522 21.624C645.839 21.624 645.301 21.8373 644.906 22.264C644.511 22.68 644.314 23.2827 644.314 24.072V29H642.506V24.072C642.506 23.2827 642.309 22.68 641.914 22.264C641.519 21.8373 640.981 21.624 640.298 21.624C639.615 21.624 639.071 21.8373 638.666 22.264C638.271 22.68 638.074 23.2827 638.074 24.072V29H636.25V20.184H638.074ZM658.833 26.76C659.366 26.216 659.633 25.4907 659.633 24.584C659.633 23.6773 659.366 22.9573 658.833 22.424C658.31 21.8907 657.686 21.624 656.961 21.624C656.236 21.624 655.606 21.8853 655.073 22.408C654.55 22.9307 654.289 23.6453 654.289 24.552C654.289 25.4587 654.55 26.1893 655.073 26.744C655.606 27.288 656.236 27.56 656.961 27.56C657.686 27.56 658.31 27.2933 658.833 26.76ZM656.577 29.144C655.404 29.144 654.417 28.7173 653.617 27.864C652.817 27 652.417 25.9013 652.417 24.568C652.417 23.224 652.812 22.136 653.601 21.304C654.401 20.4613 655.393 20.04 656.577 20.04C657.27 20.04 657.878 20.2 658.401 20.52C658.934 20.8293 659.345 21.24 659.633 21.752V20.184H661.473V29H659.633V27.352C659.334 27.896 658.924 28.3333 658.401 28.664C657.878 28.984 657.27 29.144 656.577 29.144ZM667.571 29.144C666.397 29.144 665.411 28.7173 664.611 27.864C663.811 27 663.411 25.9013 663.411 24.568C663.411 23.224 663.805 22.136 664.595 21.304C665.395 20.4613 666.387 20.04 667.571 20.04C668.264 20.04 668.872 20.2 669.395 20.52C669.928 20.8293 670.339 21.24 670.627 21.752V20.184H672.467V29.144C672.467 30.3813 672.083 31.3893 671.315 32.168C670.557 32.9573 669.544 33.352 668.275 33.352C667.005 33.352 665.976 33.0693 665.187 32.504C664.397 31.9493 663.949 31.192 663.843 30.232H665.651C665.789 30.6907 666.083 31.0587 666.531 31.336C666.989 31.624 667.56 31.768 668.243 31.768C668.925 31.768 669.491 31.544 669.939 31.096C670.397 30.648 670.627 29.9973 670.627 29.144V27.352C670.328 27.896 669.917 28.3333 669.395 28.664C668.872 28.984 668.264 29.144 667.571 29.144ZM669.827 26.76C670.36 26.216 670.627 25.4907 670.627 24.584C670.627 23.6773 670.36 22.9573 669.827 22.424C669.304 21.8907 668.68 21.624 667.955 21.624C667.229 21.624 666.6 21.8853 666.067 22.408C665.544 22.9307 665.283 23.6453 665.283 24.552C665.283 25.4587 665.544 26.1893 666.067 26.744C666.6 27.288 667.229 27.56 667.955 27.56C668.68 27.56 669.304 27.2933 669.827 26.76ZM678.725 29.144C677.445 29.144 676.405 28.728 675.605 27.896C674.805 27.064 674.405 25.96 674.405 24.584C674.405 23.208 674.81 22.1093 675.621 21.288C676.431 20.456 677.477 20.04 678.757 20.04C680.047 20.04 681.093 20.44 681.892 21.24C682.693 22.0293 683.093 23.064 683.093 24.344C683.093 24.6533 683.071 24.9413 683.029 25.208H676.277C676.319 25.944 676.565 26.5307 677.013 26.968C677.471 27.3947 678.042 27.608 678.725 27.608C679.717 27.608 680.415 27.1973 680.821 26.376H682.789C682.522 27.1867 682.037 27.8533 681.333 28.376C680.629 28.888 679.759 29.144 678.725 29.144ZM681.189 23.96C681.178 23.2347 680.938 22.6587 680.469 22.232C679.999 21.7947 679.429 21.576 678.757 21.576C678.085 21.576 677.519 21.7947 677.061 22.232C676.613 22.6587 676.357 23.2347 676.293 23.96H681.189Z" fill="white"/>
<rect opacity="0.8" x="732" width="170" height="48" rx="8" fill="#FBCB67"/>
<path d="M747.28 17.848C747.28 18.1787 747.168 18.456 746.944 18.68C746.72 18.904 746.443 19.016 746.112 19.016C745.792 19.016 745.52 18.904 745.296 18.68C745.072 18.456 744.96 18.1787 744.96 17.848C744.96 17.5173 745.072 17.24 745.296 17.016C745.52 16.792 745.792 16.68 746.112 16.68C746.443 16.68 746.72 16.792 746.944 17.016C747.168 17.24 747.28 17.5173 747.28 17.848ZM745.2 29V20.184H747.024V29H745.2ZM751.393 20.184V21.576C751.979 20.552 752.918 20.04 754.209 20.04C754.891 20.04 755.499 20.2 756.033 20.52C756.566 20.84 756.971 21.304 757.249 21.912C757.558 21.3253 757.985 20.8667 758.529 20.536C759.083 20.2053 759.707 20.04 760.401 20.04C761.414 20.04 762.246 20.3707 762.897 21.032C763.547 21.6827 763.873 22.6053 763.873 23.8V29H762.049V24.072C762.049 23.2827 761.851 22.68 761.457 22.264C761.062 21.8373 760.523 21.624 759.841 21.624C759.158 21.624 758.619 21.8373 758.225 22.264C757.83 22.68 757.633 23.2827 757.633 24.072V29H755.825V24.072C755.825 23.2827 755.627 22.68 755.233 22.264C754.838 21.8373 754.299 21.624 753.617 21.624C752.934 21.624 752.39 21.8373 751.985 22.264C751.59 22.68 751.393 23.2827 751.393 24.072V29H749.569V20.184H751.393ZM769.896 29.144C768.722 29.144 767.736 28.7173 766.936 27.864C766.136 27 765.736 25.9013 765.736 24.568C765.736 23.224 766.13 22.136 766.92 21.304C767.72 20.4613 768.712 20.04 769.896 20.04C770.589 20.04 771.197 20.2 771.72 20.52C772.253 20.8293 772.664 21.24 772.952 21.752V20.184H774.792V29.144C774.792 30.3813 774.408 31.3893 773.64 32.168C772.882 32.9573 771.869 33.352 770.6 33.352C769.33 33.352 768.301 33.0693 767.512 32.504C766.722 31.9493 766.274 31.192 766.168 30.232H767.976C768.114 30.6907 768.408 31.0587 768.856 31.336C769.314 31.624 769.885 31.768 770.568 31.768C771.25 31.768 771.816 31.544 772.264 31.096C772.722 30.648 772.952 29.9973 772.952 29.144V27.352C772.653 27.896 772.242 28.3333 771.72 28.664C771.197 28.984 770.589 29.144 769.896 29.144ZM772.152 26.76C772.685 26.216 772.952 25.4907 772.952 24.584C772.952 23.6773 772.685 22.9573 772.152 22.424C771.629 21.8907 771.005 21.624 770.28 21.624C769.554 21.624 768.925 21.8853 768.392 22.408C767.869 22.9307 767.608 23.6453 767.608 24.552C767.608 25.4587 767.869 26.1893 768.392 26.744C768.925 27.288 769.554 27.56 770.28 27.56C771.005 27.56 771.629 27.2933 772.152 26.76ZM782.41 29.096C780.82 29.096 779.476 28.5627 778.378 27.496C777.279 26.4293 776.73 25.0747 776.73 23.432C776.73 21.7787 777.279 20.4187 778.378 19.352C779.476 18.2747 780.82 17.736 782.41 17.736C783.594 17.736 784.644 18.0293 785.562 18.616C786.49 19.192 787.162 20.0133 787.578 21.08H785.386C784.788 19.96 783.796 19.4 782.41 19.4C781.29 19.4 780.372 19.768 779.658 20.504C778.954 21.24 778.602 22.216 778.602 23.432C778.602 24.6373 778.954 25.608 779.658 26.344C780.372 27.08 781.29 27.448 782.41 27.448C783.796 27.448 784.788 26.888 785.386 25.768H787.578C787.162 26.8347 786.49 27.656 785.562 28.232C784.644 28.808 783.594 29.096 782.41 29.096ZM791.686 17.16V21.576C792.273 20.552 793.212 20.04 794.502 20.04C795.494 20.04 796.31 20.3707 796.95 21.032C797.601 21.6933 797.926 22.616 797.926 23.8V29H796.118V24.072C796.118 23.2827 795.921 22.68 795.526 22.264C795.132 21.8373 794.593 21.624 793.91 21.624C793.228 21.624 792.684 21.8373 792.278 22.264C791.884 22.68 791.686 23.2827 791.686 24.072V29H789.862V17.16H791.686ZM806.563 20.184H808.387V29H806.563V27.608C805.987 28.6213 805.048 29.128 803.747 29.128C802.755 29.128 801.934 28.8027 801.283 28.152C800.643 27.4907 800.323 26.568 800.323 25.384V20.184H802.131V25.112C802.131 25.9013 802.328 26.5093 802.723 26.936C803.118 27.352 803.656 27.56 804.339 27.56C805.022 27.56 805.56 27.352 805.955 26.936C806.36 26.5093 806.563 25.9013 806.563 25.112V20.184ZM812.768 20.184V21.576C813.354 20.552 814.293 20.04 815.584 20.04C816.576 20.04 817.392 20.3707 818.032 21.032C818.682 21.6933 819.008 22.616 819.008 23.8V29H817.2V24.072C817.2 23.2827 817.002 22.68 816.608 22.264C816.213 21.8373 815.674 21.624 814.992 21.624C814.309 21.624 813.765 21.8373 813.36 22.264C812.965 22.68 812.768 23.2827 812.768 24.072V29H810.944V20.184H812.768ZM823.308 29H821.484V17.16H823.308V24.04L826.508 20.184H829.036L824.972 24.6L829.036 29H826.572L823.308 25.208V29ZM830.494 29V17.88H832.318V29H830.494ZM836.686 20.184V21.576C837.273 20.552 838.212 20.04 839.502 20.04C840.494 20.04 841.31 20.3707 841.95 21.032C842.601 21.6933 842.926 22.616 842.926 23.8V29H841.118V24.072C841.118 23.2827 840.921 22.68 840.526 22.264C840.132 21.8373 839.593 21.624 838.91 21.624C838.228 21.624 837.684 21.8373 837.278 22.264C836.884 22.68 836.686 23.2827 836.686 24.072V29H834.862V20.184H836.686ZM851.211 26.76C851.744 26.216 852.011 25.4907 852.011 24.584C852.011 23.6773 851.744 22.9573 851.211 22.424C850.688 21.8907 850.064 21.624 849.339 21.624C848.614 21.624 847.984 21.8853 847.451 22.408C846.928 22.9307 846.667 23.6453 846.667 24.552C846.667 25.4587 846.928 26.1893 847.451 26.744C847.984 27.288 848.614 27.56 849.339 27.56C850.064 27.56 850.688 27.2933 851.211 26.76ZM848.955 29.144C847.782 29.144 846.795 28.7173 845.995 27.864C845.195 27 844.795 25.9013 844.795 24.568C844.795 23.224 845.19 22.136 845.979 21.304C846.779 20.4613 847.771 20.04 848.955 20.04C849.648 20.04 850.256 20.2 850.779 20.52C851.312 20.8293 851.723 21.24 852.011 21.752V17.16H853.851V29H852.011V27.352C851.712 27.896 851.302 28.3333 850.779 28.664C850.256 28.984 849.648 29.144 848.955 29.144ZM860.109 29.144C858.829 29.144 857.789 28.728 856.989 27.896C856.189 27.064 855.789 25.96 855.789 24.584C855.789 23.208 856.194 22.1093 857.005 21.288C857.816 20.456 858.861 20.04 860.141 20.04C861.432 20.04 862.477 20.44 863.277 21.24C864.077 22.0293 864.477 23.064 864.477 24.344C864.477 24.6533 864.456 24.9413 864.413 25.208H857.661C857.704 25.944 857.949 26.5307 858.397 26.968C858.856 27.3947 859.426 27.608 860.109 27.608C861.101 27.608 861.8 27.1973 862.205 26.376H864.173C863.906 27.1867 863.421 27.8533 862.717 28.376C862.013 28.888 861.144 29.144 860.109 29.144ZM862.573 23.96C862.562 23.2347 862.322 22.6587 861.853 22.232C861.384 21.7947 860.813 21.576 860.141 21.576C859.469 21.576 858.904 21.7947 858.445 22.232C857.997 22.6587 857.741 23.2347 857.677 23.96H862.573ZM873.046 20.184L870.198 24.536L873.046 29H870.982L869.078 26.008L867.286 29H865.382L868.23 24.664L865.382 20.184H867.446L869.35 23.176L871.142 20.184H873.046ZM878.268 29.144C876.988 29.144 875.948 28.728 875.148 27.896C874.348 27.064 873.948 25.96 873.948 24.584C873.948 23.208 874.354 22.1093 875.164 21.288C875.975 20.456 877.02 20.04 878.3 20.04C879.591 20.04 880.636 20.44 881.436 21.24C882.236 22.0293 882.636 23.064 882.636 24.344C882.636 24.6533 882.615 24.9413 882.572 25.208H875.82C875.863 25.944 876.108 26.5307 876.556 26.968C877.015 27.3947 877.586 27.608 878.268 27.608C879.26 27.608 879.959 27.1973 880.364 26.376H882.332C882.066 27.1867 881.58 27.8533 880.876 28.376C880.172 28.888 879.303 29.144 878.268 29.144ZM880.732 23.96C880.722 23.2347 880.482 22.6587 880.012 22.232C879.543 21.7947 878.972 21.576 878.3 21.576C877.628 21.576 877.063 21.7947 876.604 22.232C876.156 22.6587 875.9 23.2347 875.836 23.96H880.732ZM886.405 20.184V21.72C886.971 20.6 887.851 20.04 889.045 20.04V21.928H888.581C887.867 21.928 887.323 22.1093 886.949 22.472C886.587 22.8347 886.405 23.464 886.405 24.36V29H884.581V20.184H886.405Z" fill="white"/>
<rect opacity="0.8" x="733" y="80" width="168" height="48" rx="8" fill="#EB6161"/>
<path d="M750.472 101.672H748.328V106.552C748.328 106.883 748.403 107.123 748.552 107.272C748.712 107.411 748.979 107.48 749.352 107.48H750.472V109H749.032C747.336 109 746.488 108.184 746.488 106.552V101.672H745.448V100.184H746.488V97.992H748.328V100.184H750.472V101.672ZM756.015 109.144C754.735 109.144 753.695 108.728 752.895 107.896C752.095 107.064 751.695 105.96 751.695 104.584C751.695 103.208 752.1 102.109 752.911 101.288C753.722 100.456 754.767 100.04 756.047 100.04C757.338 100.04 758.383 100.44 759.183 101.24C759.983 102.029 760.383 103.064 760.383 104.344C760.383 104.653 760.362 104.941 760.319 105.208H753.567C753.61 105.944 753.855 106.531 754.303 106.968C754.762 107.395 755.332 107.608 756.015 107.608C757.007 107.608 757.706 107.197 758.111 106.376H760.079C759.812 107.187 759.327 107.853 758.623 108.376C757.919 108.888 757.05 109.144 756.015 109.144ZM758.479 103.96C758.468 103.235 758.228 102.659 757.759 102.232C757.29 101.795 756.719 101.576 756.047 101.576C755.375 101.576 754.81 101.795 754.351 102.232C753.903 102.659 753.647 103.235 753.583 103.96H758.479ZM768.952 100.184L766.104 104.536L768.952 109H766.888L764.984 106.008L763.192 109H761.288L764.136 104.664L761.288 100.184H763.352L765.256 103.176L767.048 100.184H768.952ZM774.735 101.672H772.591V106.552C772.591 106.883 772.665 107.123 772.815 107.272C772.975 107.411 773.241 107.48 773.615 107.48H774.735V109H773.295C771.599 109 770.751 108.184 770.751 106.552V101.672H769.711V100.184H770.751V97.992H772.591V100.184H774.735V101.672ZM781.638 109.096C780.048 109.096 778.704 108.563 777.606 107.496C776.507 106.429 775.958 105.075 775.958 103.432C775.958 101.779 776.507 100.419 777.606 99.352C778.704 98.2747 780.048 97.736 781.638 97.736C782.822 97.736 783.872 98.0293 784.79 98.616C785.718 99.192 786.39 100.013 786.806 101.08H784.614C784.016 99.96 783.024 99.4 781.638 99.4C780.518 99.4 779.6 99.768 778.886 100.504C778.182 101.24 777.83 102.216 777.83 103.432C777.83 104.637 778.182 105.608 778.886 106.344C779.6 107.08 780.518 107.448 781.638 107.448C783.024 107.448 784.016 106.888 784.614 105.768H786.806C786.39 106.835 785.718 107.656 784.79 108.232C783.872 108.808 782.822 109.096 781.638 109.096ZM790.915 97.16V101.576C791.501 100.552 792.44 100.04 793.731 100.04C794.723 100.04 795.539 100.371 796.179 101.032C796.829 101.693 797.155 102.616 797.155 103.8V109H795.347V104.072C795.347 103.283 795.149 102.68 794.755 102.264C794.36 101.837 793.821 101.624 793.139 101.624C792.456 101.624 791.912 101.837 791.507 102.264C791.112 102.68 790.915 103.283 790.915 104.072V109H789.091V97.16H790.915ZM805.791 100.184H807.615V109H805.791V107.608C805.215 108.621 804.277 109.128 802.975 109.128C801.983 109.128 801.162 108.803 800.511 108.152C799.871 107.491 799.551 106.568 799.551 105.384V100.184H801.359V105.112C801.359 105.901 801.557 106.509 801.951 106.936C802.346 107.352 802.885 107.56 803.567 107.56C804.25 107.56 804.789 107.352 805.183 106.936C805.589 106.509 805.791 105.901 805.791 105.112V100.184ZM811.996 100.184V101.576C812.583 100.552 813.521 100.04 814.812 100.04C815.804 100.04 816.62 100.371 817.26 101.032C817.911 101.693 818.236 102.616 818.236 103.8V109H816.428V104.072C816.428 103.283 816.231 102.68 815.836 102.264C815.441 101.837 814.903 101.624 814.22 101.624C813.537 101.624 812.993 101.837 812.588 102.264C812.193 102.68 811.996 103.283 811.996 104.072V109H810.172V100.184H811.996ZM822.536 109H820.712V97.16H822.536V104.04L825.736 100.184H828.264L824.2 104.6L828.264 109H825.8L822.536 105.208V109ZM829.722 109V97.88H831.546V109H829.722ZM835.915 100.184V101.576C836.501 100.552 837.44 100.04 838.731 100.04C839.723 100.04 840.539 100.371 841.179 101.032C841.829 101.693 842.155 102.616 842.155 103.8V109H840.347V104.072C840.347 103.283 840.149 102.68 839.755 102.264C839.36 101.837 838.821 101.624 838.139 101.624C837.456 101.624 836.912 101.837 836.507 102.264C836.112 102.68 835.915 103.283 835.915 104.072V109H834.091V100.184H835.915ZM850.439 106.76C850.973 106.216 851.239 105.491 851.239 104.584C851.239 103.677 850.973 102.957 850.439 102.424C849.917 101.891 849.293 101.624 848.567 101.624C847.842 101.624 847.213 101.885 846.679 102.408C846.157 102.931 845.895 103.645 845.895 104.552C845.895 105.459 846.157 106.189 846.679 106.744C847.213 107.288 847.842 107.56 848.567 107.56C849.293 107.56 849.917 107.293 850.439 106.76ZM848.183 109.144C847.01 109.144 846.023 108.717 845.223 107.864C844.423 107 844.023 105.901 844.023 104.568C844.023 103.224 844.418 102.136 845.207 101.304C846.007 100.461 846.999 100.04 848.183 100.04C848.877 100.04 849.485 100.2 850.007 100.52C850.541 100.829 850.951 101.24 851.239 101.752V97.16H853.079V109H851.239V107.352C850.941 107.896 850.53 108.333 850.007 108.664C849.485 108.984 848.877 109.144 848.183 109.144ZM859.337 109.144C858.057 109.144 857.017 108.728 856.217 107.896C855.417 107.064 855.017 105.96 855.017 104.584C855.017 103.208 855.422 102.109 856.233 101.288C857.044 100.456 858.089 100.04 859.369 100.04C860.66 100.04 861.705 100.44 862.505 101.24C863.305 102.029 863.705 103.064 863.705 104.344C863.705 104.653 863.684 104.941 863.641 105.208H856.889C856.932 105.944 857.177 106.531 857.625 106.968C858.084 107.395 858.654 107.608 859.337 107.608C860.329 107.608 861.028 107.197 861.433 106.376H863.401C863.134 107.187 862.649 107.853 861.945 108.376C861.241 108.888 860.372 109.144 859.337 109.144ZM861.801 103.96C861.79 103.235 861.55 102.659 861.081 102.232C860.612 101.795 860.041 101.576 859.369 101.576C858.697 101.576 858.132 101.795 857.673 102.232C857.225 102.659 856.969 103.235 856.905 103.96H861.801ZM872.274 100.184L869.426 104.536L872.274 109H870.21L868.306 106.008L866.514 109H864.61L867.458 104.664L864.61 100.184H866.674L868.578 103.176L870.37 100.184H872.274ZM877.496 109.144C876.216 109.144 875.176 108.728 874.376 107.896C873.576 107.064 873.176 105.96 873.176 104.584C873.176 103.208 873.582 102.109 874.392 101.288C875.203 100.456 876.248 100.04 877.528 100.04C878.819 100.04 879.864 100.44 880.664 101.24C881.464 102.029 881.864 103.064 881.864 104.344C881.864 104.653 881.843 104.941 881.8 105.208H875.048C875.091 105.944 875.336 106.531 875.784 106.968C876.243 107.395 876.814 107.608 877.496 107.608C878.488 107.608 879.187 107.197 879.592 106.376H881.56C881.294 107.187 880.808 107.853 880.104 108.376C879.4 108.888 878.531 109.144 877.496 109.144ZM879.96 103.96C879.95 103.235 879.71 102.659 879.24 102.232C878.771 101.795 878.2 101.576 877.528 101.576C876.856 101.576 876.291 101.795 875.832 102.232C875.384 102.659 875.128 103.235 875.064 103.96H879.96ZM885.633 100.184V101.72C886.199 100.6 887.079 100.04 888.273 100.04V101.928H887.809C887.095 101.928 886.551 102.109 886.177 102.472C885.815 102.835 885.633 103.464 885.633 104.36V109H883.809V100.184H885.633Z" fill="white"/>
<rect opacity="0.8" x="938" width="176" height="48" rx="8" fill="#FBCB67"/>
<path d="M953.28 17.848C953.28 18.1787 953.168 18.456 952.944 18.68C952.72 18.904 952.443 19.016 952.112 19.016C951.792 19.016 951.52 18.904 951.296 18.68C951.072 18.456 950.96 18.1787 950.96 17.848C950.96 17.5173 951.072 17.24 951.296 17.016C951.52 16.792 951.792 16.68 952.112 16.68C952.443 16.68 952.72 16.792 952.944 17.016C953.168 17.24 953.28 17.5173 953.28 17.848ZM951.2 29V20.184H953.024V29H951.2ZM957.393 20.184V21.576C957.979 20.552 958.918 20.04 960.209 20.04C960.891 20.04 961.499 20.2 962.033 20.52C962.566 20.84 962.971 21.304 963.249 21.912C963.558 21.3253 963.985 20.8667 964.529 20.536C965.083 20.2053 965.707 20.04 966.401 20.04C967.414 20.04 968.246 20.3707 968.897 21.032C969.547 21.6827 969.873 22.6053 969.873 23.8V29H968.049V24.072C968.049 23.2827 967.851 22.68 967.457 22.264C967.062 21.8373 966.523 21.624 965.841 21.624C965.158 21.624 964.619 21.8373 964.225 22.264C963.83 22.68 963.633 23.2827 963.633 24.072V29H961.825V24.072C961.825 23.2827 961.627 22.68 961.233 22.264C960.838 21.8373 960.299 21.624 959.617 21.624C958.934 21.624 958.39 21.8373 957.985 22.264C957.59 22.68 957.393 23.2827 957.393 24.072V29H955.569V20.184H957.393ZM978.152 26.76C978.685 26.216 978.952 25.4907 978.952 24.584C978.952 23.6773 978.685 22.9573 978.152 22.424C977.629 21.8907 977.005 21.624 976.28 21.624C975.554 21.624 974.925 21.8853 974.392 22.408C973.869 22.9307 973.608 23.6453 973.608 24.552C973.608 25.4587 973.869 26.1893 974.392 26.744C974.925 27.288 975.554 27.56 976.28 27.56C977.005 27.56 977.629 27.2933 978.152 26.76ZM975.896 29.144C974.722 29.144 973.736 28.7173 972.936 27.864C972.136 27 971.736 25.9013 971.736 24.568C971.736 23.224 972.13 22.136 972.92 21.304C973.72 20.4613 974.712 20.04 975.896 20.04C976.589 20.04 977.197 20.2 977.72 20.52C978.253 20.8293 978.664 21.24 978.952 21.752V20.184H980.792V29H978.952V27.352C978.653 27.896 978.242 28.3333 977.72 28.664C977.197 28.984 976.589 29.144 975.896 29.144ZM986.89 29.144C985.716 29.144 984.73 28.7173 983.93 27.864C983.13 27 982.73 25.9013 982.73 24.568C982.73 23.224 983.124 22.136 983.914 21.304C984.714 20.4613 985.706 20.04 986.89 20.04C987.583 20.04 988.191 20.2 988.714 20.52C989.247 20.8293 989.658 21.24 989.946 21.752V20.184H991.786V29.144C991.786 30.3813 991.402 31.3893 990.634 32.168C989.876 32.9573 988.863 33.352 987.594 33.352C986.324 33.352 985.295 33.0693 984.506 32.504C983.716 31.9493 983.268 31.192 983.162 30.232H984.97C985.108 30.6907 985.402 31.0587 985.85 31.336C986.308 31.624 986.879 31.768 987.562 31.768C988.244 31.768 988.81 31.544 989.258 31.096C989.716 30.648 989.946 29.9973 989.946 29.144V27.352C989.647 27.896 989.236 28.3333 988.714 28.664C988.191 28.984 987.583 29.144 986.89 29.144ZM989.146 26.76C989.679 26.216 989.946 25.4907 989.946 24.584C989.946 23.6773 989.679 22.9573 989.146 22.424C988.623 21.8907 987.999 21.624 987.274 21.624C986.548 21.624 985.919 21.8853 985.386 22.408C984.863 22.9307 984.602 23.6453 984.602 24.552C984.602 25.4587 984.863 26.1893 985.386 26.744C985.919 27.288 986.548 27.56 987.274 27.56C987.999 27.56 988.623 27.2933 989.146 26.76ZM998.043 29.144C996.763 29.144 995.723 28.728 994.923 27.896C994.123 27.064 993.723 25.96 993.723 24.584C993.723 23.208 994.129 22.1093 994.939 21.288C995.75 20.456 996.795 20.04 998.075 20.04C999.366 20.04 1000.41 20.44 1001.21 21.24C1002.01 22.0293 1002.41 23.064 1002.41 24.344C1002.41 24.6533 1002.39 24.9413 1002.35 25.208H995.595C995.638 25.944 995.883 26.5307 996.331 26.968C996.79 27.3947 997.361 27.608 998.043 27.608C999.035 27.608 999.734 27.1973 1000.14 26.376H1002.11C1001.84 27.1867 1001.36 27.8533 1000.65 28.376C999.947 28.888 999.078 29.144 998.043 29.144ZM1000.51 23.96C1000.5 23.2347 1000.26 22.6587 999.787 22.232C999.318 21.7947 998.747 21.576 998.075 21.576C997.403 21.576 996.838 21.7947 996.379 22.232C995.931 22.6587 995.675 23.2347 995.611 23.96H1000.51ZM1009.43 29.096C1007.84 29.096 1006.49 28.5627 1005.4 27.496C1004.3 26.4293 1003.75 25.0747 1003.75 23.432C1003.75 21.7787 1004.3 20.4187 1005.4 19.352C1006.49 18.2747 1007.84 17.736 1009.43 17.736C1010.61 17.736 1011.66 18.0293 1012.58 18.616C1013.51 19.192 1014.18 20.0133 1014.6 21.08H1012.4C1011.81 19.96 1010.81 19.4 1009.43 19.4C1008.31 19.4 1007.39 19.768 1006.68 20.504C1005.97 21.24 1005.62 22.216 1005.62 23.432C1005.62 24.6373 1005.97 25.608 1006.68 26.344C1007.39 27.08 1008.31 27.448 1009.43 27.448C1010.81 27.448 1011.81 26.888 1012.4 25.768H1014.6C1014.18 26.8347 1013.51 27.656 1012.58 28.232C1011.66 28.808 1010.61 29.096 1009.43 29.096ZM1018.71 17.16V21.576C1019.29 20.552 1020.23 20.04 1021.52 20.04C1022.51 20.04 1023.33 20.3707 1023.97 21.032C1024.62 21.6933 1024.95 22.616 1024.95 23.8V29H1023.14V24.072C1023.14 23.2827 1022.94 22.68 1022.55 22.264C1022.15 21.8373 1021.61 21.624 1020.93 21.624C1020.25 21.624 1019.7 21.8373 1019.3 22.264C1018.9 22.68 1018.71 23.2827 1018.71 24.072V29H1016.88V17.16H1018.71ZM1033.58 20.184H1035.41V29H1033.58V27.608C1033.01 28.6213 1032.07 29.128 1030.77 29.128C1029.77 29.128 1028.95 28.8027 1028.3 28.152C1027.66 27.4907 1027.34 26.568 1027.34 25.384V20.184H1029.15V25.112C1029.15 25.9013 1029.35 26.5093 1029.74 26.936C1030.14 27.352 1030.68 27.56 1031.36 27.56C1032.04 27.56 1032.58 27.352 1032.97 26.936C1033.38 26.5093 1033.58 25.9013 1033.58 25.112V20.184ZM1039.79 20.184V21.576C1040.37 20.552 1041.31 20.04 1042.6 20.04C1043.59 20.04 1044.41 20.3707 1045.05 21.032C1045.7 21.6933 1046.03 22.616 1046.03 23.8V29H1044.22V24.072C1044.22 23.2827 1044.02 22.68 1043.63 22.264C1043.23 21.8373 1042.69 21.624 1042.01 21.624C1041.33 21.624 1040.78 21.8373 1040.38 22.264C1039.98 22.68 1039.79 23.2827 1039.79 24.072V29H1037.96V20.184H1039.79ZM1050.33 29H1048.5V17.16H1050.33V24.04L1053.53 20.184H1056.06L1051.99 24.6L1056.06 29H1053.59L1050.33 25.208V29ZM1059.34 29H1057.51V17.88H1059.34V22.952L1063.66 17.88H1066.04L1061.02 23.464L1066.04 29H1063.64L1059.34 24.024V29ZM1071.08 29L1066.89 17.88H1068.84L1072.12 27.112L1075.44 17.88H1077.37L1073.2 29H1071.08ZM1081.13 17.848C1081.13 18.1787 1081.01 18.456 1080.79 18.68C1080.57 18.904 1080.29 19.016 1079.96 19.016C1079.64 19.016 1079.37 18.904 1079.14 18.68C1078.92 18.456 1078.81 18.1787 1078.81 17.848C1078.81 17.5173 1078.92 17.24 1079.14 17.016C1079.37 16.792 1079.64 16.68 1079.96 16.68C1080.29 16.68 1080.57 16.792 1080.79 17.016C1081.01 17.24 1081.13 17.5173 1081.13 17.848ZM1079.05 29V20.184H1080.87V29H1079.05ZM1089.22 26.76C1089.76 26.216 1090.02 25.4907 1090.02 24.584C1090.02 23.6773 1089.76 22.9573 1089.22 22.424C1088.7 21.8907 1088.08 21.624 1087.35 21.624C1086.63 21.624 1086 21.8853 1085.46 22.408C1084.94 22.9307 1084.68 23.6453 1084.68 24.552C1084.68 25.4587 1084.94 26.1893 1085.46 26.744C1086 27.288 1086.63 27.56 1087.35 27.56C1088.08 27.56 1088.7 27.2933 1089.22 26.76ZM1086.97 29.144C1085.79 29.144 1084.81 28.7173 1084.01 27.864C1083.21 27 1082.81 25.9013 1082.81 24.568C1082.81 23.224 1083.2 22.136 1083.99 21.304C1084.79 20.4613 1085.78 20.04 1086.97 20.04C1087.66 20.04 1088.27 20.2 1088.79 20.52C1089.32 20.8293 1089.74 21.24 1090.02 21.752V17.16H1091.86V29H1090.02V27.352C1089.72 27.896 1089.31 28.3333 1088.79 28.664C1088.27 28.984 1087.66 29.144 1086.97 29.144ZM1101.03 20.184L1098.19 24.536L1101.03 29H1098.97L1097.07 26.008L1095.27 29H1093.37L1096.22 24.664L1093.37 20.184H1095.43L1097.34 23.176L1099.13 20.184H1101.03Z" fill="white"/>
<rect opacity="0.8" x="950" y="80" width="153" height="48" rx="8" fill="#EB6161"/>
<path d="M967.472 101.672H965.328V106.552C965.328 106.883 965.403 107.123 965.552 107.272C965.712 107.411 965.979 107.48 966.352 107.48H967.472V109H966.032C964.336 109 963.488 108.184 963.488 106.552V101.672H962.448V100.184H963.488V97.992H965.328V100.184H967.472V101.672ZM973.015 109.144C971.735 109.144 970.695 108.728 969.895 107.896C969.095 107.064 968.695 105.96 968.695 104.584C968.695 103.208 969.1 102.109 969.911 101.288C970.722 100.456 971.767 100.04 973.047 100.04C974.338 100.04 975.383 100.44 976.183 101.24C976.983 102.029 977.383 103.064 977.383 104.344C977.383 104.653 977.362 104.941 977.319 105.208H970.567C970.61 105.944 970.855 106.531 971.303 106.968C971.762 107.395 972.332 107.608 973.015 107.608C974.007 107.608 974.706 107.197 975.111 106.376H977.079C976.812 107.187 976.327 107.853 975.623 108.376C974.919 108.888 974.05 109.144 973.015 109.144ZM975.479 103.96C975.468 103.235 975.228 102.659 974.759 102.232C974.29 101.795 973.719 101.576 973.047 101.576C972.375 101.576 971.81 101.795 971.351 102.232C970.903 102.659 970.647 103.235 970.583 103.96H975.479ZM985.952 100.184L983.104 104.536L985.952 109H983.888L981.984 106.008L980.192 109H978.288L981.136 104.664L978.288 100.184H980.352L982.256 103.176L984.048 100.184H985.952ZM991.735 101.672H989.591V106.552C989.591 106.883 989.665 107.123 989.815 107.272C989.975 107.411 990.241 107.48 990.615 107.48H991.735V109H990.295C988.599 109 987.751 108.184 987.751 106.552V101.672H986.711V100.184H987.751V97.992H989.591V100.184H991.735V101.672ZM998.638 109.096C997.048 109.096 995.704 108.563 994.606 107.496C993.507 106.429 992.958 105.075 992.958 103.432C992.958 101.779 993.507 100.419 994.606 99.352C995.704 98.2747 997.048 97.736 998.638 97.736C999.822 97.736 1000.87 98.0293 1001.79 98.616C1002.72 99.192 1003.39 100.013 1003.81 101.08H1001.61C1001.02 99.96 1000.02 99.4 998.638 99.4C997.518 99.4 996.6 99.768 995.886 100.504C995.182 101.24 994.83 102.216 994.83 103.432C994.83 104.637 995.182 105.608 995.886 106.344C996.6 107.08 997.518 107.448 998.638 107.448C1000.02 107.448 1001.02 106.888 1001.61 105.768H1003.81C1003.39 106.835 1002.72 107.656 1001.79 108.232C1000.87 108.808 999.822 109.096 998.638 109.096ZM1007.91 97.16V101.576C1008.5 100.552 1009.44 100.04 1010.73 100.04C1011.72 100.04 1012.54 100.371 1013.18 101.032C1013.83 101.693 1014.15 102.616 1014.15 103.8V109H1012.35V104.072C1012.35 103.283 1012.15 102.68 1011.75 102.264C1011.36 101.837 1010.82 101.624 1010.14 101.624C1009.46 101.624 1008.91 101.837 1008.51 102.264C1008.11 102.68 1007.91 103.283 1007.91 104.072V109H1006.09V97.16H1007.91ZM1022.79 100.184H1024.62V109H1022.79V107.608C1022.22 108.621 1021.28 109.128 1019.98 109.128C1018.98 109.128 1018.16 108.803 1017.51 108.152C1016.87 107.491 1016.55 106.568 1016.55 105.384V100.184H1018.36V105.112C1018.36 105.901 1018.56 106.509 1018.95 106.936C1019.35 107.352 1019.88 107.56 1020.57 107.56C1021.25 107.56 1021.79 107.352 1022.18 106.936C1022.59 106.509 1022.79 105.901 1022.79 105.112V100.184ZM1029 100.184V101.576C1029.58 100.552 1030.52 100.04 1031.81 100.04C1032.8 100.04 1033.62 100.371 1034.26 101.032C1034.91 101.693 1035.24 102.616 1035.24 103.8V109H1033.43V104.072C1033.43 103.283 1033.23 102.68 1032.84 102.264C1032.44 101.837 1031.9 101.624 1031.22 101.624C1030.54 101.624 1029.99 101.837 1029.59 102.264C1029.19 102.68 1029 103.283 1029 104.072V109H1027.17V100.184H1029ZM1039.54 109H1037.71V97.16H1039.54V104.04L1042.74 100.184H1045.26L1041.2 104.6L1045.26 109H1042.8L1039.54 105.208V109ZM1048.55 109H1046.72V97.88H1048.55V102.952L1052.87 97.88H1055.25L1050.23 103.464L1055.25 109H1052.85L1048.55 104.024V109ZM1060.29 109L1056.1 97.88H1058.05L1061.33 107.112L1064.64 97.88H1066.58L1062.4 109H1060.29ZM1070.34 97.848C1070.34 98.1787 1070.22 98.456 1070 98.68C1069.78 98.904 1069.5 99.016 1069.17 99.016C1068.85 99.016 1068.58 98.904 1068.35 98.68C1068.13 98.456 1068.02 98.1787 1068.02 97.848C1068.02 97.5173 1068.13 97.24 1068.35 97.016C1068.58 96.792 1068.85 96.68 1069.17 96.68C1069.5 96.68 1069.78 96.792 1070 97.016C1070.22 97.24 1070.34 97.5173 1070.34 97.848ZM1068.26 109V100.184H1070.08V109H1068.26ZM1078.43 106.76C1078.97 106.216 1079.23 105.491 1079.23 104.584C1079.23 103.677 1078.97 102.957 1078.43 102.424C1077.91 101.891 1077.29 101.624 1076.56 101.624C1075.84 101.624 1075.21 101.885 1074.67 102.408C1074.15 102.931 1073.89 103.645 1073.89 104.552C1073.89 105.459 1074.15 106.189 1074.67 106.744C1075.21 107.288 1075.84 107.56 1076.56 107.56C1077.29 107.56 1077.91 107.293 1078.43 106.76ZM1076.18 109.144C1075 109.144 1074.02 108.717 1073.22 107.864C1072.42 107 1072.02 105.901 1072.02 104.568C1072.02 103.224 1072.41 102.136 1073.2 101.304C1074 100.461 1074.99 100.04 1076.18 100.04C1076.87 100.04 1077.48 100.2 1078 100.52C1078.53 100.829 1078.95 101.24 1079.23 101.752V97.16H1081.07V109H1079.23V107.352C1078.93 107.896 1078.52 108.333 1078 108.664C1077.48 108.984 1076.87 109.144 1076.18 109.144ZM1090.24 100.184L1087.39 104.536L1090.24 109H1088.18L1086.27 106.008L1084.48 109H1082.58L1085.43 104.664L1082.58 100.184H1084.64L1086.55 103.176L1088.34 100.184H1090.24Z" fill="white"/>
<rect x="132" y="40" width="206" height="48" rx="8" fill="#009191"/>
<path d="M156.912 57.88V69H155.088V61.384L151.696 69H150.432L147.024 61.384V69H145.2V57.88H147.168L151.072 66.6L154.96 57.88H156.912ZM165.619 60.184H167.443V69H165.619V67.608C165.043 68.6213 164.105 69.128 162.803 69.128C161.811 69.128 160.99 68.8027 160.339 68.152C159.699 67.4907 159.379 66.568 159.379 65.384V60.184H161.187V65.112C161.187 65.9013 161.385 66.5093 161.779 66.936C162.174 67.352 162.713 67.56 163.395 67.56C164.078 67.56 164.617 67.352 165.011 66.936C165.417 66.5093 165.619 65.9013 165.619 65.112V60.184ZM170 69V57.16H171.824V69H170ZM178.641 61.672H176.497V66.552C176.497 66.8827 176.571 67.1227 176.721 67.272C176.881 67.4107 177.147 67.48 177.521 67.48H178.641V69H177.201C175.505 69 174.657 68.184 174.657 66.552V61.672H173.617V60.184H174.657V57.992H176.497V60.184H178.641V61.672ZM182.552 57.848C182.552 58.1787 182.44 58.456 182.216 58.68C181.992 58.904 181.715 59.016 181.384 59.016C181.064 59.016 180.792 58.904 180.568 58.68C180.344 58.456 180.232 58.1787 180.232 57.848C180.232 57.5173 180.344 57.24 180.568 57.016C180.792 56.792 181.064 56.68 181.384 56.68C181.715 56.68 181.992 56.792 182.216 57.016C182.44 57.24 182.552 57.5173 182.552 57.848ZM180.472 69V60.184H182.296V69H180.472ZM196.553 57.88V69H194.729V61.384L191.337 69H190.073L186.665 61.384V69H184.841V57.88H186.809L190.713 66.6L194.601 57.88H196.553ZM204.828 66.808C205.361 66.2747 205.628 65.5333 205.628 64.584C205.628 63.6347 205.367 62.8987 204.844 62.376C204.332 61.8427 203.708 61.576 202.972 61.576C202.236 61.576 201.617 61.8427 201.116 62.376C200.615 62.8987 200.364 63.64 200.364 64.6C200.364 65.5493 200.609 66.2907 201.1 66.824C201.591 67.3467 202.199 67.608 202.924 67.608C203.66 67.608 204.295 67.3413 204.828 66.808ZM202.924 69.144C201.644 69.144 200.588 68.728 199.756 67.896C198.924 67.0533 198.508 65.9547 198.508 64.6C198.508 63.2347 198.935 62.136 199.788 61.304C200.652 60.4613 201.724 60.04 203.004 60.04C204.284 60.04 205.351 60.4613 206.204 61.304C207.068 62.136 207.5 63.2293 207.5 64.584C207.5 65.9387 207.057 67.0373 206.172 67.88C205.297 68.7227 204.215 69.144 202.924 69.144ZM215.261 66.76C215.794 66.216 216.061 65.4907 216.061 64.584C216.061 63.6773 215.794 62.9573 215.261 62.424C214.738 61.8907 214.114 61.624 213.389 61.624C212.664 61.624 212.034 61.8853 211.501 62.408C210.978 62.9307 210.717 63.6453 210.717 64.552C210.717 65.4587 210.978 66.1893 211.501 66.744C212.034 67.288 212.664 67.56 213.389 67.56C214.114 67.56 214.738 67.2933 215.261 66.76ZM213.005 69.144C211.832 69.144 210.845 68.7173 210.045 67.864C209.245 67 208.845 65.9013 208.845 64.568C208.845 63.224 209.24 62.136 210.029 61.304C210.829 60.4613 211.821 60.04 213.005 60.04C213.698 60.04 214.306 60.2 214.829 60.52C215.362 60.8293 215.773 61.24 216.061 61.752V57.16H217.901V69H216.061V67.352C215.762 67.896 215.352 68.3333 214.829 68.664C214.306 68.984 213.698 69.144 213.005 69.144ZM226.255 66.76C226.788 66.216 227.055 65.4907 227.055 64.584C227.055 63.6773 226.788 62.9573 226.255 62.424C225.732 61.8907 225.108 61.624 224.383 61.624C223.658 61.624 223.028 61.8853 222.495 62.408C221.972 62.9307 221.711 63.6453 221.711 64.552C221.711 65.4587 221.972 66.1893 222.495 66.744C223.028 67.288 223.658 67.56 224.383 67.56C225.108 67.56 225.732 67.2933 226.255 66.76ZM223.999 69.144C222.826 69.144 221.839 68.7173 221.039 67.864C220.239 67 219.839 65.9013 219.839 64.568C219.839 63.224 220.234 62.136 221.023 61.304C221.823 60.4613 222.815 60.04 223.999 60.04C224.692 60.04 225.3 60.2 225.823 60.52C226.356 60.8293 226.767 61.24 227.055 61.752V60.184H228.895V69H227.055V67.352C226.756 67.896 226.346 68.3333 225.823 68.664C225.3 68.984 224.692 69.144 223.999 69.144ZM231.441 69V57.16H233.265V69H231.441ZM239.265 59.224C238.721 59.224 238.279 59.3627 237.937 59.64C237.596 59.9173 237.425 60.3227 237.425 60.856C237.425 61.3787 237.628 61.7787 238.033 62.056C238.439 62.3333 238.929 62.536 239.505 62.664C240.081 62.792 240.657 62.9413 241.233 63.112C241.809 63.272 242.3 63.576 242.705 64.024C243.111 64.472 243.313 65.1067 243.313 65.928C243.313 66.7493 242.967 67.4853 242.273 68.136C241.58 68.7867 240.652 69.112 239.489 69.112C238.327 69.112 237.383 68.84 236.657 68.296C235.932 67.752 235.569 67 235.569 66.04H237.521C237.564 66.5307 237.745 66.92 238.065 67.208C238.385 67.496 238.855 67.64 239.473 67.64C240.092 67.64 240.577 67.48 240.929 67.16C241.292 66.84 241.473 66.4613 241.473 66.024C241.473 65.5867 241.361 65.2453 241.137 65C240.924 64.7547 240.641 64.5733 240.289 64.456C239.948 64.328 239.569 64.216 239.153 64.12C238.737 64.024 238.316 63.912 237.889 63.784C237.473 63.656 237.089 63.4907 236.737 63.288C236.396 63.0853 236.113 62.792 235.889 62.408C235.676 62.0133 235.569 61.5333 235.569 60.968C235.569 59.9973 235.916 59.2187 236.609 58.632C237.313 58.0347 238.22 57.736 239.329 57.736C240.449 57.736 241.34 57.992 242.001 58.504C242.673 59.016 243.047 59.7573 243.121 60.728H241.105C241.063 60.3013 240.881 59.944 240.561 59.656C240.241 59.368 239.809 59.224 239.265 59.224ZM249.328 69.144C248.048 69.144 247.008 68.728 246.208 67.896C245.408 67.064 245.008 65.96 245.008 64.584C245.008 63.208 245.413 62.1093 246.224 61.288C247.034 60.456 248.08 60.04 249.36 60.04C250.65 60.04 251.696 60.44 252.496 61.24C253.296 62.0293 253.696 63.064 253.696 64.344C253.696 64.6533 253.674 64.9413 253.632 65.208H246.88C246.922 65.944 247.168 66.5307 247.616 66.968C248.074 67.3947 248.645 67.608 249.328 67.608C250.32 67.608 251.018 67.1973 251.424 66.376H253.392C253.125 67.1867 252.64 67.8533 251.936 68.376C251.232 68.888 250.362 69.144 249.328 69.144ZM251.792 63.96C251.781 63.2347 251.541 62.6587 251.072 62.232C250.602 61.7947 250.032 61.576 249.36 61.576C248.688 61.576 248.122 61.7947 247.664 62.232C247.216 62.6587 246.96 63.2347 246.896 63.96H251.792ZM259.193 69.144C258.019 69.144 257.033 68.7173 256.233 67.864C255.433 67 255.033 65.9013 255.033 64.568C255.033 63.224 255.427 62.136 256.217 61.304C257.017 60.4613 258.009 60.04 259.193 60.04C259.886 60.04 260.494 60.2 261.017 60.52C261.55 60.8293 261.961 61.24 262.249 61.752V60.184H264.089V69.144C264.089 70.3813 263.705 71.3893 262.937 72.168C262.179 72.9573 261.166 73.352 259.897 73.352C258.627 73.352 257.598 73.0693 256.809 72.504C256.019 71.9493 255.571 71.192 255.465 70.232H257.273C257.411 70.6907 257.705 71.0587 258.153 71.336C258.611 71.624 259.182 71.768 259.865 71.768C260.547 71.768 261.113 71.544 261.561 71.096C262.019 70.648 262.249 69.9973 262.249 69.144V67.352C261.95 67.896 261.539 68.3333 261.017 68.664C260.494 68.984 259.886 69.144 259.193 69.144ZM261.449 66.76C261.982 66.216 262.249 65.4907 262.249 64.584C262.249 63.6773 261.982 62.9573 261.449 62.424C260.926 61.8907 260.302 61.624 259.577 61.624C258.851 61.624 258.222 61.8853 257.689 62.408C257.166 62.9307 256.905 63.6453 256.905 64.552C256.905 65.4587 257.166 66.1893 257.689 66.744C258.222 67.288 258.851 67.56 259.577 67.56C260.302 67.56 260.926 67.2933 261.449 66.76ZM268.458 60.184V61.576C269.045 60.552 269.984 60.04 271.274 60.04C271.957 60.04 272.565 60.2 273.098 60.52C273.632 60.84 274.037 61.304 274.314 61.912C274.624 61.3253 275.05 60.8667 275.594 60.536C276.149 60.2053 276.773 60.04 277.466 60.04C278.48 60.04 279.312 60.3707 279.962 61.032C280.613 61.6827 280.938 62.6053 280.938 63.8V69H279.114V64.072C279.114 63.2827 278.917 62.68 278.522 62.264C278.128 61.8373 277.589 61.624 276.906 61.624C276.224 61.624 275.685 61.8373 275.29 62.264C274.896 62.68 274.698 63.2827 274.698 64.072V69H272.89V64.072C272.89 63.2827 272.693 62.68 272.298 62.264C271.904 61.8373 271.365 61.624 270.682 61.624C270 61.624 269.456 61.8373 269.05 62.264C268.656 62.68 268.458 63.2827 268.458 64.072V69H266.634V60.184H268.458ZM287.121 69.144C285.841 69.144 284.801 68.728 284.001 67.896C283.201 67.064 282.801 65.96 282.801 64.584C282.801 63.208 283.207 62.1093 284.017 61.288C284.828 60.456 285.873 60.04 287.153 60.04C288.444 60.04 289.489 60.44 290.289 61.24C291.089 62.0293 291.489 63.064 291.489 64.344C291.489 64.6533 291.468 64.9413 291.425 65.208H284.673C284.716 65.944 284.961 66.5307 285.409 66.968C285.868 67.3947 286.439 67.608 287.121 67.608C288.113 67.608 288.812 67.1973 289.217 66.376H291.185C290.919 67.1867 290.433 67.8533 289.729 68.376C289.025 68.888 288.156 69.144 287.121 69.144ZM289.585 63.96C289.575 63.2347 289.335 62.6587 288.865 62.232C288.396 61.7947 287.825 61.576 287.153 61.576C286.481 61.576 285.916 61.7947 285.457 62.232C285.009 62.6587 284.753 63.2347 284.689 63.96H289.585ZM295.258 60.184V61.576C295.845 60.552 296.784 60.04 298.074 60.04C299.066 60.04 299.882 60.3707 300.522 61.032C301.173 61.6933 301.498 62.616 301.498 63.8V69H299.69V64.072C299.69 63.2827 299.493 62.68 299.098 62.264C298.704 61.8373 298.165 61.624 297.482 61.624C296.8 61.624 296.256 61.8373 295.85 62.264C295.456 62.68 295.258 63.2827 295.258 64.072V69H293.434V60.184H295.258ZM308.247 61.672H306.103V66.552C306.103 66.8827 306.178 67.1227 306.327 67.272C306.487 67.4107 306.754 67.48 307.127 67.48H308.247V69H306.807C305.111 69 304.263 68.184 304.263 66.552V61.672H303.223V60.184H304.263V57.992H306.103V60.184H308.247V61.672ZM313.79 69.144C312.51 69.144 311.47 68.728 310.67 67.896C309.87 67.064 309.47 65.96 309.47 64.584C309.47 63.208 309.875 62.1093 310.686 61.288C311.497 60.456 312.542 60.04 313.822 60.04C315.113 60.04 316.158 60.44 316.958 61.24C317.758 62.0293 318.158 63.064 318.158 64.344C318.158 64.6533 318.137 64.9413 318.094 65.208H311.342C311.385 65.944 311.63 66.5307 312.078 66.968C312.537 67.3947 313.107 67.608 313.79 67.608C314.782 67.608 315.481 67.1973 315.886 66.376H317.854C317.587 67.1867 317.102 67.8533 316.398 68.376C315.694 68.888 314.825 69.144 313.79 69.144ZM316.254 63.96C316.243 63.2347 316.003 62.6587 315.534 62.232C315.065 61.7947 314.494 61.576 313.822 61.576C313.15 61.576 312.585 61.7947 312.126 62.232C311.678 62.6587 311.422 63.2347 311.358 63.96H316.254ZM321.927 60.184V61.72C322.492 60.6 323.372 60.04 324.567 60.04V61.928H324.103C323.388 61.928 322.844 62.1093 322.471 62.472C322.108 62.8347 321.927 63.464 321.927 64.36V69H320.103V60.184H321.927Z" fill="white"/>
<path d="M132 64L127 61.1132V66.8868L132 64ZM96 64.5H127.5V63.5H96V64.5Z" fill="#949596"/>
<path d="M557 24L552 21.1132V26.8868L557 24ZM521 24.5H552.5V23.5H521V24.5Z" fill="#949596"/>
<path d="M567 104L562 101.113L562 106.887L567 104ZM512 104.5L562.5 104.5L562.5 103.5L512 103.5L512 104.5Z" fill="#949596"/>
<path d="M244 104L243.5 104L243.5 104.5L244 104.5L244 104ZM415 104L410 101.113L410 106.887L415 104ZM244 104.5L410.5 104.5L410.5 103.5L244 103.5L244 104.5ZM244.5 104L244.5 86.5L243.5 86.5L243.5 104L244.5 104Z" fill="#949596"/>
<path d="M732 24L727 21.1132V26.8868L732 24ZM696 24.5H727.5V23.5H696V24.5Z" fill="#949596"/>
<path d="M733 104L728 101.113V106.887L733 104ZM687 104.5L728.5 104.5V103.5L687 103.5V104.5Z" fill="#949596"/>
<path d="M938 24L933 21.1132V26.8868L938 24ZM902 24.5H933.5V23.5H902V24.5Z" fill="#949596"/>
<path d="M1256 64L1251 61.1132V66.8868L1256 64ZM1220 64.5H1251.5V63.5H1220V64.5Z" fill="#949596"/>
<path d="M1374 64L1369 61.1132V66.8868L1374 64ZM1338 64.5H1369.5V63.5H1338V64.5Z" fill="#949596"/>
<path d="M1489 64L1484 61.1132V66.8868L1489 64ZM1453 64.5H1484.5V63.5H1453V64.5Z" fill="#949596"/>
<path d="M1185 24H1185.5V23.5H1185V24ZM1185 40L1187.89 35H1182.11L1185 40ZM1184.5 24V35.5H1185.5V24H1184.5ZM1185 23.5L1114 23.5V24.5L1185 24.5V23.5Z" fill="#949596"/>
<path d="M1185 104H1185.5V104.5H1185V104ZM1185 88L1187.89 93H1182.11L1185 88ZM1184.5 104V92.5H1185.5V104H1184.5ZM1185 104.5H1103V103.5H1185V104.5Z" fill="#949596"/>
<path d="M950 104L945 101.113V106.887L950 104ZM901 104.5H945.5V103.5H901V104.5Z" fill="#949596"/>
<path d="M246.5 24V23.5H246V24H246.5ZM425 24L420 21.1132V26.8868L425 24ZM246.5 24.5H420.5V23.5H246.5V24.5ZM246 24V40H247V24H246Z" fill="#949596"/>
</svg>
