<svg width="1686" height="128" viewBox="0 0 1686 128" fill="none" xmlns="http://www.w3.org/2000/svg">
<rect x="0.5" y="40.5" width="95" height="47" rx="7.5" fill="white" stroke="#009191"/>
<path d="M16.752 69.144C15.5787 69.144 14.592 68.7173 13.792 67.864C12.992 67 12.592 65.9013 12.592 64.568C12.592 63.224 12.9867 62.136 13.776 61.304C14.576 60.4613 15.568 60.04 16.752 60.04C17.4453 60.04 18.0533 60.2 18.576 60.52C19.1093 60.8293 19.52 61.24 19.808 61.752V60.184H21.648V69.144C21.648 70.3813 21.264 71.3893 20.496 72.168C19.7387 72.9573 18.7253 73.352 17.456 73.352C16.1867 73.352 15.1573 73.0693 14.368 72.504C13.5787 71.9493 13.1307 71.192 13.024 70.232H14.832C14.9707 70.6907 15.264 71.0587 15.712 71.336C16.1707 71.624 16.7413 71.768 17.424 71.768C18.1067 71.768 18.672 71.544 19.12 71.096C19.5787 70.648 19.808 69.9973 19.808 69.144V67.352C19.5093 67.896 19.0987 68.3333 18.576 68.664C18.0533 68.984 17.4453 69.144 16.752 69.144ZM19.008 66.76C19.5413 66.216 19.808 65.4907 19.808 64.584C19.808 63.6773 19.5413 62.9573 19.008 62.424C18.4853 61.8907 17.8613 61.624 17.136 61.624C16.4107 61.624 15.7813 61.8853 15.248 62.408C14.7253 62.9307 14.464 63.6453 14.464 64.552C14.464 65.4587 14.7253 66.1893 15.248 66.744C15.7813 67.288 16.4107 67.56 17.136 67.56C17.8613 67.56 18.4853 67.2933 19.008 66.76ZM30.0017 66.76C30.5351 66.216 30.8018 65.4907 30.8018 64.584C30.8018 63.6773 30.5351 62.9573 30.0017 62.424C29.4791 61.8907 28.8551 61.624 28.1297 61.624C27.4044 61.624 26.7751 61.8853 26.2417 62.408C25.7191 62.9307 25.4577 63.6453 25.4577 64.552C25.4577 65.4587 25.7191 66.1893 26.2417 66.744C26.7751 67.288 27.4044 67.56 28.1297 67.56C28.8551 67.56 29.4791 67.2933 30.0017 66.76ZM27.7457 69.144C26.5724 69.144 25.5857 68.7173 24.7857 67.864C23.9857 67 23.5857 65.9013 23.5857 64.568C23.5857 63.224 23.9804 62.136 24.7697 61.304C25.5697 60.4613 26.5617 60.04 27.7457 60.04C28.4391 60.04 29.0471 60.2 29.5697 60.52C30.1031 60.8293 30.5138 61.24 30.8018 61.752V60.184H32.6418V69H30.8018V67.352C30.5031 67.896 30.0924 68.3333 29.5697 68.664C29.0471 68.984 28.4391 69.144 27.7457 69.144ZM39.4595 61.672H37.3155V66.552C37.3155 66.8827 37.3902 67.1227 37.5395 67.272C37.6995 67.4107 37.9662 67.48 38.3395 67.48H39.4595V69H38.0195C36.3235 69 35.4755 68.184 35.4755 66.552V61.672H34.4355V60.184H35.4755V57.992H37.3155V60.184H39.4595V61.672ZM45.0026 69.144C43.7226 69.144 42.6826 68.728 41.8826 67.896C41.0826 67.064 40.6826 65.96 40.6826 64.584C40.6826 63.208 41.088 62.1093 41.8986 61.288C42.7093 60.456 43.7546 60.04 45.0346 60.04C46.3253 60.04 47.3706 60.44 48.1706 61.24C48.9706 62.0293 49.3706 63.064 49.3706 64.344C49.3706 64.6533 49.3493 64.9413 49.3066 65.208H42.5546C42.5973 65.944 42.8426 66.5307 43.2906 66.968C43.7493 67.3947 44.32 67.608 45.0026 67.608C45.9946 67.608 46.6933 67.1973 47.0986 66.376H49.0666C48.8 67.1867 48.3146 67.8533 47.6106 68.376C46.9066 68.888 46.0373 69.144 45.0026 69.144ZM47.4666 63.96C47.456 63.2347 47.216 62.6587 46.7466 62.232C46.2773 61.7947 45.7066 61.576 45.0346 61.576C44.3626 61.576 43.7973 61.7947 43.3386 62.232C42.8906 62.6587 42.6346 63.2347 42.5706 63.96H47.4666ZM61.3636 60.184H63.1556L60.4196 69H58.4996L56.7236 62.488L54.9476 69H53.0276L50.2756 60.184H52.1316L53.9716 67.272L55.8436 60.184H57.7476L59.5396 67.24L61.3636 60.184ZM70.4768 66.76C71.0101 66.216 71.2768 65.4907 71.2768 64.584C71.2768 63.6773 71.0101 62.9573 70.4768 62.424C69.9541 61.8907 69.3301 61.624 68.6048 61.624C67.8794 61.624 67.2501 61.8853 66.7168 62.408C66.1941 62.9307 65.9328 63.6453 65.9328 64.552C65.9328 65.4587 66.1941 66.1893 66.7168 66.744C67.2501 67.288 67.8794 67.56 68.6048 67.56C69.3301 67.56 69.9541 67.2933 70.4768 66.76ZM68.2208 69.144C67.0474 69.144 66.0608 68.7173 65.2608 67.864C64.4608 67 64.0608 65.9013 64.0608 64.568C64.0608 63.224 64.4554 62.136 65.2448 61.304C66.0448 60.4613 67.0368 60.04 68.2208 60.04C68.9141 60.04 69.5221 60.2 70.0448 60.52C70.5781 60.8293 70.9888 61.24 71.2768 61.752V60.184H73.1168V69H71.2768V67.352C70.9781 67.896 70.5674 68.3333 70.0448 68.664C69.5221 68.984 68.9141 69.144 68.2208 69.144ZM78.0945 68.856L74.6225 60.184H76.6545L79.1345 66.904L81.7105 60.184H83.5985L78.1905 73.144H76.3025L78.0945 68.856Z" fill="#009191"/>
<rect x="1590.5" y="40.5" width="95" height="47" rx="7.5" fill="white" stroke="#009191"/>
<path d="M1606.75 69.144C1605.58 69.144 1604.59 68.7173 1603.79 67.864C1602.99 67 1602.59 65.9013 1602.59 64.568C1602.59 63.224 1602.99 62.136 1603.78 61.304C1604.58 60.4613 1605.57 60.04 1606.75 60.04C1607.45 60.04 1608.05 60.2 1608.58 60.52C1609.11 60.8293 1609.52 61.24 1609.81 61.752V60.184H1611.65V69.144C1611.65 70.3813 1611.26 71.3893 1610.5 72.168C1609.74 72.9573 1608.73 73.352 1607.46 73.352C1606.19 73.352 1605.16 73.0693 1604.37 72.504C1603.58 71.9493 1603.13 71.192 1603.02 70.232H1604.83C1604.97 70.6907 1605.26 71.0587 1605.71 71.336C1606.17 71.624 1606.74 71.768 1607.42 71.768C1608.11 71.768 1608.67 71.544 1609.12 71.096C1609.58 70.648 1609.81 69.9973 1609.81 69.144V67.352C1609.51 67.896 1609.1 68.3333 1608.58 68.664C1608.05 68.984 1607.45 69.144 1606.75 69.144ZM1609.01 66.76C1609.54 66.216 1609.81 65.4907 1609.81 64.584C1609.81 63.6773 1609.54 62.9573 1609.01 62.424C1608.49 61.8907 1607.86 61.624 1607.14 61.624C1606.41 61.624 1605.78 61.8853 1605.25 62.408C1604.73 62.9307 1604.46 63.6453 1604.46 64.552C1604.46 65.4587 1604.73 66.1893 1605.25 66.744C1605.78 67.288 1606.41 67.56 1607.14 67.56C1607.86 67.56 1608.49 67.2933 1609.01 66.76ZM1620 66.76C1620.54 66.216 1620.8 65.4907 1620.8 64.584C1620.8 63.6773 1620.54 62.9573 1620 62.424C1619.48 61.8907 1618.86 61.624 1618.13 61.624C1617.4 61.624 1616.78 61.8853 1616.24 62.408C1615.72 62.9307 1615.46 63.6453 1615.46 64.552C1615.46 65.4587 1615.72 66.1893 1616.24 66.744C1616.78 67.288 1617.4 67.56 1618.13 67.56C1618.86 67.56 1619.48 67.2933 1620 66.76ZM1617.75 69.144C1616.57 69.144 1615.59 68.7173 1614.79 67.864C1613.99 67 1613.59 65.9013 1613.59 64.568C1613.59 63.224 1613.98 62.136 1614.77 61.304C1615.57 60.4613 1616.56 60.04 1617.75 60.04C1618.44 60.04 1619.05 60.2 1619.57 60.52C1620.1 60.8293 1620.51 61.24 1620.8 61.752V60.184H1622.64V69H1620.8V67.352C1620.5 67.896 1620.09 68.3333 1619.57 68.664C1619.05 68.984 1618.44 69.144 1617.75 69.144ZM1629.46 61.672H1627.32V66.552C1627.32 66.8827 1627.39 67.1227 1627.54 67.272C1627.7 67.4107 1627.97 67.48 1628.34 67.48H1629.46V69H1628.02C1626.32 69 1625.48 68.184 1625.48 66.552V61.672H1624.44V60.184H1625.48V57.992H1627.32V60.184H1629.46V61.672ZM1635 69.144C1633.72 69.144 1632.68 68.728 1631.88 67.896C1631.08 67.064 1630.68 65.96 1630.68 64.584C1630.68 63.208 1631.09 62.1093 1631.9 61.288C1632.71 60.456 1633.75 60.04 1635.03 60.04C1636.33 60.04 1637.37 60.44 1638.17 61.24C1638.97 62.0293 1639.37 63.064 1639.37 64.344C1639.37 64.6533 1639.35 64.9413 1639.31 65.208H1632.55C1632.6 65.944 1632.84 66.5307 1633.29 66.968C1633.75 67.3947 1634.32 67.608 1635 67.608C1635.99 67.608 1636.69 67.1973 1637.1 66.376H1639.07C1638.8 67.1867 1638.31 67.8533 1637.61 68.376C1636.91 68.888 1636.04 69.144 1635 69.144ZM1637.47 63.96C1637.46 63.2347 1637.22 62.6587 1636.75 62.232C1636.28 61.7947 1635.71 61.576 1635.03 61.576C1634.36 61.576 1633.8 61.7947 1633.34 62.232C1632.89 62.6587 1632.63 63.2347 1632.57 63.96H1637.47ZM1651.36 60.184H1653.16L1650.42 69H1648.5L1646.72 62.488L1644.95 69H1643.03L1640.28 60.184H1642.13L1643.97 67.272L1645.84 60.184H1647.75L1649.54 67.24L1651.36 60.184ZM1660.48 66.76C1661.01 66.216 1661.28 65.4907 1661.28 64.584C1661.28 63.6773 1661.01 62.9573 1660.48 62.424C1659.95 61.8907 1659.33 61.624 1658.6 61.624C1657.88 61.624 1657.25 61.8853 1656.72 62.408C1656.19 62.9307 1655.93 63.6453 1655.93 64.552C1655.93 65.4587 1656.19 66.1893 1656.72 66.744C1657.25 67.288 1657.88 67.56 1658.6 67.56C1659.33 67.56 1659.95 67.2933 1660.48 66.76ZM1658.22 69.144C1657.05 69.144 1656.06 68.7173 1655.26 67.864C1654.46 67 1654.06 65.9013 1654.06 64.568C1654.06 63.224 1654.46 62.136 1655.24 61.304C1656.04 60.4613 1657.04 60.04 1658.22 60.04C1658.91 60.04 1659.52 60.2 1660.04 60.52C1660.58 60.8293 1660.99 61.24 1661.28 61.752V60.184H1663.12V69H1661.28V67.352C1660.98 67.896 1660.57 68.3333 1660.04 68.664C1659.52 68.984 1658.91 69.144 1658.22 69.144ZM1668.09 68.856L1664.62 60.184H1666.65L1669.13 66.904L1671.71 60.184H1673.6L1668.19 73.144H1666.3L1668.09 68.856Z" fill="#009191"/>
<rect opacity="0.8" x="374" width="96" height="48" rx="8" fill="#FBCB67"/>
<path d="M387.2 29V17.88H389.024V29H387.2ZM393.393 20.184V21.576C393.979 20.552 394.918 20.04 396.209 20.04C396.891 20.04 397.499 20.2 398.033 20.52C398.566 20.84 398.971 21.304 399.249 21.912C399.558 21.3253 399.985 20.8667 400.529 20.536C401.083 20.2053 401.707 20.04 402.401 20.04C403.414 20.04 404.246 20.3707 404.897 21.032C405.547 21.6827 405.873 22.6053 405.873 23.8V29H404.049V24.072C404.049 23.2827 403.851 22.68 403.457 22.264C403.062 21.8373 402.523 21.624 401.841 21.624C401.158 21.624 400.619 21.8373 400.225 22.264C399.83 22.68 399.633 23.2827 399.633 24.072V29H397.825V24.072C397.825 23.2827 397.627 22.68 397.233 22.264C396.838 21.8373 396.299 21.624 395.617 21.624C394.934 21.624 394.39 21.8373 393.985 22.264C393.59 22.68 393.393 23.2827 393.393 24.072V29H391.569V20.184H393.393ZM411.896 29.144C410.722 29.144 409.736 28.7173 408.936 27.864C408.136 27 407.736 25.9013 407.736 24.568C407.736 23.224 408.13 22.136 408.92 21.304C409.72 20.4613 410.712 20.04 411.896 20.04C412.589 20.04 413.197 20.2 413.72 20.52C414.253 20.8293 414.664 21.24 414.952 21.752V20.184H416.792V29.144C416.792 30.3813 416.408 31.3893 415.64 32.168C414.882 32.9573 413.869 33.352 412.6 33.352C411.33 33.352 410.301 33.0693 409.512 32.504C408.722 31.9493 408.274 31.192 408.168 30.232H409.976C410.114 30.6907 410.408 31.0587 410.856 31.336C411.314 31.624 411.885 31.768 412.568 31.768C413.25 31.768 413.816 31.544 414.264 31.096C414.722 30.648 414.952 29.9973 414.952 29.144V27.352C414.653 27.896 414.242 28.3333 413.72 28.664C413.197 28.984 412.589 29.144 411.896 29.144ZM414.152 26.76C414.685 26.216 414.952 25.4907 414.952 24.584C414.952 23.6773 414.685 22.9573 414.152 22.424C413.629 21.8907 413.005 21.624 412.28 21.624C411.554 21.624 410.925 21.8853 410.392 22.408C409.869 22.9307 409.608 23.6453 409.608 24.552C409.608 25.4587 409.869 26.1893 410.392 26.744C410.925 27.288 411.554 27.56 412.28 27.56C413.005 27.56 413.629 27.2933 414.152 26.76ZM419.338 29V17.88H425.882V19.304H421.162V22.68H424.842V24.088H421.162V29H419.338ZM429.802 17.848C429.802 18.1787 429.69 18.456 429.466 18.68C429.242 18.904 428.965 19.016 428.634 19.016C428.314 19.016 428.042 18.904 427.818 18.68C427.594 18.456 427.482 18.1787 427.482 17.848C427.482 17.5173 427.594 17.24 427.818 17.016C428.042 16.792 428.314 16.68 428.634 16.68C428.965 16.68 429.242 16.792 429.466 17.016C429.69 17.24 429.802 17.5173 429.802 17.848ZM427.722 29V20.184H429.546V29H427.722ZM432.091 29V17.16H433.915V29H432.091ZM440.731 21.672H438.587V26.552C438.587 26.8827 438.662 27.1227 438.811 27.272C438.971 27.4107 439.238 27.48 439.611 27.48H440.731V29H439.291C437.595 29 436.747 28.184 436.747 26.552V21.672H435.707V20.184H436.747V17.992H438.587V20.184H440.731V21.672ZM446.274 29.144C444.994 29.144 443.954 28.728 443.154 27.896C442.354 27.064 441.954 25.96 441.954 24.584C441.954 23.208 442.36 22.1093 443.17 21.288C443.981 20.456 445.026 20.04 446.306 20.04C447.597 20.04 448.642 20.44 449.442 21.24C450.242 22.0293 450.642 23.064 450.642 24.344C450.642 24.6533 450.621 24.9413 450.578 25.208H443.826C443.869 25.944 444.114 26.5307 444.562 26.968C445.021 27.3947 445.592 27.608 446.274 27.608C447.266 27.608 447.965 27.1973 448.37 26.376H450.339C450.072 27.1867 449.586 27.8533 448.882 28.376C448.178 28.888 447.309 29.144 446.274 29.144ZM448.738 23.96C448.728 23.2347 448.488 22.6587 448.018 22.232C447.549 21.7947 446.978 21.576 446.306 21.576C445.634 21.576 445.069 21.7947 444.61 22.232C444.162 22.6587 443.906 23.2347 443.842 23.96H448.738ZM454.411 20.184V21.72C454.977 20.6 455.857 20.04 457.051 20.04V21.928H456.587C455.873 21.928 455.329 22.1093 454.955 22.472C454.593 22.8347 454.411 23.464 454.411 24.36V29H452.587V20.184H454.411Z" fill="#333333"/>
<rect opacity="0.8" x="506" width="116" height="48" rx="8" fill="#FBCB67"/>
<path d="M522.912 29.144C521.632 29.144 520.592 28.728 519.792 27.896C518.992 27.064 518.592 25.9653 518.592 24.6C518.592 23.224 518.992 22.12 519.792 21.288C520.603 20.456 521.643 20.04 522.912 20.04C523.979 20.04 524.859 20.296 525.552 20.808C526.256 21.3093 526.731 22.0293 526.976 22.968H525.008C524.677 22.04 523.979 21.576 522.912 21.576C522.165 21.576 521.568 21.8427 521.12 22.376C520.683 22.8987 520.464 23.6347 520.464 24.584C520.464 25.5333 520.683 26.2747 521.12 26.808C521.568 27.3413 522.165 27.608 522.912 27.608C523.968 27.608 524.667 27.144 525.008 26.216H526.976C526.72 27.112 526.24 27.8267 525.536 28.36C524.832 28.8827 523.957 29.144 522.912 29.144ZM530.768 20.184V21.72C531.333 20.6 532.213 20.04 533.408 20.04V21.928H532.944C532.229 21.928 531.685 22.1093 531.312 22.472C530.949 22.8347 530.768 23.464 530.768 24.36V29H528.944V20.184H530.768ZM541.042 26.76C541.576 26.216 541.842 25.4907 541.842 24.584C541.842 23.6773 541.576 22.9573 541.042 22.424C540.52 21.8907 539.896 21.624 539.17 21.624C538.445 21.624 537.816 21.8853 537.282 22.408C536.76 22.9307 536.498 23.6453 536.498 24.552C536.498 25.4587 536.76 26.1893 537.282 26.744C537.816 27.288 538.445 27.56 539.17 27.56C539.896 27.56 540.52 27.2933 541.042 26.76ZM538.786 29.144C537.613 29.144 536.626 28.7173 535.826 27.864C535.026 27 534.626 25.9013 534.626 24.568C534.626 23.224 535.021 22.136 535.81 21.304C536.61 20.4613 537.602 20.04 538.786 20.04C539.48 20.04 540.088 20.2 540.61 20.52C541.144 20.8293 541.554 21.24 541.842 21.752V20.184H543.682V29H541.842V27.352C541.544 27.896 541.133 28.3333 540.61 28.664C540.088 28.984 539.48 29.144 538.786 29.144ZM549.924 20.184V21.672H548.292V29H546.452V21.672H545.412V20.184H546.452V19.56C546.452 18.5467 546.719 17.8107 547.252 17.352C547.796 16.8827 548.644 16.648 549.796 16.648V18.168C549.241 18.168 548.852 18.2747 548.628 18.488C548.404 18.6907 548.292 19.048 548.292 19.56V20.184H549.924ZM555.963 21.672H553.819V26.552C553.819 26.8827 553.893 27.1227 554.043 27.272C554.203 27.4107 554.469 27.48 554.843 27.48H555.963V29H554.523C552.827 29 551.979 28.184 551.979 26.552V21.672H550.939V20.184H551.979V17.992H553.819V20.184H555.963V21.672ZM557.794 29V17.88H559.618V29H557.794ZM563.987 20.184V21.576C564.573 20.552 565.512 20.04 566.803 20.04C567.485 20.04 568.093 20.2 568.627 20.52C569.16 20.84 569.565 21.304 569.843 21.912C570.152 21.3253 570.579 20.8667 571.123 20.536C571.677 20.2053 572.301 20.04 572.995 20.04C574.008 20.04 574.84 20.3707 575.491 21.032C576.141 21.6827 576.467 22.6053 576.467 23.8V29H574.643V24.072C574.643 23.2827 574.445 22.68 574.051 22.264C573.656 21.8373 573.117 21.624 572.435 21.624C571.752 21.624 571.213 21.8373 570.819 22.264C570.424 22.68 570.227 23.2827 570.227 24.072V29H568.419V24.072C568.419 23.2827 568.221 22.68 567.827 22.264C567.432 21.8373 566.893 21.624 566.211 21.624C565.528 21.624 564.984 21.8373 564.579 22.264C564.184 22.68 563.987 23.2827 563.987 24.072V29H562.163V20.184H563.987ZM584.745 26.76C585.279 26.216 585.545 25.4907 585.545 24.584C585.545 23.6773 585.279 22.9573 584.745 22.424C584.223 21.8907 583.599 21.624 582.873 21.624C582.148 21.624 581.519 21.8853 580.985 22.408C580.463 22.9307 580.201 23.6453 580.201 24.552C580.201 25.4587 580.463 26.1893 580.985 26.744C581.519 27.288 582.148 27.56 582.873 27.56C583.599 27.56 584.223 27.2933 584.745 26.76ZM582.489 29.144C581.316 29.144 580.329 28.7173 579.529 27.864C578.729 27 578.329 25.9013 578.329 24.568C578.329 23.224 578.724 22.136 579.513 21.304C580.313 20.4613 581.305 20.04 582.489 20.04C583.183 20.04 583.791 20.2 584.313 20.52C584.847 20.8293 585.257 21.24 585.545 21.752V20.184H587.385V29H585.545V27.352C585.247 27.896 584.836 28.3333 584.313 28.664C583.791 28.984 583.183 29.144 582.489 29.144ZM593.483 29.144C592.31 29.144 591.323 28.7173 590.523 27.864C589.723 27 589.323 25.9013 589.323 24.568C589.323 23.224 589.718 22.136 590.507 21.304C591.307 20.4613 592.299 20.04 593.483 20.04C594.177 20.04 594.785 20.2 595.307 20.52C595.841 20.8293 596.251 21.24 596.539 21.752V20.184H598.379V29.144C598.379 30.3813 597.995 31.3893 597.227 32.168C596.47 32.9573 595.457 33.352 594.187 33.352C592.918 33.352 591.889 33.0693 591.099 32.504C590.31 31.9493 589.862 31.192 589.755 30.232H591.563C591.702 30.6907 591.995 31.0587 592.443 31.336C592.902 31.624 593.473 31.768 594.155 31.768C594.838 31.768 595.403 31.544 595.851 31.096C596.31 30.648 596.539 29.9973 596.539 29.144V27.352C596.241 27.896 595.83 28.3333 595.307 28.664C594.785 28.984 594.177 29.144 593.483 29.144ZM595.739 26.76C596.273 26.216 596.539 25.4907 596.539 24.584C596.539 23.6773 596.273 22.9573 595.739 22.424C595.217 21.8907 594.593 21.624 593.867 21.624C593.142 21.624 592.513 21.8853 591.979 22.408C591.457 22.9307 591.195 23.6453 591.195 24.552C591.195 25.4587 591.457 26.1893 591.979 26.744C592.513 27.288 593.142 27.56 593.867 27.56C594.593 27.56 595.217 27.2933 595.739 26.76ZM604.637 29.144C603.357 29.144 602.317 28.728 601.517 27.896C600.717 27.064 600.317 25.96 600.317 24.584C600.317 23.208 600.722 22.1093 601.533 21.288C602.344 20.456 603.389 20.04 604.669 20.04C605.96 20.04 607.005 20.44 607.805 21.24C608.605 22.0293 609.005 23.064 609.005 24.344C609.005 24.6533 608.984 24.9413 608.941 25.208H602.189C602.232 25.944 602.477 26.5307 602.925 26.968C603.384 27.3947 603.954 27.608 604.637 27.608C605.629 27.608 606.328 27.1973 606.733 26.376H608.701C608.434 27.1867 607.949 27.8533 607.245 28.376C606.541 28.888 605.672 29.144 604.637 29.144ZM607.101 23.96C607.09 23.2347 606.85 22.6587 606.381 22.232C605.912 21.7947 605.341 21.576 604.669 21.576C603.997 21.576 603.432 21.7947 602.973 22.232C602.525 22.6587 602.269 23.2347 602.205 23.96H607.101Z" fill="#333333"/>
<rect opacity="0.8" x="516" y="80" width="97" height="48" rx="8" fill="#EB6161"/>
<path d="M528.624 99.304V97.88H536.384V99.304H533.424V109H531.6V99.304H528.624ZM542.093 109.144C540.813 109.144 539.773 108.728 538.973 107.896C538.173 107.064 537.773 105.96 537.773 104.584C537.773 103.208 538.179 102.109 538.989 101.288C539.8 100.456 540.845 100.04 542.125 100.04C543.416 100.04 544.461 100.44 545.261 101.24C546.061 102.029 546.461 103.064 546.461 104.344C546.461 104.653 546.44 104.941 546.397 105.208H539.645C539.688 105.944 539.933 106.531 540.381 106.968C540.84 107.395 541.411 107.608 542.093 107.608C543.085 107.608 543.784 107.197 544.189 106.376H546.157C545.891 107.187 545.405 107.853 544.701 108.376C543.997 108.888 543.128 109.144 542.093 109.144ZM544.557 103.96C544.547 103.235 544.307 102.659 543.837 102.232C543.368 101.795 542.797 101.576 542.125 101.576C541.453 101.576 540.888 101.795 540.429 102.232C539.981 102.659 539.725 103.235 539.661 103.96H544.557ZM555.03 100.184L552.182 104.536L555.03 109H552.966L551.062 106.008L549.27 109H547.366L550.214 104.664L547.366 100.184H549.43L551.334 103.176L553.126 100.184H555.03ZM560.813 101.672H558.669V106.552C558.669 106.883 558.743 107.123 558.893 107.272C559.053 107.411 559.319 107.48 559.693 107.48H560.813V109H559.373C557.677 109 556.829 108.184 556.829 106.552V101.672H555.789V100.184H556.829V97.992H558.669V100.184H560.813V101.672ZM562.644 109V97.88H569.188V99.304H564.468V102.68H568.148V104.088H564.468V109H562.644ZM573.108 97.848C573.108 98.1787 572.996 98.456 572.772 98.68C572.548 98.904 572.271 99.016 571.94 99.016C571.62 99.016 571.348 98.904 571.124 98.68C570.9 98.456 570.788 98.1787 570.788 97.848C570.788 97.5173 570.9 97.24 571.124 97.016C571.348 96.792 571.62 96.68 571.94 96.68C572.271 96.68 572.548 96.792 572.772 97.016C572.996 97.24 573.108 97.5173 573.108 97.848ZM571.028 109V100.184H572.852V109H571.028ZM575.397 109V97.16H577.221V109H575.397ZM584.038 101.672H581.894V106.552C581.894 106.883 581.968 107.123 582.118 107.272C582.278 107.411 582.544 107.48 582.918 107.48H584.038V109H582.598C580.902 109 580.054 108.184 580.054 106.552V101.672H579.014V100.184H580.054V97.992H581.894V100.184H584.038V101.672ZM589.581 109.144C588.301 109.144 587.261 108.728 586.461 107.896C585.661 107.064 585.261 105.96 585.261 104.584C585.261 103.208 585.666 102.109 586.477 101.288C587.287 100.456 588.333 100.04 589.613 100.04C590.903 100.04 591.949 100.44 592.749 101.24C593.549 102.029 593.949 103.064 593.949 104.344C593.949 104.653 593.927 104.941 593.885 105.208H587.133C587.175 105.944 587.421 106.531 587.869 106.968C588.327 107.395 588.898 107.608 589.581 107.608C590.573 107.608 591.271 107.197 591.677 106.376H593.645C593.378 107.187 592.893 107.853 592.189 108.376C591.485 108.888 590.615 109.144 589.581 109.144ZM592.045 103.96C592.034 103.235 591.794 102.659 591.325 102.232C590.855 101.795 590.285 101.576 589.613 101.576C588.941 101.576 588.375 101.795 587.917 102.232C587.469 102.659 587.213 103.235 587.149 103.96H592.045ZM597.718 100.184V101.72C598.283 100.6 599.163 100.04 600.358 100.04V101.928H599.894C599.179 101.928 598.635 102.109 598.262 102.472C597.899 102.835 597.718 103.464 597.718 104.36V109H595.894V100.184H597.718Z" fill="white"/>
<rect opacity="0.8" x="668" y="80" width="120" height="48" rx="8" fill="#EB6161"/>
<path d="M684.912 109.144C683.632 109.144 682.592 108.728 681.792 107.896C680.992 107.064 680.592 105.96 680.592 104.584C680.592 103.208 680.997 102.109 681.808 101.288C682.619 100.456 683.664 100.04 684.944 100.04C686.235 100.04 687.28 100.44 688.08 101.24C688.88 102.029 689.28 103.064 689.28 104.344C689.28 104.653 689.259 104.941 689.216 105.208H682.464C682.507 105.944 682.752 106.531 683.2 106.968C683.659 107.395 684.229 107.608 684.912 107.608C685.904 107.608 686.603 107.197 687.008 106.376H688.976C688.709 107.187 688.224 107.853 687.52 108.376C686.816 108.888 685.947 109.144 684.912 109.144ZM687.376 103.96C687.365 103.235 687.125 102.659 686.656 102.232C686.187 101.795 685.616 101.576 684.944 101.576C684.272 101.576 683.707 101.795 683.248 102.232C682.8 102.659 682.544 103.235 682.48 103.96H687.376ZM693.049 100.184V101.576C693.636 100.552 694.574 100.04 695.865 100.04C696.857 100.04 697.673 100.371 698.313 101.032C698.964 101.693 699.289 102.616 699.289 103.8V109H697.481V104.072C697.481 103.283 697.284 102.68 696.889 102.264C696.494 101.837 695.956 101.624 695.273 101.624C694.59 101.624 694.046 101.837 693.641 102.264C693.246 102.68 693.049 103.283 693.049 104.072V109H691.225V100.184H693.049ZM705.478 109.144C704.198 109.144 703.158 108.728 702.358 107.896C701.558 107.064 701.158 105.965 701.158 104.6C701.158 103.224 701.558 102.12 702.358 101.288C703.168 100.456 704.208 100.04 705.478 100.04C706.544 100.04 707.424 100.296 708.118 100.808C708.822 101.309 709.296 102.029 709.542 102.968H707.574C707.243 102.04 706.544 101.576 705.478 101.576C704.731 101.576 704.134 101.843 703.686 102.376C703.248 102.899 703.03 103.635 703.03 104.584C703.03 105.533 703.248 106.275 703.686 106.808C704.134 107.341 704.731 107.608 705.478 107.608C706.534 107.608 707.232 107.144 707.574 106.216H709.542C709.286 107.112 708.806 107.827 708.102 108.36C707.398 108.883 706.523 109.144 705.478 109.144ZM717.237 106.808C717.771 106.275 718.037 105.533 718.037 104.584C718.037 103.635 717.776 102.899 717.253 102.376C716.741 101.843 716.117 101.576 715.381 101.576C714.645 101.576 714.027 101.843 713.525 102.376C713.024 102.899 712.773 103.64 712.773 104.6C712.773 105.549 713.019 106.291 713.509 106.824C714 107.347 714.608 107.608 715.333 107.608C716.069 107.608 716.704 107.341 717.237 106.808ZM715.333 109.144C714.053 109.144 712.997 108.728 712.165 107.896C711.333 107.053 710.917 105.955 710.917 104.6C710.917 103.235 711.344 102.136 712.197 101.304C713.061 100.461 714.133 100.04 715.413 100.04C716.693 100.04 717.76 100.461 718.613 101.304C719.477 102.136 719.909 103.229 719.909 104.584C719.909 105.939 719.467 107.037 718.581 107.88C717.707 108.723 716.624 109.144 715.333 109.144ZM727.67 106.76C728.204 106.216 728.47 105.491 728.47 104.584C728.47 103.677 728.204 102.957 727.67 102.424C727.148 101.891 726.524 101.624 725.798 101.624C725.073 101.624 724.444 101.885 723.91 102.408C723.388 102.931 723.126 103.645 723.126 104.552C723.126 105.459 723.388 106.189 723.91 106.744C724.444 107.288 725.073 107.56 725.798 107.56C726.524 107.56 727.148 107.293 727.67 106.76ZM725.414 109.144C724.241 109.144 723.254 108.717 722.454 107.864C721.654 107 721.254 105.901 721.254 104.568C721.254 103.224 721.649 102.136 722.438 101.304C723.238 100.461 724.23 100.04 725.414 100.04C726.108 100.04 726.716 100.2 727.238 100.52C727.772 100.829 728.182 101.24 728.47 101.752V97.16H730.31V109H728.47V107.352C728.172 107.896 727.761 108.333 727.238 108.664C726.716 108.984 726.108 109.144 725.414 109.144ZM736.568 109.144C735.288 109.144 734.248 108.728 733.448 107.896C732.648 107.064 732.248 105.96 732.248 104.584C732.248 103.208 732.654 102.109 733.464 101.288C734.275 100.456 735.32 100.04 736.6 100.04C737.891 100.04 738.936 100.44 739.736 101.24C740.536 102.029 740.936 103.064 740.936 104.344C740.936 104.653 740.915 104.941 740.872 105.208H734.12C734.163 105.944 734.408 106.531 734.856 106.968C735.315 107.395 735.886 107.608 736.568 107.608C737.56 107.608 738.259 107.197 738.664 106.376H740.632C740.366 107.187 739.88 107.853 739.176 108.376C738.472 108.888 737.603 109.144 736.568 109.144ZM739.032 103.96C739.022 103.235 738.782 102.659 738.312 102.232C737.843 101.795 737.272 101.576 736.6 101.576C735.928 101.576 735.363 101.795 734.904 102.232C734.456 102.659 734.2 103.235 734.136 103.96H739.032ZM742.305 99.304V97.88H750.065V99.304H747.105V109H745.281V99.304H742.305ZM755.775 109.144C754.495 109.144 753.455 108.728 752.655 107.896C751.855 107.064 751.455 105.96 751.455 104.584C751.455 103.208 751.86 102.109 752.671 101.288C753.481 100.456 754.527 100.04 755.807 100.04C757.097 100.04 758.143 100.44 758.943 101.24C759.743 102.029 760.143 103.064 760.143 104.344C760.143 104.653 760.121 104.941 760.079 105.208H753.327C753.369 105.944 753.615 106.531 754.063 106.968C754.521 107.395 755.092 107.608 755.775 107.608C756.767 107.608 757.465 107.197 757.871 106.376H759.839C759.572 107.187 759.087 107.853 758.383 108.376C757.679 108.888 756.809 109.144 755.775 109.144ZM758.239 103.96C758.228 103.235 757.988 102.659 757.519 102.232C757.049 101.795 756.479 101.576 755.807 101.576C755.135 101.576 754.569 101.795 754.111 102.232C753.663 102.659 753.407 103.235 753.343 103.96H758.239ZM768.711 100.184L765.863 104.536L768.711 109H766.647L764.743 106.008L762.951 109H761.047L763.895 104.664L761.047 100.184H763.111L765.015 103.176L766.807 100.184H768.711ZM774.494 101.672H772.35V106.552C772.35 106.883 772.425 107.123 772.574 107.272C772.734 107.411 773.001 107.48 773.374 107.48H774.494V109H773.054C771.358 109 770.51 108.184 770.51 106.552V101.672H769.47V100.184H770.51V97.992H772.35V100.184H774.494V101.672Z" fill="white"/>
<rect x="1251" y="40" width="70" height="48" rx="8" fill="#009191"/>
<path d="M1264.2 60.184H1266.02V70.728C1266.02 72.3707 1265.18 73.192 1263.5 73.192H1262.55V71.656H1263.18C1263.55 71.656 1263.81 71.5813 1263.96 71.432C1264.12 71.2933 1264.2 71.0587 1264.2 70.728V60.184ZM1266.28 57.848C1266.28 58.1787 1266.17 58.456 1265.94 58.68C1265.72 58.904 1265.44 59.016 1265.11 59.016C1264.79 59.016 1264.52 58.904 1264.3 58.68C1264.07 58.456 1263.96 58.1787 1263.96 57.848C1263.96 57.5173 1264.07 57.24 1264.3 57.016C1264.52 56.792 1264.79 56.68 1265.11 56.68C1265.44 56.68 1265.72 56.792 1265.94 57.016C1266.17 57.24 1266.28 57.5173 1266.28 57.848ZM1274.3 66.808C1274.83 66.2747 1275.1 65.5333 1275.1 64.584C1275.1 63.6347 1274.84 62.8987 1274.31 62.376C1273.8 61.8427 1273.18 61.576 1272.44 61.576C1271.7 61.576 1271.09 61.8427 1270.58 62.376C1270.08 62.8987 1269.83 63.64 1269.83 64.6C1269.83 65.5493 1270.08 66.2907 1270.57 66.824C1271.06 67.3467 1271.67 67.608 1272.39 67.608C1273.13 67.608 1273.76 67.3413 1274.3 66.808ZM1272.39 69.144C1271.11 69.144 1270.06 68.728 1269.22 67.896C1268.39 67.0533 1267.98 65.9547 1267.98 64.6C1267.98 63.2347 1268.4 62.136 1269.26 61.304C1270.12 60.4613 1271.19 60.04 1272.47 60.04C1273.75 60.04 1274.82 60.4613 1275.67 61.304C1276.54 62.136 1276.97 63.2293 1276.97 64.584C1276.97 65.9387 1276.53 67.0373 1275.64 67.88C1274.77 68.7227 1273.68 69.144 1272.39 69.144ZM1281 57.848C1281 58.1787 1280.89 58.456 1280.67 58.68C1280.44 58.904 1280.16 59.016 1279.83 59.016C1279.51 59.016 1279.24 58.904 1279.02 58.68C1278.79 58.456 1278.68 58.1787 1278.68 57.848C1278.68 57.5173 1278.79 57.24 1279.02 57.016C1279.24 56.792 1279.51 56.68 1279.83 56.68C1280.16 56.68 1280.44 56.792 1280.67 57.016C1280.89 57.24 1281 57.5173 1281 57.848ZM1278.92 69V60.184H1280.75V69H1278.92ZM1285.11 60.184V61.576C1285.7 60.552 1286.64 60.04 1287.93 60.04C1288.92 60.04 1289.74 60.3707 1290.38 61.032C1291.03 61.6933 1291.35 62.616 1291.35 63.8V69H1289.55V64.072C1289.55 63.2827 1289.35 62.68 1288.95 62.264C1288.56 61.8373 1288.02 61.624 1287.34 61.624C1286.66 61.624 1286.11 61.8373 1285.71 62.264C1285.31 62.68 1285.11 63.2827 1285.11 64.072V69H1283.29V60.184H1285.11ZM1297.54 69.144C1296.26 69.144 1295.22 68.728 1294.42 67.896C1293.62 67.064 1293.22 65.96 1293.22 64.584C1293.22 63.208 1293.63 62.1093 1294.44 61.288C1295.25 60.456 1296.3 60.04 1297.58 60.04C1298.87 60.04 1299.91 60.44 1300.71 61.24C1301.51 62.0293 1301.91 63.064 1301.91 64.344C1301.91 64.6533 1301.89 64.9413 1301.85 65.208H1295.1C1295.14 65.944 1295.38 66.5307 1295.83 66.968C1296.29 67.3947 1296.86 67.608 1297.54 67.608C1298.54 67.608 1299.23 67.1973 1299.64 66.376H1301.61C1301.34 67.1867 1300.86 67.8533 1300.15 68.376C1299.45 68.888 1298.58 69.144 1297.54 69.144ZM1300.01 63.96C1300 63.2347 1299.76 62.6587 1299.29 62.232C1298.82 61.7947 1298.25 61.576 1297.58 61.576C1296.9 61.576 1296.34 61.7947 1295.88 62.232C1295.43 62.6587 1295.18 63.2347 1295.11 63.96H1300.01ZM1305.68 60.184V61.72C1306.25 60.6 1307.13 60.04 1308.32 60.04V61.928H1307.86C1307.14 61.928 1306.6 62.1093 1306.22 62.472C1305.86 62.8347 1305.68 63.464 1305.68 64.36V69H1303.86V60.184H1305.68Z" fill="white"/>
<rect x="1357" y="40" width="82" height="48" rx="8" fill="#009191"/>
<path d="M1372.02 64.488V69H1370.2V57.88H1374.04C1375.3 57.88 1376.27 58.1947 1376.95 58.824C1377.63 59.4427 1377.98 60.232 1377.98 61.192C1377.98 61.9387 1377.75 62.6107 1377.29 63.208C1376.84 63.8053 1376.15 64.1947 1375.21 64.376L1378.15 69H1375.93L1373.14 64.488H1372.02ZM1372.02 59.304V63.064H1374.04C1374.73 63.064 1375.25 62.8987 1375.59 62.568C1375.93 62.2373 1376.1 61.7787 1376.1 61.192C1376.1 60.5947 1375.93 60.1307 1375.59 59.8C1375.25 59.4693 1374.73 59.304 1374.04 59.304H1372.02ZM1386.27 66.76C1386.8 66.216 1387.07 65.4907 1387.07 64.584C1387.07 63.6773 1386.8 62.9573 1386.27 62.424C1385.74 61.8907 1385.12 61.624 1384.4 61.624C1383.67 61.624 1383.04 61.8853 1382.51 62.408C1381.98 62.9307 1381.72 63.6453 1381.72 64.552C1381.72 65.4587 1381.98 66.1893 1382.51 66.744C1383.04 67.288 1383.67 67.56 1384.4 67.56C1385.12 67.56 1385.74 67.2933 1386.27 66.76ZM1384.01 69.144C1382.84 69.144 1381.85 68.7173 1381.05 67.864C1380.25 67 1379.85 65.9013 1379.85 64.568C1379.85 63.224 1380.25 62.136 1381.04 61.304C1381.84 60.4613 1382.83 60.04 1384.01 60.04C1384.7 60.04 1385.31 60.2 1385.84 60.52C1386.37 60.8293 1386.78 61.24 1387.07 61.752V60.184H1388.91V69H1387.07V67.352C1386.77 67.896 1386.36 68.3333 1385.84 68.664C1385.31 68.984 1384.7 69.144 1384.01 69.144ZM1393.28 60.184V61.576C1393.86 60.552 1394.8 60.04 1396.09 60.04C1397.09 60.04 1397.9 60.3707 1398.54 61.032C1399.19 61.6933 1399.52 62.616 1399.52 63.8V69H1397.71V64.072C1397.71 63.2827 1397.51 62.68 1397.12 62.264C1396.72 61.8373 1396.18 61.624 1395.5 61.624C1394.82 61.624 1394.27 61.8373 1393.87 62.264C1393.47 62.68 1393.28 63.2827 1393.28 64.072V69H1391.45V60.184H1393.28ZM1403.82 69H1401.99V57.16H1403.82V64.04L1407.02 60.184H1409.55L1405.48 64.6L1409.55 69H1407.08L1403.82 65.208V69ZM1414.72 69.144C1413.44 69.144 1412.4 68.728 1411.6 67.896C1410.8 67.064 1410.4 65.96 1410.4 64.584C1410.4 63.208 1410.8 62.1093 1411.61 61.288C1412.42 60.456 1413.47 60.04 1414.75 60.04C1416.04 60.04 1417.08 60.44 1417.88 61.24C1418.68 62.0293 1419.08 63.064 1419.08 64.344C1419.08 64.6533 1419.06 64.9413 1419.02 65.208H1412.27C1412.31 65.944 1412.56 66.5307 1413 66.968C1413.46 67.3947 1414.03 67.608 1414.72 67.608C1415.71 67.608 1416.41 67.1973 1416.81 66.376H1418.78C1418.51 67.1867 1418.03 67.8533 1417.32 68.376C1416.62 68.888 1415.75 69.144 1414.72 69.144ZM1417.18 63.96C1417.17 63.2347 1416.93 62.6587 1416.46 62.232C1415.99 61.7947 1415.42 61.576 1414.75 61.576C1414.08 61.576 1413.51 61.7947 1413.05 62.232C1412.6 62.6587 1412.35 63.2347 1412.28 63.96H1417.18ZM1422.85 60.184V61.72C1423.42 60.6 1424.3 60.04 1425.49 60.04V61.928H1425.03C1424.31 61.928 1423.77 62.1093 1423.4 62.472C1423.03 62.8347 1422.85 63.464 1422.85 64.36V69H1421.03V60.184H1422.85Z" fill="white"/>
<rect x="1475" y="40" width="79" height="48" rx="8" fill="#009191"/>
<path d="M1494.01 66.76C1494.54 66.216 1494.81 65.4907 1494.81 64.584C1494.81 63.6773 1494.54 62.9573 1494.01 62.424C1493.49 61.8907 1492.86 61.624 1492.14 61.624C1491.41 61.624 1490.78 61.8853 1490.25 62.408C1489.73 62.9307 1489.46 63.6453 1489.46 64.552C1489.46 65.4587 1489.73 66.1893 1490.25 66.744C1490.78 67.288 1491.41 67.56 1492.14 67.56C1492.86 67.56 1493.49 67.2933 1494.01 66.76ZM1491.75 69.144C1490.58 69.144 1489.59 68.7173 1488.79 67.864C1487.99 67 1487.59 65.9013 1487.59 64.568C1487.59 63.224 1487.99 62.136 1488.78 61.304C1489.58 60.4613 1490.57 60.04 1491.75 60.04C1492.45 60.04 1493.05 60.2 1493.58 60.52C1494.11 60.8293 1494.52 61.24 1494.81 61.752V57.16H1496.65V69H1494.81V67.352C1494.51 67.896 1494.1 68.3333 1493.58 68.664C1493.05 68.984 1492.45 69.144 1491.75 69.144ZM1504.92 66.808C1505.46 66.2747 1505.72 65.5333 1505.72 64.584C1505.72 63.6347 1505.46 62.8987 1504.94 62.376C1504.43 61.8427 1503.8 61.576 1503.07 61.576C1502.33 61.576 1501.71 61.8427 1501.21 62.376C1500.71 62.8987 1500.46 63.64 1500.46 64.6C1500.46 65.5493 1500.7 66.2907 1501.19 66.824C1501.68 67.3467 1502.29 67.608 1503.02 67.608C1503.75 67.608 1504.39 67.3413 1504.92 66.808ZM1503.02 69.144C1501.74 69.144 1500.68 68.728 1499.85 67.896C1499.02 67.0533 1498.6 65.9547 1498.6 64.6C1498.6 63.2347 1499.03 62.136 1499.88 61.304C1500.75 60.4613 1501.82 60.04 1503.1 60.04C1504.38 60.04 1505.44 60.4613 1506.3 61.304C1507.16 62.136 1507.59 63.2293 1507.59 64.584C1507.59 65.9387 1507.15 67.0373 1506.27 67.88C1505.39 68.7227 1504.31 69.144 1503.02 69.144ZM1513.26 69.144C1511.98 69.144 1510.94 68.728 1510.14 67.896C1509.34 67.064 1508.94 65.9653 1508.94 64.6C1508.94 63.224 1509.34 62.12 1510.14 61.288C1510.95 60.456 1511.99 60.04 1513.26 60.04C1514.33 60.04 1515.21 60.296 1515.9 60.808C1516.6 61.3093 1517.08 62.0293 1517.32 62.968H1515.35C1515.02 62.04 1514.33 61.576 1513.26 61.576C1512.51 61.576 1511.91 61.8427 1511.47 62.376C1511.03 62.8987 1510.81 63.6347 1510.81 64.584C1510.81 65.5333 1511.03 66.2747 1511.47 66.808C1511.91 67.3413 1512.51 67.608 1513.26 67.608C1514.31 67.608 1515.01 67.144 1515.35 66.216H1517.32C1517.07 67.112 1516.59 67.8267 1515.88 68.36C1515.18 68.8827 1514.3 69.144 1513.26 69.144ZM1521.37 57.848C1521.37 58.1787 1521.26 58.456 1521.03 58.68C1520.81 58.904 1520.53 59.016 1520.2 59.016C1519.88 59.016 1519.61 58.904 1519.39 58.68C1519.16 58.456 1519.05 58.1787 1519.05 57.848C1519.05 57.5173 1519.16 57.24 1519.39 57.016C1519.61 56.792 1519.88 56.68 1520.2 56.68C1520.53 56.68 1520.81 56.792 1521.03 57.016C1521.26 57.24 1521.37 57.5173 1521.37 57.848ZM1519.29 69V60.184H1521.11V69H1519.29ZM1529.47 66.76C1530 66.216 1530.27 65.4907 1530.27 64.584C1530.27 63.6773 1530 62.9573 1529.47 62.424C1528.94 61.8907 1528.32 61.624 1527.6 61.624C1526.87 61.624 1526.24 61.8853 1525.71 62.408C1525.18 62.9307 1524.92 63.6453 1524.92 64.552C1524.92 65.4587 1525.18 66.1893 1525.71 66.744C1526.24 67.288 1526.87 67.56 1527.6 67.56C1528.32 67.56 1528.94 67.2933 1529.47 66.76ZM1527.21 69.144C1526.04 69.144 1525.05 68.7173 1524.25 67.864C1523.45 67 1523.05 65.9013 1523.05 64.568C1523.05 63.224 1523.45 62.136 1524.24 61.304C1525.04 60.4613 1526.03 60.04 1527.21 60.04C1527.9 60.04 1528.51 60.2 1529.04 60.52C1529.57 60.8293 1529.98 61.24 1530.27 61.752V57.16H1532.11V69H1530.27V67.352C1529.97 67.896 1529.56 68.3333 1529.04 68.664C1528.51 68.984 1527.9 69.144 1527.21 69.144ZM1541.28 60.184L1538.43 64.536L1541.28 69H1539.21L1537.31 66.008L1535.52 69H1533.61L1536.46 64.664L1533.61 60.184H1535.68L1537.58 63.176L1539.37 60.184H1541.28Z" fill="white"/>
<rect opacity="0.8" x="658" width="139" height="48" rx="8" fill="#FBCB67"/>
<path d="M674.912 29.144C673.632 29.144 672.592 28.728 671.792 27.896C670.992 27.064 670.592 25.96 670.592 24.584C670.592 23.208 670.997 22.1093 671.808 21.288C672.619 20.456 673.664 20.04 674.944 20.04C676.235 20.04 677.28 20.44 678.08 21.24C678.88 22.0293 679.28 23.064 679.28 24.344C679.28 24.6533 679.259 24.9413 679.216 25.208H672.464C672.507 25.944 672.752 26.5307 673.2 26.968C673.659 27.3947 674.229 27.608 674.912 27.608C675.904 27.608 676.603 27.1973 677.008 26.376H678.976C678.709 27.1867 678.224 27.8533 677.52 28.376C676.816 28.888 675.947 29.144 674.912 29.144ZM677.376 23.96C677.365 23.2347 677.125 22.6587 676.656 22.232C676.187 21.7947 675.616 21.576 674.944 21.576C674.272 21.576 673.707 21.7947 673.248 22.232C672.8 22.6587 672.544 23.2347 672.48 23.96H677.376ZM683.049 20.184V21.576C683.636 20.552 684.574 20.04 685.865 20.04C686.857 20.04 687.673 20.3707 688.313 21.032C688.964 21.6933 689.289 22.616 689.289 23.8V29H687.481V24.072C687.481 23.2827 687.284 22.68 686.889 22.264C686.494 21.8373 685.956 21.624 685.273 21.624C684.59 21.624 684.046 21.8373 683.641 22.264C683.246 22.68 683.049 23.2827 683.049 24.072V29H681.225V20.184H683.049ZM695.478 29.144C694.198 29.144 693.158 28.728 692.358 27.896C691.558 27.064 691.158 25.9653 691.158 24.6C691.158 23.224 691.558 22.12 692.358 21.288C693.168 20.456 694.208 20.04 695.478 20.04C696.544 20.04 697.424 20.296 698.118 20.808C698.822 21.3093 699.296 22.0293 699.542 22.968H697.574C697.243 22.04 696.544 21.576 695.478 21.576C694.731 21.576 694.134 21.8427 693.686 22.376C693.248 22.8987 693.03 23.6347 693.03 24.584C693.03 25.5333 693.248 26.2747 693.686 26.808C694.134 27.3413 694.731 27.608 695.478 27.608C696.534 27.608 697.232 27.144 697.574 26.216H699.542C699.286 27.112 698.806 27.8267 698.102 28.36C697.398 28.8827 696.523 29.144 695.478 29.144ZM707.237 26.808C707.771 26.2747 708.037 25.5333 708.037 24.584C708.037 23.6347 707.776 22.8987 707.253 22.376C706.741 21.8427 706.117 21.576 705.381 21.576C704.645 21.576 704.027 21.8427 703.525 22.376C703.024 22.8987 702.773 23.64 702.773 24.6C702.773 25.5493 703.019 26.2907 703.509 26.824C704 27.3467 704.608 27.608 705.333 27.608C706.069 27.608 706.704 27.3413 707.237 26.808ZM705.333 29.144C704.053 29.144 702.997 28.728 702.165 27.896C701.333 27.0533 700.917 25.9547 700.917 24.6C700.917 23.2347 701.344 22.136 702.197 21.304C703.061 20.4613 704.133 20.04 705.413 20.04C706.693 20.04 707.76 20.4613 708.613 21.304C709.477 22.136 709.909 23.2293 709.909 24.584C709.909 25.9387 709.467 27.0373 708.581 27.88C707.707 28.7227 706.624 29.144 705.333 29.144ZM717.67 26.76C718.204 26.216 718.47 25.4907 718.47 24.584C718.47 23.6773 718.204 22.9573 717.67 22.424C717.148 21.8907 716.524 21.624 715.798 21.624C715.073 21.624 714.444 21.8853 713.91 22.408C713.388 22.9307 713.126 23.6453 713.126 24.552C713.126 25.4587 713.388 26.1893 713.91 26.744C714.444 27.288 715.073 27.56 715.798 27.56C716.524 27.56 717.148 27.2933 717.67 26.76ZM715.414 29.144C714.241 29.144 713.254 28.7173 712.454 27.864C711.654 27 711.254 25.9013 711.254 24.568C711.254 23.224 711.649 22.136 712.438 21.304C713.238 20.4613 714.23 20.04 715.414 20.04C716.108 20.04 716.716 20.2 717.238 20.52C717.772 20.8293 718.182 21.24 718.47 21.752V17.16H720.31V29H718.47V27.352C718.172 27.896 717.761 28.3333 717.238 28.664C716.716 28.984 716.108 29.144 715.414 29.144ZM726.568 29.144C725.288 29.144 724.248 28.728 723.448 27.896C722.648 27.064 722.248 25.96 722.248 24.584C722.248 23.208 722.654 22.1093 723.464 21.288C724.275 20.456 725.32 20.04 726.6 20.04C727.891 20.04 728.936 20.44 729.736 21.24C730.536 22.0293 730.936 23.064 730.936 24.344C730.936 24.6533 730.915 24.9413 730.872 25.208H724.12C724.163 25.944 724.408 26.5307 724.856 26.968C725.315 27.3947 725.886 27.608 726.568 27.608C727.56 27.608 728.259 27.1973 728.664 26.376H730.632C730.366 27.1867 729.88 27.8533 729.176 28.376C728.472 28.888 727.603 29.144 726.568 29.144ZM729.032 23.96C729.022 23.2347 728.782 22.6587 728.312 22.232C727.843 21.7947 727.272 21.576 726.6 21.576C725.928 21.576 725.363 21.7947 724.904 22.232C724.456 22.6587 724.2 23.2347 724.136 23.96H729.032ZM732.881 29V17.88H734.705V29H732.881ZM739.074 20.184V21.576C739.661 20.552 740.599 20.04 741.89 20.04C742.573 20.04 743.181 20.2 743.714 20.52C744.247 20.84 744.653 21.304 744.93 21.912C745.239 21.3253 745.666 20.8667 746.21 20.536C746.765 20.2053 747.389 20.04 748.082 20.04C749.095 20.04 749.927 20.3707 750.578 21.032C751.229 21.6827 751.554 22.6053 751.554 23.8V29H749.73V24.072C749.73 23.2827 749.533 22.68 749.138 22.264C748.743 21.8373 748.205 21.624 747.522 21.624C746.839 21.624 746.301 21.8373 745.906 22.264C745.511 22.68 745.314 23.2827 745.314 24.072V29H743.506V24.072C743.506 23.2827 743.309 22.68 742.914 22.264C742.519 21.8373 741.981 21.624 741.298 21.624C740.615 21.624 740.071 21.8373 739.666 22.264C739.271 22.68 739.074 23.2827 739.074 24.072V29H737.25V20.184H739.074ZM759.833 26.76C760.366 26.216 760.633 25.4907 760.633 24.584C760.633 23.6773 760.366 22.9573 759.833 22.424C759.31 21.8907 758.686 21.624 757.961 21.624C757.236 21.624 756.606 21.8853 756.073 22.408C755.55 22.9307 755.289 23.6453 755.289 24.552C755.289 25.4587 755.55 26.1893 756.073 26.744C756.606 27.288 757.236 27.56 757.961 27.56C758.686 27.56 759.31 27.2933 759.833 26.76ZM757.577 29.144C756.404 29.144 755.417 28.7173 754.617 27.864C753.817 27 753.417 25.9013 753.417 24.568C753.417 23.224 753.812 22.136 754.601 21.304C755.401 20.4613 756.393 20.04 757.577 20.04C758.27 20.04 758.878 20.2 759.401 20.52C759.934 20.8293 760.345 21.24 760.633 21.752V20.184H762.473V29H760.633V27.352C760.334 27.896 759.924 28.3333 759.401 28.664C758.878 28.984 758.27 29.144 757.577 29.144ZM768.571 29.144C767.397 29.144 766.411 28.7173 765.611 27.864C764.811 27 764.411 25.9013 764.411 24.568C764.411 23.224 764.805 22.136 765.595 21.304C766.395 20.4613 767.387 20.04 768.571 20.04C769.264 20.04 769.872 20.2 770.395 20.52C770.928 20.8293 771.339 21.24 771.627 21.752V20.184H773.467V29.144C773.467 30.3813 773.083 31.3893 772.315 32.168C771.557 32.9573 770.544 33.352 769.275 33.352C768.005 33.352 766.976 33.0693 766.187 32.504C765.397 31.9493 764.949 31.192 764.843 30.232H766.651C766.789 30.6907 767.083 31.0587 767.531 31.336C767.989 31.624 768.56 31.768 769.243 31.768C769.925 31.768 770.491 31.544 770.939 31.096C771.397 30.648 771.627 29.9973 771.627 29.144V27.352C771.328 27.896 770.917 28.3333 770.395 28.664C769.872 28.984 769.264 29.144 768.571 29.144ZM770.827 26.76C771.36 26.216 771.627 25.4907 771.627 24.584C771.627 23.6773 771.36 22.9573 770.827 22.424C770.304 21.8907 769.68 21.624 768.955 21.624C768.229 21.624 767.6 21.8853 767.067 22.408C766.544 22.9307 766.283 23.6453 766.283 24.552C766.283 25.4587 766.544 26.1893 767.067 26.744C767.6 27.288 768.229 27.56 768.955 27.56C769.68 27.56 770.304 27.2933 770.827 26.76ZM779.725 29.144C778.445 29.144 777.405 28.728 776.605 27.896C775.805 27.064 775.405 25.96 775.405 24.584C775.405 23.208 775.81 22.1093 776.621 21.288C777.431 20.456 778.477 20.04 779.757 20.04C781.047 20.04 782.093 20.44 782.892 21.24C783.693 22.0293 784.093 23.064 784.093 24.344C784.093 24.6533 784.071 24.9413 784.029 25.208H777.277C777.319 25.944 777.565 26.5307 778.013 26.968C778.471 27.3947 779.042 27.608 779.725 27.608C780.717 27.608 781.415 27.1973 781.821 26.376H783.789C783.522 27.1867 783.037 27.8533 782.333 28.376C781.629 28.888 780.759 29.144 779.725 29.144ZM782.189 23.96C782.178 23.2347 781.938 22.6587 781.469 22.232C780.999 21.7947 780.429 21.576 779.757 21.576C779.085 21.576 778.519 21.7947 778.061 22.232C777.613 22.6587 777.357 23.2347 777.293 23.96H782.189Z" fill="#333333"/>
<rect opacity="0.8" x="833" width="170" height="48" rx="8" fill="#FBCB67"/>
<path d="M848.28 17.848C848.28 18.1787 848.168 18.456 847.944 18.68C847.72 18.904 847.443 19.016 847.112 19.016C846.792 19.016 846.52 18.904 846.296 18.68C846.072 18.456 845.96 18.1787 845.96 17.848C845.96 17.5173 846.072 17.24 846.296 17.016C846.52 16.792 846.792 16.68 847.112 16.68C847.443 16.68 847.72 16.792 847.944 17.016C848.168 17.24 848.28 17.5173 848.28 17.848ZM846.2 29V20.184H848.024V29H846.2ZM852.393 20.184V21.576C852.979 20.552 853.918 20.04 855.209 20.04C855.891 20.04 856.499 20.2 857.033 20.52C857.566 20.84 857.971 21.304 858.249 21.912C858.558 21.3253 858.985 20.8667 859.529 20.536C860.083 20.2053 860.707 20.04 861.401 20.04C862.414 20.04 863.246 20.3707 863.897 21.032C864.547 21.6827 864.873 22.6053 864.873 23.8V29H863.049V24.072C863.049 23.2827 862.851 22.68 862.457 22.264C862.062 21.8373 861.523 21.624 860.841 21.624C860.158 21.624 859.619 21.8373 859.225 22.264C858.83 22.68 858.633 23.2827 858.633 24.072V29H856.825V24.072C856.825 23.2827 856.627 22.68 856.233 22.264C855.838 21.8373 855.299 21.624 854.617 21.624C853.934 21.624 853.39 21.8373 852.985 22.264C852.59 22.68 852.393 23.2827 852.393 24.072V29H850.569V20.184H852.393ZM870.896 29.144C869.722 29.144 868.736 28.7173 867.936 27.864C867.136 27 866.736 25.9013 866.736 24.568C866.736 23.224 867.13 22.136 867.92 21.304C868.72 20.4613 869.712 20.04 870.896 20.04C871.589 20.04 872.197 20.2 872.72 20.52C873.253 20.8293 873.664 21.24 873.952 21.752V20.184H875.792V29.144C875.792 30.3813 875.408 31.3893 874.64 32.168C873.882 32.9573 872.869 33.352 871.6 33.352C870.33 33.352 869.301 33.0693 868.512 32.504C867.722 31.9493 867.274 31.192 867.168 30.232H868.976C869.114 30.6907 869.408 31.0587 869.856 31.336C870.314 31.624 870.885 31.768 871.568 31.768C872.25 31.768 872.816 31.544 873.264 31.096C873.722 30.648 873.952 29.9973 873.952 29.144V27.352C873.653 27.896 873.242 28.3333 872.72 28.664C872.197 28.984 871.589 29.144 870.896 29.144ZM873.152 26.76C873.685 26.216 873.952 25.4907 873.952 24.584C873.952 23.6773 873.685 22.9573 873.152 22.424C872.629 21.8907 872.005 21.624 871.28 21.624C870.554 21.624 869.925 21.8853 869.392 22.408C868.869 22.9307 868.608 23.6453 868.608 24.552C868.608 25.4587 868.869 26.1893 869.392 26.744C869.925 27.288 870.554 27.56 871.28 27.56C872.005 27.56 872.629 27.2933 873.152 26.76ZM883.41 29.096C881.82 29.096 880.476 28.5627 879.378 27.496C878.279 26.4293 877.73 25.0747 877.73 23.432C877.73 21.7787 878.279 20.4187 879.378 19.352C880.476 18.2747 881.82 17.736 883.41 17.736C884.594 17.736 885.644 18.0293 886.562 18.616C887.49 19.192 888.162 20.0133 888.578 21.08H886.386C885.788 19.96 884.796 19.4 883.41 19.4C882.29 19.4 881.372 19.768 880.658 20.504C879.954 21.24 879.602 22.216 879.602 23.432C879.602 24.6373 879.954 25.608 880.658 26.344C881.372 27.08 882.29 27.448 883.41 27.448C884.796 27.448 885.788 26.888 886.386 25.768H888.578C888.162 26.8347 887.49 27.656 886.562 28.232C885.644 28.808 884.594 29.096 883.41 29.096ZM892.686 17.16V21.576C893.273 20.552 894.212 20.04 895.502 20.04C896.494 20.04 897.31 20.3707 897.95 21.032C898.601 21.6933 898.926 22.616 898.926 23.8V29H897.118V24.072C897.118 23.2827 896.921 22.68 896.526 22.264C896.132 21.8373 895.593 21.624 894.91 21.624C894.228 21.624 893.684 21.8373 893.278 22.264C892.884 22.68 892.686 23.2827 892.686 24.072V29H890.862V17.16H892.686ZM907.563 20.184H909.387V29H907.563V27.608C906.987 28.6213 906.048 29.128 904.747 29.128C903.755 29.128 902.934 28.8027 902.283 28.152C901.643 27.4907 901.323 26.568 901.323 25.384V20.184H903.131V25.112C903.131 25.9013 903.328 26.5093 903.723 26.936C904.118 27.352 904.656 27.56 905.339 27.56C906.022 27.56 906.56 27.352 906.955 26.936C907.36 26.5093 907.563 25.9013 907.563 25.112V20.184ZM913.768 20.184V21.576C914.354 20.552 915.293 20.04 916.584 20.04C917.576 20.04 918.392 20.3707 919.032 21.032C919.682 21.6933 920.008 22.616 920.008 23.8V29H918.2V24.072C918.2 23.2827 918.002 22.68 917.608 22.264C917.213 21.8373 916.674 21.624 915.992 21.624C915.309 21.624 914.765 21.8373 914.36 22.264C913.965 22.68 913.768 23.2827 913.768 24.072V29H911.944V20.184H913.768ZM924.308 29H922.484V17.16H924.308V24.04L927.508 20.184H930.036L925.972 24.6L930.036 29H927.572L924.308 25.208V29ZM931.494 29V17.88H933.318V29H931.494ZM937.686 20.184V21.576C938.273 20.552 939.212 20.04 940.502 20.04C941.494 20.04 942.31 20.3707 942.95 21.032C943.601 21.6933 943.926 22.616 943.926 23.8V29H942.118V24.072C942.118 23.2827 941.921 22.68 941.526 22.264C941.132 21.8373 940.593 21.624 939.91 21.624C939.228 21.624 938.684 21.8373 938.278 22.264C937.884 22.68 937.686 23.2827 937.686 24.072V29H935.862V20.184H937.686ZM952.211 26.76C952.744 26.216 953.011 25.4907 953.011 24.584C953.011 23.6773 952.744 22.9573 952.211 22.424C951.688 21.8907 951.064 21.624 950.339 21.624C949.614 21.624 948.984 21.8853 948.451 22.408C947.928 22.9307 947.667 23.6453 947.667 24.552C947.667 25.4587 947.928 26.1893 948.451 26.744C948.984 27.288 949.614 27.56 950.339 27.56C951.064 27.56 951.688 27.2933 952.211 26.76ZM949.955 29.144C948.782 29.144 947.795 28.7173 946.995 27.864C946.195 27 945.795 25.9013 945.795 24.568C945.795 23.224 946.19 22.136 946.979 21.304C947.779 20.4613 948.771 20.04 949.955 20.04C950.648 20.04 951.256 20.2 951.779 20.52C952.312 20.8293 952.723 21.24 953.011 21.752V17.16H954.851V29H953.011V27.352C952.712 27.896 952.302 28.3333 951.779 28.664C951.256 28.984 950.648 29.144 949.955 29.144ZM961.109 29.144C959.829 29.144 958.789 28.728 957.989 27.896C957.189 27.064 956.789 25.96 956.789 24.584C956.789 23.208 957.194 22.1093 958.005 21.288C958.816 20.456 959.861 20.04 961.141 20.04C962.432 20.04 963.477 20.44 964.277 21.24C965.077 22.0293 965.477 23.064 965.477 24.344C965.477 24.6533 965.456 24.9413 965.413 25.208H958.661C958.704 25.944 958.949 26.5307 959.397 26.968C959.856 27.3947 960.426 27.608 961.109 27.608C962.101 27.608 962.8 27.1973 963.205 26.376H965.173C964.906 27.1867 964.421 27.8533 963.717 28.376C963.013 28.888 962.144 29.144 961.109 29.144ZM963.573 23.96C963.562 23.2347 963.322 22.6587 962.853 22.232C962.384 21.7947 961.813 21.576 961.141 21.576C960.469 21.576 959.904 21.7947 959.445 22.232C958.997 22.6587 958.741 23.2347 958.677 23.96H963.573ZM974.046 20.184L971.198 24.536L974.046 29H971.982L970.078 26.008L968.286 29H966.382L969.23 24.664L966.382 20.184H968.446L970.35 23.176L972.142 20.184H974.046ZM979.268 29.144C977.988 29.144 976.948 28.728 976.148 27.896C975.348 27.064 974.948 25.96 974.948 24.584C974.948 23.208 975.354 22.1093 976.164 21.288C976.975 20.456 978.02 20.04 979.3 20.04C980.591 20.04 981.636 20.44 982.436 21.24C983.236 22.0293 983.636 23.064 983.636 24.344C983.636 24.6533 983.615 24.9413 983.572 25.208H976.82C976.863 25.944 977.108 26.5307 977.556 26.968C978.015 27.3947 978.586 27.608 979.268 27.608C980.26 27.608 980.959 27.1973 981.364 26.376H983.332C983.066 27.1867 982.58 27.8533 981.876 28.376C981.172 28.888 980.303 29.144 979.268 29.144ZM981.732 23.96C981.722 23.2347 981.482 22.6587 981.012 22.232C980.543 21.7947 979.972 21.576 979.3 21.576C978.628 21.576 978.063 21.7947 977.604 22.232C977.156 22.6587 976.9 23.2347 976.836 23.96H981.732ZM987.405 20.184V21.72C987.971 20.6 988.851 20.04 990.045 20.04V21.928H989.581C988.867 21.928 988.323 22.1093 987.949 22.472C987.587 22.8347 987.405 23.464 987.405 24.36V29H985.581V20.184H987.405Z" fill="#333333"/>
<rect opacity="0.8" x="834" y="80" width="168" height="48" rx="8" fill="#EB6161"/>
<path d="M851.472 101.672H849.328V106.552C849.328 106.883 849.403 107.123 849.552 107.272C849.712 107.411 849.979 107.48 850.352 107.48H851.472V109H850.032C848.336 109 847.488 108.184 847.488 106.552V101.672H846.448V100.184H847.488V97.992H849.328V100.184H851.472V101.672ZM857.015 109.144C855.735 109.144 854.695 108.728 853.895 107.896C853.095 107.064 852.695 105.96 852.695 104.584C852.695 103.208 853.1 102.109 853.911 101.288C854.722 100.456 855.767 100.04 857.047 100.04C858.338 100.04 859.383 100.44 860.183 101.24C860.983 102.029 861.383 103.064 861.383 104.344C861.383 104.653 861.362 104.941 861.319 105.208H854.567C854.61 105.944 854.855 106.531 855.303 106.968C855.762 107.395 856.332 107.608 857.015 107.608C858.007 107.608 858.706 107.197 859.111 106.376H861.079C860.812 107.187 860.327 107.853 859.623 108.376C858.919 108.888 858.05 109.144 857.015 109.144ZM859.479 103.96C859.468 103.235 859.228 102.659 858.759 102.232C858.29 101.795 857.719 101.576 857.047 101.576C856.375 101.576 855.81 101.795 855.351 102.232C854.903 102.659 854.647 103.235 854.583 103.96H859.479ZM869.952 100.184L867.104 104.536L869.952 109H867.888L865.984 106.008L864.192 109H862.288L865.136 104.664L862.288 100.184H864.352L866.256 103.176L868.048 100.184H869.952ZM875.735 101.672H873.591V106.552C873.591 106.883 873.665 107.123 873.815 107.272C873.975 107.411 874.241 107.48 874.615 107.48H875.735V109H874.295C872.599 109 871.751 108.184 871.751 106.552V101.672H870.711V100.184H871.751V97.992H873.591V100.184H875.735V101.672ZM882.638 109.096C881.048 109.096 879.704 108.563 878.606 107.496C877.507 106.429 876.958 105.075 876.958 103.432C876.958 101.779 877.507 100.419 878.606 99.352C879.704 98.2747 881.048 97.736 882.638 97.736C883.822 97.736 884.872 98.0293 885.79 98.616C886.718 99.192 887.39 100.013 887.806 101.08H885.614C885.016 99.96 884.024 99.4 882.638 99.4C881.518 99.4 880.6 99.768 879.886 100.504C879.182 101.24 878.83 102.216 878.83 103.432C878.83 104.637 879.182 105.608 879.886 106.344C880.6 107.08 881.518 107.448 882.638 107.448C884.024 107.448 885.016 106.888 885.614 105.768H887.806C887.39 106.835 886.718 107.656 885.79 108.232C884.872 108.808 883.822 109.096 882.638 109.096ZM891.915 97.16V101.576C892.501 100.552 893.44 100.04 894.731 100.04C895.723 100.04 896.539 100.371 897.179 101.032C897.829 101.693 898.155 102.616 898.155 103.8V109H896.347V104.072C896.347 103.283 896.149 102.68 895.755 102.264C895.36 101.837 894.821 101.624 894.139 101.624C893.456 101.624 892.912 101.837 892.507 102.264C892.112 102.68 891.915 103.283 891.915 104.072V109H890.091V97.16H891.915ZM906.791 100.184H908.615V109H906.791V107.608C906.215 108.621 905.277 109.128 903.975 109.128C902.983 109.128 902.162 108.803 901.511 108.152C900.871 107.491 900.551 106.568 900.551 105.384V100.184H902.359V105.112C902.359 105.901 902.557 106.509 902.951 106.936C903.346 107.352 903.885 107.56 904.567 107.56C905.25 107.56 905.789 107.352 906.183 106.936C906.589 106.509 906.791 105.901 906.791 105.112V100.184ZM912.996 100.184V101.576C913.583 100.552 914.521 100.04 915.812 100.04C916.804 100.04 917.62 100.371 918.26 101.032C918.911 101.693 919.236 102.616 919.236 103.8V109H917.428V104.072C917.428 103.283 917.231 102.68 916.836 102.264C916.441 101.837 915.903 101.624 915.22 101.624C914.537 101.624 913.993 101.837 913.588 102.264C913.193 102.68 912.996 103.283 912.996 104.072V109H911.172V100.184H912.996ZM923.536 109H921.712V97.16H923.536V104.04L926.736 100.184H929.264L925.2 104.6L929.264 109H926.8L923.536 105.208V109ZM930.722 109V97.88H932.546V109H930.722ZM936.915 100.184V101.576C937.501 100.552 938.44 100.04 939.731 100.04C940.723 100.04 941.539 100.371 942.179 101.032C942.829 101.693 943.155 102.616 943.155 103.8V109H941.347V104.072C941.347 103.283 941.149 102.68 940.755 102.264C940.36 101.837 939.821 101.624 939.139 101.624C938.456 101.624 937.912 101.837 937.507 102.264C937.112 102.68 936.915 103.283 936.915 104.072V109H935.091V100.184H936.915ZM951.439 106.76C951.973 106.216 952.239 105.491 952.239 104.584C952.239 103.677 951.973 102.957 951.439 102.424C950.917 101.891 950.293 101.624 949.567 101.624C948.842 101.624 948.213 101.885 947.679 102.408C947.157 102.931 946.895 103.645 946.895 104.552C946.895 105.459 947.157 106.189 947.679 106.744C948.213 107.288 948.842 107.56 949.567 107.56C950.293 107.56 950.917 107.293 951.439 106.76ZM949.183 109.144C948.01 109.144 947.023 108.717 946.223 107.864C945.423 107 945.023 105.901 945.023 104.568C945.023 103.224 945.418 102.136 946.207 101.304C947.007 100.461 947.999 100.04 949.183 100.04C949.877 100.04 950.485 100.2 951.007 100.52C951.541 100.829 951.951 101.24 952.239 101.752V97.16H954.079V109H952.239V107.352C951.941 107.896 951.53 108.333 951.007 108.664C950.485 108.984 949.877 109.144 949.183 109.144ZM960.337 109.144C959.057 109.144 958.017 108.728 957.217 107.896C956.417 107.064 956.017 105.96 956.017 104.584C956.017 103.208 956.422 102.109 957.233 101.288C958.044 100.456 959.089 100.04 960.369 100.04C961.66 100.04 962.705 100.44 963.505 101.24C964.305 102.029 964.705 103.064 964.705 104.344C964.705 104.653 964.684 104.941 964.641 105.208H957.889C957.932 105.944 958.177 106.531 958.625 106.968C959.084 107.395 959.654 107.608 960.337 107.608C961.329 107.608 962.028 107.197 962.433 106.376H964.401C964.134 107.187 963.649 107.853 962.945 108.376C962.241 108.888 961.372 109.144 960.337 109.144ZM962.801 103.96C962.79 103.235 962.55 102.659 962.081 102.232C961.612 101.795 961.041 101.576 960.369 101.576C959.697 101.576 959.132 101.795 958.673 102.232C958.225 102.659 957.969 103.235 957.905 103.96H962.801ZM973.274 100.184L970.426 104.536L973.274 109H971.21L969.306 106.008L967.514 109H965.61L968.458 104.664L965.61 100.184H967.674L969.578 103.176L971.37 100.184H973.274ZM978.496 109.144C977.216 109.144 976.176 108.728 975.376 107.896C974.576 107.064 974.176 105.96 974.176 104.584C974.176 103.208 974.582 102.109 975.392 101.288C976.203 100.456 977.248 100.04 978.528 100.04C979.819 100.04 980.864 100.44 981.664 101.24C982.464 102.029 982.864 103.064 982.864 104.344C982.864 104.653 982.843 104.941 982.8 105.208H976.048C976.091 105.944 976.336 106.531 976.784 106.968C977.243 107.395 977.814 107.608 978.496 107.608C979.488 107.608 980.187 107.197 980.592 106.376H982.56C982.294 107.187 981.808 107.853 981.104 108.376C980.4 108.888 979.531 109.144 978.496 109.144ZM980.96 103.96C980.95 103.235 980.71 102.659 980.24 102.232C979.771 101.795 979.2 101.576 978.528 101.576C977.856 101.576 977.291 101.795 976.832 102.232C976.384 102.659 976.128 103.235 976.064 103.96H980.96ZM986.633 100.184V101.72C987.199 100.6 988.079 100.04 989.273 100.04V101.928H988.809C988.095 101.928 987.551 102.109 987.177 102.472C986.815 102.835 986.633 103.464 986.633 104.36V109H984.809V100.184H986.633Z" fill="white"/>
<rect opacity="0.8" x="1039" width="176" height="48" rx="8" fill="#FBCB67"/>
<path d="M1054.28 17.848C1054.28 18.1787 1054.17 18.456 1053.94 18.68C1053.72 18.904 1053.44 19.016 1053.11 19.016C1052.79 19.016 1052.52 18.904 1052.3 18.68C1052.07 18.456 1051.96 18.1787 1051.96 17.848C1051.96 17.5173 1052.07 17.24 1052.3 17.016C1052.52 16.792 1052.79 16.68 1053.11 16.68C1053.44 16.68 1053.72 16.792 1053.94 17.016C1054.17 17.24 1054.28 17.5173 1054.28 17.848ZM1052.2 29V20.184H1054.02V29H1052.2ZM1058.39 20.184V21.576C1058.98 20.552 1059.92 20.04 1061.21 20.04C1061.89 20.04 1062.5 20.2 1063.03 20.52C1063.57 20.84 1063.97 21.304 1064.25 21.912C1064.56 21.3253 1064.98 20.8667 1065.53 20.536C1066.08 20.2053 1066.71 20.04 1067.4 20.04C1068.41 20.04 1069.25 20.3707 1069.9 21.032C1070.55 21.6827 1070.87 22.6053 1070.87 23.8V29H1069.05V24.072C1069.05 23.2827 1068.85 22.68 1068.46 22.264C1068.06 21.8373 1067.52 21.624 1066.84 21.624C1066.16 21.624 1065.62 21.8373 1065.22 22.264C1064.83 22.68 1064.63 23.2827 1064.63 24.072V29H1062.82V24.072C1062.82 23.2827 1062.63 22.68 1062.23 22.264C1061.84 21.8373 1061.3 21.624 1060.62 21.624C1059.93 21.624 1059.39 21.8373 1058.98 22.264C1058.59 22.68 1058.39 23.2827 1058.39 24.072V29H1056.57V20.184H1058.39ZM1079.15 26.76C1079.69 26.216 1079.95 25.4907 1079.95 24.584C1079.95 23.6773 1079.69 22.9573 1079.15 22.424C1078.63 21.8907 1078.01 21.624 1077.28 21.624C1076.55 21.624 1075.93 21.8853 1075.39 22.408C1074.87 22.9307 1074.61 23.6453 1074.61 24.552C1074.61 25.4587 1074.87 26.1893 1075.39 26.744C1075.93 27.288 1076.55 27.56 1077.28 27.56C1078.01 27.56 1078.63 27.2933 1079.15 26.76ZM1076.9 29.144C1075.72 29.144 1074.74 28.7173 1073.94 27.864C1073.14 27 1072.74 25.9013 1072.74 24.568C1072.74 23.224 1073.13 22.136 1073.92 21.304C1074.72 20.4613 1075.71 20.04 1076.9 20.04C1077.59 20.04 1078.2 20.2 1078.72 20.52C1079.25 20.8293 1079.66 21.24 1079.95 21.752V20.184H1081.79V29H1079.95V27.352C1079.65 27.896 1079.24 28.3333 1078.72 28.664C1078.2 28.984 1077.59 29.144 1076.9 29.144ZM1087.89 29.144C1086.72 29.144 1085.73 28.7173 1084.93 27.864C1084.13 27 1083.73 25.9013 1083.73 24.568C1083.73 23.224 1084.12 22.136 1084.91 21.304C1085.71 20.4613 1086.71 20.04 1087.89 20.04C1088.58 20.04 1089.19 20.2 1089.71 20.52C1090.25 20.8293 1090.66 21.24 1090.95 21.752V20.184H1092.79V29.144C1092.79 30.3813 1092.4 31.3893 1091.63 32.168C1090.88 32.9573 1089.86 33.352 1088.59 33.352C1087.32 33.352 1086.29 33.0693 1085.51 32.504C1084.72 31.9493 1084.27 31.192 1084.16 30.232H1085.97C1086.11 30.6907 1086.4 31.0587 1086.85 31.336C1087.31 31.624 1087.88 31.768 1088.56 31.768C1089.24 31.768 1089.81 31.544 1090.26 31.096C1090.72 30.648 1090.95 29.9973 1090.95 29.144V27.352C1090.65 27.896 1090.24 28.3333 1089.71 28.664C1089.19 28.984 1088.58 29.144 1087.89 29.144ZM1090.15 26.76C1090.68 26.216 1090.95 25.4907 1090.95 24.584C1090.95 23.6773 1090.68 22.9573 1090.15 22.424C1089.62 21.8907 1089 21.624 1088.27 21.624C1087.55 21.624 1086.92 21.8853 1086.39 22.408C1085.86 22.9307 1085.6 23.6453 1085.6 24.552C1085.6 25.4587 1085.86 26.1893 1086.39 26.744C1086.92 27.288 1087.55 27.56 1088.27 27.56C1089 27.56 1089.62 27.2933 1090.15 26.76ZM1099.04 29.144C1097.76 29.144 1096.72 28.728 1095.92 27.896C1095.12 27.064 1094.72 25.96 1094.72 24.584C1094.72 23.208 1095.13 22.1093 1095.94 21.288C1096.75 20.456 1097.8 20.04 1099.08 20.04C1100.37 20.04 1101.41 20.44 1102.21 21.24C1103.01 22.0293 1103.41 23.064 1103.41 24.344C1103.41 24.6533 1103.39 24.9413 1103.35 25.208H1096.6C1096.64 25.944 1096.88 26.5307 1097.33 26.968C1097.79 27.3947 1098.36 27.608 1099.04 27.608C1100.04 27.608 1100.73 27.1973 1101.14 26.376H1103.11C1102.84 27.1867 1102.36 27.8533 1101.65 28.376C1100.95 28.888 1100.08 29.144 1099.04 29.144ZM1101.51 23.96C1101.5 23.2347 1101.26 22.6587 1100.79 22.232C1100.32 21.7947 1099.75 21.576 1099.08 21.576C1098.4 21.576 1097.84 21.7947 1097.38 22.232C1096.93 22.6587 1096.68 23.2347 1096.61 23.96H1101.51ZM1110.43 29.096C1108.84 29.096 1107.49 28.5627 1106.4 27.496C1105.3 26.4293 1104.75 25.0747 1104.75 23.432C1104.75 21.7787 1105.3 20.4187 1106.4 19.352C1107.49 18.2747 1108.84 17.736 1110.43 17.736C1111.61 17.736 1112.66 18.0293 1113.58 18.616C1114.51 19.192 1115.18 20.0133 1115.6 21.08H1113.4C1112.81 19.96 1111.81 19.4 1110.43 19.4C1109.31 19.4 1108.39 19.768 1107.68 20.504C1106.97 21.24 1106.62 22.216 1106.62 23.432C1106.62 24.6373 1106.97 25.608 1107.68 26.344C1108.39 27.08 1109.31 27.448 1110.43 27.448C1111.81 27.448 1112.81 26.888 1113.4 25.768H1115.6C1115.18 26.8347 1114.51 27.656 1113.58 28.232C1112.66 28.808 1111.61 29.096 1110.43 29.096ZM1119.71 17.16V21.576C1120.29 20.552 1121.23 20.04 1122.52 20.04C1123.51 20.04 1124.33 20.3707 1124.97 21.032C1125.62 21.6933 1125.95 22.616 1125.95 23.8V29H1124.14V24.072C1124.14 23.2827 1123.94 22.68 1123.55 22.264C1123.15 21.8373 1122.61 21.624 1121.93 21.624C1121.25 21.624 1120.7 21.8373 1120.3 22.264C1119.9 22.68 1119.71 23.2827 1119.71 24.072V29H1117.88V17.16H1119.71ZM1134.58 20.184H1136.41V29H1134.58V27.608C1134.01 28.6213 1133.07 29.128 1131.77 29.128C1130.77 29.128 1129.95 28.8027 1129.3 28.152C1128.66 27.4907 1128.34 26.568 1128.34 25.384V20.184H1130.15V25.112C1130.15 25.9013 1130.35 26.5093 1130.74 26.936C1131.14 27.352 1131.68 27.56 1132.36 27.56C1133.04 27.56 1133.58 27.352 1133.97 26.936C1134.38 26.5093 1134.58 25.9013 1134.58 25.112V20.184ZM1140.79 20.184V21.576C1141.37 20.552 1142.31 20.04 1143.6 20.04C1144.59 20.04 1145.41 20.3707 1146.05 21.032C1146.7 21.6933 1147.03 22.616 1147.03 23.8V29H1145.22V24.072C1145.22 23.2827 1145.02 22.68 1144.63 22.264C1144.23 21.8373 1143.69 21.624 1143.01 21.624C1142.33 21.624 1141.78 21.8373 1141.38 22.264C1140.98 22.68 1140.79 23.2827 1140.79 24.072V29H1138.96V20.184H1140.79ZM1151.33 29H1149.5V17.16H1151.33V24.04L1154.53 20.184H1157.06L1152.99 24.6L1157.06 29H1154.59L1151.33 25.208V29ZM1160.34 29H1158.51V17.88H1160.34V22.952L1164.66 17.88H1167.04L1162.02 23.464L1167.04 29H1164.64L1160.34 24.024V29ZM1172.08 29L1167.89 17.88H1169.84L1173.12 27.112L1176.44 17.88H1178.37L1174.2 29H1172.08ZM1182.13 17.848C1182.13 18.1787 1182.01 18.456 1181.79 18.68C1181.57 18.904 1181.29 19.016 1180.96 19.016C1180.64 19.016 1180.37 18.904 1180.14 18.68C1179.92 18.456 1179.81 18.1787 1179.81 17.848C1179.81 17.5173 1179.92 17.24 1180.14 17.016C1180.37 16.792 1180.64 16.68 1180.96 16.68C1181.29 16.68 1181.57 16.792 1181.79 17.016C1182.01 17.24 1182.13 17.5173 1182.13 17.848ZM1180.05 29V20.184H1181.87V29H1180.05ZM1190.22 26.76C1190.76 26.216 1191.02 25.4907 1191.02 24.584C1191.02 23.6773 1190.76 22.9573 1190.22 22.424C1189.7 21.8907 1189.08 21.624 1188.35 21.624C1187.63 21.624 1187 21.8853 1186.46 22.408C1185.94 22.9307 1185.68 23.6453 1185.68 24.552C1185.68 25.4587 1185.94 26.1893 1186.46 26.744C1187 27.288 1187.63 27.56 1188.35 27.56C1189.08 27.56 1189.7 27.2933 1190.22 26.76ZM1187.97 29.144C1186.79 29.144 1185.81 28.7173 1185.01 27.864C1184.21 27 1183.81 25.9013 1183.81 24.568C1183.81 23.224 1184.2 22.136 1184.99 21.304C1185.79 20.4613 1186.78 20.04 1187.97 20.04C1188.66 20.04 1189.27 20.2 1189.79 20.52C1190.32 20.8293 1190.74 21.24 1191.02 21.752V17.16H1192.86V29H1191.02V27.352C1190.72 27.896 1190.31 28.3333 1189.79 28.664C1189.27 28.984 1188.66 29.144 1187.97 29.144ZM1202.03 20.184L1199.19 24.536L1202.03 29H1199.97L1198.07 26.008L1196.27 29H1194.37L1197.22 24.664L1194.37 20.184H1196.43L1198.34 23.176L1200.13 20.184H1202.03Z" fill="#333333"/>
<rect opacity="0.8" x="1051" y="80" width="153" height="48" rx="8" fill="#EB6161"/>
<path d="M1068.47 101.672H1066.33V106.552C1066.33 106.883 1066.4 107.123 1066.55 107.272C1066.71 107.411 1066.98 107.48 1067.35 107.48H1068.47V109H1067.03C1065.34 109 1064.49 108.184 1064.49 106.552V101.672H1063.45V100.184H1064.49V97.992H1066.33V100.184H1068.47V101.672ZM1074.02 109.144C1072.74 109.144 1071.7 108.728 1070.9 107.896C1070.1 107.064 1069.7 105.96 1069.7 104.584C1069.7 103.208 1070.1 102.109 1070.91 101.288C1071.72 100.456 1072.77 100.04 1074.05 100.04C1075.34 100.04 1076.38 100.44 1077.18 101.24C1077.98 102.029 1078.38 103.064 1078.38 104.344C1078.38 104.653 1078.36 104.941 1078.32 105.208H1071.57C1071.61 105.944 1071.86 106.531 1072.3 106.968C1072.76 107.395 1073.33 107.608 1074.02 107.608C1075.01 107.608 1075.71 107.197 1076.11 106.376H1078.08C1077.81 107.187 1077.33 107.853 1076.62 108.376C1075.92 108.888 1075.05 109.144 1074.02 109.144ZM1076.48 103.96C1076.47 103.235 1076.23 102.659 1075.76 102.232C1075.29 101.795 1074.72 101.576 1074.05 101.576C1073.38 101.576 1072.81 101.795 1072.35 102.232C1071.9 102.659 1071.65 103.235 1071.58 103.96H1076.48ZM1086.95 100.184L1084.1 104.536L1086.95 109H1084.89L1082.98 106.008L1081.19 109H1079.29L1082.14 104.664L1079.29 100.184H1081.35L1083.26 103.176L1085.05 100.184H1086.95ZM1092.73 101.672H1090.59V106.552C1090.59 106.883 1090.67 107.123 1090.81 107.272C1090.97 107.411 1091.24 107.48 1091.61 107.48H1092.73V109H1091.29C1089.6 109 1088.75 108.184 1088.75 106.552V101.672H1087.71V100.184H1088.75V97.992H1090.59V100.184H1092.73V101.672ZM1099.64 109.096C1098.05 109.096 1096.7 108.563 1095.61 107.496C1094.51 106.429 1093.96 105.075 1093.96 103.432C1093.96 101.779 1094.51 100.419 1095.61 99.352C1096.7 98.2747 1098.05 97.736 1099.64 97.736C1100.82 97.736 1101.87 98.0293 1102.79 98.616C1103.72 99.192 1104.39 100.013 1104.81 101.08H1102.61C1102.02 99.96 1101.02 99.4 1099.64 99.4C1098.52 99.4 1097.6 99.768 1096.89 100.504C1096.18 101.24 1095.83 102.216 1095.83 103.432C1095.83 104.637 1096.18 105.608 1096.89 106.344C1097.6 107.08 1098.52 107.448 1099.64 107.448C1101.02 107.448 1102.02 106.888 1102.61 105.768H1104.81C1104.39 106.835 1103.72 107.656 1102.79 108.232C1101.87 108.808 1100.82 109.096 1099.64 109.096ZM1108.91 97.16V101.576C1109.5 100.552 1110.44 100.04 1111.73 100.04C1112.72 100.04 1113.54 100.371 1114.18 101.032C1114.83 101.693 1115.15 102.616 1115.15 103.8V109H1113.35V104.072C1113.35 103.283 1113.15 102.68 1112.75 102.264C1112.36 101.837 1111.82 101.624 1111.14 101.624C1110.46 101.624 1109.91 101.837 1109.51 102.264C1109.11 102.68 1108.91 103.283 1108.91 104.072V109H1107.09V97.16H1108.91ZM1123.79 100.184H1125.62V109H1123.79V107.608C1123.22 108.621 1122.28 109.128 1120.98 109.128C1119.98 109.128 1119.16 108.803 1118.51 108.152C1117.87 107.491 1117.55 106.568 1117.55 105.384V100.184H1119.36V105.112C1119.36 105.901 1119.56 106.509 1119.95 106.936C1120.35 107.352 1120.88 107.56 1121.57 107.56C1122.25 107.56 1122.79 107.352 1123.18 106.936C1123.59 106.509 1123.79 105.901 1123.79 105.112V100.184ZM1130 100.184V101.576C1130.58 100.552 1131.52 100.04 1132.81 100.04C1133.8 100.04 1134.62 100.371 1135.26 101.032C1135.91 101.693 1136.24 102.616 1136.24 103.8V109H1134.43V104.072C1134.43 103.283 1134.23 102.68 1133.84 102.264C1133.44 101.837 1132.9 101.624 1132.22 101.624C1131.54 101.624 1130.99 101.837 1130.59 102.264C1130.19 102.68 1130 103.283 1130 104.072V109H1128.17V100.184H1130ZM1140.54 109H1138.71V97.16H1140.54V104.04L1143.74 100.184H1146.26L1142.2 104.6L1146.26 109H1143.8L1140.54 105.208V109ZM1149.55 109H1147.72V97.88H1149.55V102.952L1153.87 97.88H1156.25L1151.23 103.464L1156.25 109H1153.85L1149.55 104.024V109ZM1161.29 109L1157.1 97.88H1159.05L1162.33 107.112L1165.64 97.88H1167.58L1163.4 109H1161.29ZM1171.34 97.848C1171.34 98.1787 1171.22 98.456 1171 98.68C1170.78 98.904 1170.5 99.016 1170.17 99.016C1169.85 99.016 1169.58 98.904 1169.35 98.68C1169.13 98.456 1169.02 98.1787 1169.02 97.848C1169.02 97.5173 1169.13 97.24 1169.35 97.016C1169.58 96.792 1169.85 96.68 1170.17 96.68C1170.5 96.68 1170.78 96.792 1171 97.016C1171.22 97.24 1171.34 97.5173 1171.34 97.848ZM1169.26 109V100.184H1171.08V109H1169.26ZM1179.43 106.76C1179.97 106.216 1180.23 105.491 1180.23 104.584C1180.23 103.677 1179.97 102.957 1179.43 102.424C1178.91 101.891 1178.29 101.624 1177.56 101.624C1176.84 101.624 1176.21 101.885 1175.67 102.408C1175.15 102.931 1174.89 103.645 1174.89 104.552C1174.89 105.459 1175.15 106.189 1175.67 106.744C1176.21 107.288 1176.84 107.56 1177.56 107.56C1178.29 107.56 1178.91 107.293 1179.43 106.76ZM1177.18 109.144C1176 109.144 1175.02 108.717 1174.22 107.864C1173.42 107 1173.02 105.901 1173.02 104.568C1173.02 103.224 1173.41 102.136 1174.2 101.304C1175 100.461 1175.99 100.04 1177.18 100.04C1177.87 100.04 1178.48 100.2 1179 100.52C1179.53 100.829 1179.95 101.24 1180.23 101.752V97.16H1182.07V109H1180.23V107.352C1179.93 107.896 1179.52 108.333 1179 108.664C1178.48 108.984 1177.87 109.144 1177.18 109.144ZM1191.24 100.184L1188.39 104.536L1191.24 109H1189.18L1187.27 106.008L1185.48 109H1183.58L1186.43 104.664L1183.58 100.184H1185.64L1187.55 103.176L1189.34 100.184H1191.24Z" fill="white"/>
<rect x="132" y="40" width="206" height="48" rx="8" fill="#009191"/>
<path d="M156.912 57.88V69H155.088V61.384L151.696 69H150.432L147.024 61.384V69H145.2V57.88H147.168L151.072 66.6L154.96 57.88H156.912ZM165.619 60.184H167.443V69H165.619V67.608C165.043 68.6213 164.105 69.128 162.803 69.128C161.811 69.128 160.99 68.8027 160.339 68.152C159.699 67.4907 159.379 66.568 159.379 65.384V60.184H161.187V65.112C161.187 65.9013 161.385 66.5093 161.779 66.936C162.174 67.352 162.713 67.56 163.395 67.56C164.078 67.56 164.617 67.352 165.011 66.936C165.417 66.5093 165.619 65.9013 165.619 65.112V60.184ZM170 69V57.16H171.824V69H170ZM178.641 61.672H176.497V66.552C176.497 66.8827 176.571 67.1227 176.721 67.272C176.881 67.4107 177.147 67.48 177.521 67.48H178.641V69H177.201C175.505 69 174.657 68.184 174.657 66.552V61.672H173.617V60.184H174.657V57.992H176.497V60.184H178.641V61.672ZM182.552 57.848C182.552 58.1787 182.44 58.456 182.216 58.68C181.992 58.904 181.715 59.016 181.384 59.016C181.064 59.016 180.792 58.904 180.568 58.68C180.344 58.456 180.232 58.1787 180.232 57.848C180.232 57.5173 180.344 57.24 180.568 57.016C180.792 56.792 181.064 56.68 181.384 56.68C181.715 56.68 181.992 56.792 182.216 57.016C182.44 57.24 182.552 57.5173 182.552 57.848ZM180.472 69V60.184H182.296V69H180.472ZM196.553 57.88V69H194.729V61.384L191.337 69H190.073L186.665 61.384V69H184.841V57.88H186.809L190.713 66.6L194.601 57.88H196.553ZM204.828 66.808C205.361 66.2747 205.628 65.5333 205.628 64.584C205.628 63.6347 205.367 62.8987 204.844 62.376C204.332 61.8427 203.708 61.576 202.972 61.576C202.236 61.576 201.617 61.8427 201.116 62.376C200.615 62.8987 200.364 63.64 200.364 64.6C200.364 65.5493 200.609 66.2907 201.1 66.824C201.591 67.3467 202.199 67.608 202.924 67.608C203.66 67.608 204.295 67.3413 204.828 66.808ZM202.924 69.144C201.644 69.144 200.588 68.728 199.756 67.896C198.924 67.0533 198.508 65.9547 198.508 64.6C198.508 63.2347 198.935 62.136 199.788 61.304C200.652 60.4613 201.724 60.04 203.004 60.04C204.284 60.04 205.351 60.4613 206.204 61.304C207.068 62.136 207.5 63.2293 207.5 64.584C207.5 65.9387 207.057 67.0373 206.172 67.88C205.297 68.7227 204.215 69.144 202.924 69.144ZM215.261 66.76C215.794 66.216 216.061 65.4907 216.061 64.584C216.061 63.6773 215.794 62.9573 215.261 62.424C214.738 61.8907 214.114 61.624 213.389 61.624C212.664 61.624 212.034 61.8853 211.501 62.408C210.978 62.9307 210.717 63.6453 210.717 64.552C210.717 65.4587 210.978 66.1893 211.501 66.744C212.034 67.288 212.664 67.56 213.389 67.56C214.114 67.56 214.738 67.2933 215.261 66.76ZM213.005 69.144C211.832 69.144 210.845 68.7173 210.045 67.864C209.245 67 208.845 65.9013 208.845 64.568C208.845 63.224 209.24 62.136 210.029 61.304C210.829 60.4613 211.821 60.04 213.005 60.04C213.698 60.04 214.306 60.2 214.829 60.52C215.362 60.8293 215.773 61.24 216.061 61.752V57.16H217.901V69H216.061V67.352C215.762 67.896 215.352 68.3333 214.829 68.664C214.306 68.984 213.698 69.144 213.005 69.144ZM226.255 66.76C226.788 66.216 227.055 65.4907 227.055 64.584C227.055 63.6773 226.788 62.9573 226.255 62.424C225.732 61.8907 225.108 61.624 224.383 61.624C223.658 61.624 223.028 61.8853 222.495 62.408C221.972 62.9307 221.711 63.6453 221.711 64.552C221.711 65.4587 221.972 66.1893 222.495 66.744C223.028 67.288 223.658 67.56 224.383 67.56C225.108 67.56 225.732 67.2933 226.255 66.76ZM223.999 69.144C222.826 69.144 221.839 68.7173 221.039 67.864C220.239 67 219.839 65.9013 219.839 64.568C219.839 63.224 220.234 62.136 221.023 61.304C221.823 60.4613 222.815 60.04 223.999 60.04C224.692 60.04 225.3 60.2 225.823 60.52C226.356 60.8293 226.767 61.24 227.055 61.752V60.184H228.895V69H227.055V67.352C226.756 67.896 226.346 68.3333 225.823 68.664C225.3 68.984 224.692 69.144 223.999 69.144ZM231.441 69V57.16H233.265V69H231.441ZM239.265 59.224C238.721 59.224 238.279 59.3627 237.937 59.64C237.596 59.9173 237.425 60.3227 237.425 60.856C237.425 61.3787 237.628 61.7787 238.033 62.056C238.439 62.3333 238.929 62.536 239.505 62.664C240.081 62.792 240.657 62.9413 241.233 63.112C241.809 63.272 242.3 63.576 242.705 64.024C243.111 64.472 243.313 65.1067 243.313 65.928C243.313 66.7493 242.967 67.4853 242.273 68.136C241.58 68.7867 240.652 69.112 239.489 69.112C238.327 69.112 237.383 68.84 236.657 68.296C235.932 67.752 235.569 67 235.569 66.04H237.521C237.564 66.5307 237.745 66.92 238.065 67.208C238.385 67.496 238.855 67.64 239.473 67.64C240.092 67.64 240.577 67.48 240.929 67.16C241.292 66.84 241.473 66.4613 241.473 66.024C241.473 65.5867 241.361 65.2453 241.137 65C240.924 64.7547 240.641 64.5733 240.289 64.456C239.948 64.328 239.569 64.216 239.153 64.12C238.737 64.024 238.316 63.912 237.889 63.784C237.473 63.656 237.089 63.4907 236.737 63.288C236.396 63.0853 236.113 62.792 235.889 62.408C235.676 62.0133 235.569 61.5333 235.569 60.968C235.569 59.9973 235.916 59.2187 236.609 58.632C237.313 58.0347 238.22 57.736 239.329 57.736C240.449 57.736 241.34 57.992 242.001 58.504C242.673 59.016 243.047 59.7573 243.121 60.728H241.105C241.063 60.3013 240.881 59.944 240.561 59.656C240.241 59.368 239.809 59.224 239.265 59.224ZM249.328 69.144C248.048 69.144 247.008 68.728 246.208 67.896C245.408 67.064 245.008 65.96 245.008 64.584C245.008 63.208 245.413 62.1093 246.224 61.288C247.034 60.456 248.08 60.04 249.36 60.04C250.65 60.04 251.696 60.44 252.496 61.24C253.296 62.0293 253.696 63.064 253.696 64.344C253.696 64.6533 253.674 64.9413 253.632 65.208H246.88C246.922 65.944 247.168 66.5307 247.616 66.968C248.074 67.3947 248.645 67.608 249.328 67.608C250.32 67.608 251.018 67.1973 251.424 66.376H253.392C253.125 67.1867 252.64 67.8533 251.936 68.376C251.232 68.888 250.362 69.144 249.328 69.144ZM251.792 63.96C251.781 63.2347 251.541 62.6587 251.072 62.232C250.602 61.7947 250.032 61.576 249.36 61.576C248.688 61.576 248.122 61.7947 247.664 62.232C247.216 62.6587 246.96 63.2347 246.896 63.96H251.792ZM259.193 69.144C258.019 69.144 257.033 68.7173 256.233 67.864C255.433 67 255.033 65.9013 255.033 64.568C255.033 63.224 255.427 62.136 256.217 61.304C257.017 60.4613 258.009 60.04 259.193 60.04C259.886 60.04 260.494 60.2 261.017 60.52C261.55 60.8293 261.961 61.24 262.249 61.752V60.184H264.089V69.144C264.089 70.3813 263.705 71.3893 262.937 72.168C262.179 72.9573 261.166 73.352 259.897 73.352C258.627 73.352 257.598 73.0693 256.809 72.504C256.019 71.9493 255.571 71.192 255.465 70.232H257.273C257.411 70.6907 257.705 71.0587 258.153 71.336C258.611 71.624 259.182 71.768 259.865 71.768C260.547 71.768 261.113 71.544 261.561 71.096C262.019 70.648 262.249 69.9973 262.249 69.144V67.352C261.95 67.896 261.539 68.3333 261.017 68.664C260.494 68.984 259.886 69.144 259.193 69.144ZM261.449 66.76C261.982 66.216 262.249 65.4907 262.249 64.584C262.249 63.6773 261.982 62.9573 261.449 62.424C260.926 61.8907 260.302 61.624 259.577 61.624C258.851 61.624 258.222 61.8853 257.689 62.408C257.166 62.9307 256.905 63.6453 256.905 64.552C256.905 65.4587 257.166 66.1893 257.689 66.744C258.222 67.288 258.851 67.56 259.577 67.56C260.302 67.56 260.926 67.2933 261.449 66.76ZM268.458 60.184V61.576C269.045 60.552 269.984 60.04 271.274 60.04C271.957 60.04 272.565 60.2 273.098 60.52C273.632 60.84 274.037 61.304 274.314 61.912C274.624 61.3253 275.05 60.8667 275.594 60.536C276.149 60.2053 276.773 60.04 277.466 60.04C278.48 60.04 279.312 60.3707 279.962 61.032C280.613 61.6827 280.938 62.6053 280.938 63.8V69H279.114V64.072C279.114 63.2827 278.917 62.68 278.522 62.264C278.128 61.8373 277.589 61.624 276.906 61.624C276.224 61.624 275.685 61.8373 275.29 62.264C274.896 62.68 274.698 63.2827 274.698 64.072V69H272.89V64.072C272.89 63.2827 272.693 62.68 272.298 62.264C271.904 61.8373 271.365 61.624 270.682 61.624C270 61.624 269.456 61.8373 269.05 62.264C268.656 62.68 268.458 63.2827 268.458 64.072V69H266.634V60.184H268.458ZM287.121 69.144C285.841 69.144 284.801 68.728 284.001 67.896C283.201 67.064 282.801 65.96 282.801 64.584C282.801 63.208 283.207 62.1093 284.017 61.288C284.828 60.456 285.873 60.04 287.153 60.04C288.444 60.04 289.489 60.44 290.289 61.24C291.089 62.0293 291.489 63.064 291.489 64.344C291.489 64.6533 291.468 64.9413 291.425 65.208H284.673C284.716 65.944 284.961 66.5307 285.409 66.968C285.868 67.3947 286.439 67.608 287.121 67.608C288.113 67.608 288.812 67.1973 289.217 66.376H291.185C290.919 67.1867 290.433 67.8533 289.729 68.376C289.025 68.888 288.156 69.144 287.121 69.144ZM289.585 63.96C289.575 63.2347 289.335 62.6587 288.865 62.232C288.396 61.7947 287.825 61.576 287.153 61.576C286.481 61.576 285.916 61.7947 285.457 62.232C285.009 62.6587 284.753 63.2347 284.689 63.96H289.585ZM295.258 60.184V61.576C295.845 60.552 296.784 60.04 298.074 60.04C299.066 60.04 299.882 60.3707 300.522 61.032C301.173 61.6933 301.498 62.616 301.498 63.8V69H299.69V64.072C299.69 63.2827 299.493 62.68 299.098 62.264C298.704 61.8373 298.165 61.624 297.482 61.624C296.8 61.624 296.256 61.8373 295.85 62.264C295.456 62.68 295.258 63.2827 295.258 64.072V69H293.434V60.184H295.258ZM308.247 61.672H306.103V66.552C306.103 66.8827 306.178 67.1227 306.327 67.272C306.487 67.4107 306.754 67.48 307.127 67.48H308.247V69H306.807C305.111 69 304.263 68.184 304.263 66.552V61.672H303.223V60.184H304.263V57.992H306.103V60.184H308.247V61.672ZM313.79 69.144C312.51 69.144 311.47 68.728 310.67 67.896C309.87 67.064 309.47 65.96 309.47 64.584C309.47 63.208 309.875 62.1093 310.686 61.288C311.497 60.456 312.542 60.04 313.822 60.04C315.113 60.04 316.158 60.44 316.958 61.24C317.758 62.0293 318.158 63.064 318.158 64.344C318.158 64.6533 318.137 64.9413 318.094 65.208H311.342C311.385 65.944 311.63 66.5307 312.078 66.968C312.537 67.3947 313.107 67.608 313.79 67.608C314.782 67.608 315.481 67.1973 315.886 66.376H317.854C317.587 67.1867 317.102 67.8533 316.398 68.376C315.694 68.888 314.825 69.144 313.79 69.144ZM316.254 63.96C316.243 63.2347 316.003 62.6587 315.534 62.232C315.065 61.7947 314.494 61.576 313.822 61.576C313.15 61.576 312.585 61.7947 312.126 62.232C311.678 62.6587 311.422 63.2347 311.358 63.96H316.254ZM321.927 60.184V61.72C322.492 60.6 323.372 60.04 324.567 60.04V61.928H324.103C323.388 61.928 322.844 62.1093 322.471 62.472C322.108 62.8347 321.927 63.464 321.927 64.36V69H320.103V60.184H321.927Z" fill="white"/>
<path d="M132 64L127 61.1132V66.8868L132 64ZM96 64.5H127.5V63.5H96V64.5Z" fill="#949596"/>
<path d="M506 24L501 21.1132V26.8868L506 24ZM470 24.5H501.5V23.5H470V24.5Z" fill="#949596"/>
<path d="M658 24L653 21.1132V26.8868L658 24ZM622 24.5H653.5V23.5H622V24.5Z" fill="#949596"/>
<path d="M668 104L663 101.113L663 106.887L668 104ZM613 104.5L663.5 104.5L663.5 103.5L613 103.5L613 104.5Z" fill="#949596"/>
<path d="M248 104L247.5 104L247.5 104.5L248 104.5L248 104ZM516 104L511 101.113L511 106.887L516 104ZM248 104.5L511.5 104.5L511.5 103.5L248 103.5L248 104.5ZM248.5 104L248.5 88L247.5 88L247.5 104L248.5 104Z" fill="#949596"/>
<path d="M833 24L828 21.1132V26.8868L833 24ZM797 24.5H828.5V23.5H797V24.5Z" fill="#949596"/>
<path d="M834 104L829 101.113V106.887L834 104ZM788 104.5L829.5 104.5V103.5L788 103.5V104.5Z" fill="#949596"/>
<path d="M1039 24L1034 21.1132V26.8868L1039 24ZM1003 24.5H1034.5V23.5H1003V24.5Z" fill="#949596"/>
<path d="M1357 64L1352 61.1132V66.8868L1357 64ZM1321 64.5H1352.5V63.5H1321V64.5Z" fill="#949596"/>
<path d="M1475 64L1470 61.1132V66.8868L1475 64ZM1439 64.5H1470.5V63.5H1439V64.5Z" fill="#949596"/>
<path d="M1590 64L1585 61.1132V66.8868L1590 64ZM1554 64.5H1585.5V63.5H1554V64.5Z" fill="#949596"/>
<path d="M1286 24H1286.5V23.5H1286V24ZM1286 40L1288.89 35H1283.11L1286 40ZM1285.5 24V35.5H1286.5V24H1285.5ZM1286 23.5L1215 23.5V24.5L1286 24.5V23.5Z" fill="#949596"/>
<path d="M1286 104H1286.5V104.5H1286V104ZM1286 88L1288.89 93H1283.11L1286 88ZM1285.5 104V92.5H1286.5V104H1285.5ZM1286 104.5H1204V103.5H1286V104.5Z" fill="#949596"/>
<path d="M1051 104L1046 101.113V106.887L1051 104ZM1002 104.5H1046.5V103.5H1002V104.5Z" fill="#949596"/>
<path d="M248.5 24V23.5H248V24H248.5ZM374 24L369 21.1132V26.8868L374 24ZM248.5 24.5H369.5V23.5H248.5V24.5ZM248 24V40H249V24H248Z" fill="#949596"/>
</svg>
