<svg width="1495" height="195" viewBox="0 0 1495 195" fill="none" xmlns="http://www.w3.org/2000/svg">
<rect x="0.5" y="67.5" width="95" height="47" rx="7.5" fill="white" stroke="#009191"/>
<path d="M16.752 96.144C15.5787 96.144 14.592 95.7173 13.792 94.864C12.992 94 12.592 92.9013 12.592 91.568C12.592 90.224 12.9867 89.136 13.776 88.304C14.576 87.4613 15.568 87.04 16.752 87.04C17.4453 87.04 18.0533 87.2 18.576 87.52C19.1093 87.8293 19.52 88.24 19.808 88.752V87.184H21.648V96.144C21.648 97.3813 21.264 98.3893 20.496 99.168C19.7387 99.9573 18.7253 100.352 17.456 100.352C16.1867 100.352 15.1573 100.069 14.368 99.504C13.5787 98.9493 13.1307 98.192 13.024 97.232H14.832C14.9707 97.6907 15.264 98.0587 15.712 98.336C16.1707 98.624 16.7413 98.768 17.424 98.768C18.1067 98.768 18.672 98.544 19.12 98.096C19.5787 97.648 19.808 96.9973 19.808 96.144V94.352C19.5093 94.896 19.0987 95.3333 18.576 95.664C18.0533 95.984 17.4453 96.144 16.752 96.144ZM19.008 93.76C19.5413 93.216 19.808 92.4907 19.808 91.584C19.808 90.6773 19.5413 89.9573 19.008 89.424C18.4853 88.8907 17.8613 88.624 17.136 88.624C16.4107 88.624 15.7813 88.8853 15.248 89.408C14.7253 89.9307 14.464 90.6453 14.464 91.552C14.464 92.4587 14.7253 93.1893 15.248 93.744C15.7813 94.288 16.4107 94.56 17.136 94.56C17.8613 94.56 18.4853 94.2933 19.008 93.76ZM30.0017 93.76C30.5351 93.216 30.8018 92.4907 30.8018 91.584C30.8018 90.6773 30.5351 89.9573 30.0017 89.424C29.4791 88.8907 28.8551 88.624 28.1297 88.624C27.4044 88.624 26.7751 88.8853 26.2417 89.408C25.7191 89.9307 25.4577 90.6453 25.4577 91.552C25.4577 92.4587 25.7191 93.1893 26.2417 93.744C26.7751 94.288 27.4044 94.56 28.1297 94.56C28.8551 94.56 29.4791 94.2933 30.0017 93.76ZM27.7457 96.144C26.5724 96.144 25.5857 95.7173 24.7857 94.864C23.9857 94 23.5857 92.9013 23.5857 91.568C23.5857 90.224 23.9804 89.136 24.7697 88.304C25.5697 87.4613 26.5617 87.04 27.7457 87.04C28.4391 87.04 29.0471 87.2 29.5697 87.52C30.1031 87.8293 30.5138 88.24 30.8018 88.752V87.184H32.6418V96H30.8018V94.352C30.5031 94.896 30.0924 95.3333 29.5697 95.664C29.0471 95.984 28.4391 96.144 27.7457 96.144ZM39.4595 88.672H37.3155V93.552C37.3155 93.8827 37.3902 94.1227 37.5395 94.272C37.6995 94.4107 37.9662 94.48 38.3395 94.48H39.4595V96H38.0195C36.3235 96 35.4755 95.184 35.4755 93.552V88.672H34.4355V87.184H35.4755V84.992H37.3155V87.184H39.4595V88.672ZM45.0026 96.144C43.7226 96.144 42.6826 95.728 41.8826 94.896C41.0826 94.064 40.6826 92.96 40.6826 91.584C40.6826 90.208 41.088 89.1093 41.8986 88.288C42.7093 87.456 43.7546 87.04 45.0346 87.04C46.3253 87.04 47.3706 87.44 48.1706 88.24C48.9706 89.0293 49.3706 90.064 49.3706 91.344C49.3706 91.6533 49.3493 91.9413 49.3066 92.208H42.5546C42.5973 92.944 42.8426 93.5307 43.2906 93.968C43.7493 94.3947 44.32 94.608 45.0026 94.608C45.9946 94.608 46.6933 94.1973 47.0986 93.376H49.0666C48.8 94.1867 48.3146 94.8533 47.6106 95.376C46.9066 95.888 46.0373 96.144 45.0026 96.144ZM47.4666 90.96C47.456 90.2347 47.216 89.6587 46.7466 89.232C46.2773 88.7947 45.7066 88.576 45.0346 88.576C44.3626 88.576 43.7973 88.7947 43.3386 89.232C42.8906 89.6587 42.6346 90.2347 42.5706 90.96H47.4666ZM61.3636 87.184H63.1556L60.4196 96H58.4996L56.7236 89.488L54.9476 96H53.0276L50.2756 87.184H52.1316L53.9716 94.272L55.8436 87.184H57.7476L59.5396 94.24L61.3636 87.184ZM70.4768 93.76C71.0101 93.216 71.2768 92.4907 71.2768 91.584C71.2768 90.6773 71.0101 89.9573 70.4768 89.424C69.9541 88.8907 69.3301 88.624 68.6048 88.624C67.8794 88.624 67.2501 88.8853 66.7168 89.408C66.1941 89.9307 65.9328 90.6453 65.9328 91.552C65.9328 92.4587 66.1941 93.1893 66.7168 93.744C67.2501 94.288 67.8794 94.56 68.6048 94.56C69.3301 94.56 69.9541 94.2933 70.4768 93.76ZM68.2208 96.144C67.0474 96.144 66.0608 95.7173 65.2608 94.864C64.4608 94 64.0608 92.9013 64.0608 91.568C64.0608 90.224 64.4554 89.136 65.2448 88.304C66.0448 87.4613 67.0368 87.04 68.2208 87.04C68.9141 87.04 69.5221 87.2 70.0448 87.52C70.5781 87.8293 70.9888 88.24 71.2768 88.752V87.184H73.1168V96H71.2768V94.352C70.9781 94.896 70.5674 95.3333 70.0448 95.664C69.5221 95.984 68.9141 96.144 68.2208 96.144ZM78.0945 95.856L74.6225 87.184H76.6545L79.1345 93.904L81.7105 87.184H83.5985L78.1905 100.144H76.3025L78.0945 95.856Z" fill="#009191"/>
<rect x="1399.5" y="67.5" width="95" height="47" rx="7.5" fill="white" stroke="#009191"/>
<path d="M1415.75 96.144C1414.58 96.144 1413.59 95.7173 1412.79 94.864C1411.99 94 1411.59 92.9013 1411.59 91.568C1411.59 90.224 1411.99 89.136 1412.78 88.304C1413.58 87.4613 1414.57 87.04 1415.75 87.04C1416.45 87.04 1417.05 87.2 1417.58 87.52C1418.11 87.8293 1418.52 88.24 1418.81 88.752V87.184H1420.65V96.144C1420.65 97.3813 1420.26 98.3893 1419.5 99.168C1418.74 99.9573 1417.73 100.352 1416.46 100.352C1415.19 100.352 1414.16 100.069 1413.37 99.504C1412.58 98.9493 1412.13 98.192 1412.02 97.232H1413.83C1413.97 97.6907 1414.26 98.0587 1414.71 98.336C1415.17 98.624 1415.74 98.768 1416.42 98.768C1417.11 98.768 1417.67 98.544 1418.12 98.096C1418.58 97.648 1418.81 96.9973 1418.81 96.144V94.352C1418.51 94.896 1418.1 95.3333 1417.58 95.664C1417.05 95.984 1416.45 96.144 1415.75 96.144ZM1418.01 93.76C1418.54 93.216 1418.81 92.4907 1418.81 91.584C1418.81 90.6773 1418.54 89.9573 1418.01 89.424C1417.49 88.8907 1416.86 88.624 1416.14 88.624C1415.41 88.624 1414.78 88.8853 1414.25 89.408C1413.73 89.9307 1413.46 90.6453 1413.46 91.552C1413.46 92.4587 1413.73 93.1893 1414.25 93.744C1414.78 94.288 1415.41 94.56 1416.14 94.56C1416.86 94.56 1417.49 94.2933 1418.01 93.76ZM1429 93.76C1429.54 93.216 1429.8 92.4907 1429.8 91.584C1429.8 90.6773 1429.54 89.9573 1429 89.424C1428.48 88.8907 1427.86 88.624 1427.13 88.624C1426.4 88.624 1425.78 88.8853 1425.24 89.408C1424.72 89.9307 1424.46 90.6453 1424.46 91.552C1424.46 92.4587 1424.72 93.1893 1425.24 93.744C1425.78 94.288 1426.4 94.56 1427.13 94.56C1427.86 94.56 1428.48 94.2933 1429 93.76ZM1426.75 96.144C1425.57 96.144 1424.59 95.7173 1423.79 94.864C1422.99 94 1422.59 92.9013 1422.59 91.568C1422.59 90.224 1422.98 89.136 1423.77 88.304C1424.57 87.4613 1425.56 87.04 1426.75 87.04C1427.44 87.04 1428.05 87.2 1428.57 87.52C1429.1 87.8293 1429.51 88.24 1429.8 88.752V87.184H1431.64V96H1429.8V94.352C1429.5 94.896 1429.09 95.3333 1428.57 95.664C1428.05 95.984 1427.44 96.144 1426.75 96.144ZM1438.46 88.672H1436.32V93.552C1436.32 93.8827 1436.39 94.1227 1436.54 94.272C1436.7 94.4107 1436.97 94.48 1437.34 94.48H1438.46V96H1437.02C1435.32 96 1434.48 95.184 1434.48 93.552V88.672H1433.44V87.184H1434.48V84.992H1436.32V87.184H1438.46V88.672ZM1444 96.144C1442.72 96.144 1441.68 95.728 1440.88 94.896C1440.08 94.064 1439.68 92.96 1439.68 91.584C1439.68 90.208 1440.09 89.1093 1440.9 88.288C1441.71 87.456 1442.75 87.04 1444.03 87.04C1445.33 87.04 1446.37 87.44 1447.17 88.24C1447.97 89.0293 1448.37 90.064 1448.37 91.344C1448.37 91.6533 1448.35 91.9413 1448.31 92.208H1441.55C1441.6 92.944 1441.84 93.5307 1442.29 93.968C1442.75 94.3947 1443.32 94.608 1444 94.608C1444.99 94.608 1445.69 94.1973 1446.1 93.376H1448.07C1447.8 94.1867 1447.31 94.8533 1446.61 95.376C1445.91 95.888 1445.04 96.144 1444 96.144ZM1446.47 90.96C1446.46 90.2347 1446.22 89.6587 1445.75 89.232C1445.28 88.7947 1444.71 88.576 1444.03 88.576C1443.36 88.576 1442.8 88.7947 1442.34 89.232C1441.89 89.6587 1441.63 90.2347 1441.57 90.96H1446.47ZM1460.36 87.184H1462.16L1459.42 96H1457.5L1455.72 89.488L1453.95 96H1452.03L1449.28 87.184H1451.13L1452.97 94.272L1454.84 87.184H1456.75L1458.54 94.24L1460.36 87.184ZM1469.48 93.76C1470.01 93.216 1470.28 92.4907 1470.28 91.584C1470.28 90.6773 1470.01 89.9573 1469.48 89.424C1468.95 88.8907 1468.33 88.624 1467.6 88.624C1466.88 88.624 1466.25 88.8853 1465.72 89.408C1465.19 89.9307 1464.93 90.6453 1464.93 91.552C1464.93 92.4587 1465.19 93.1893 1465.72 93.744C1466.25 94.288 1466.88 94.56 1467.6 94.56C1468.33 94.56 1468.95 94.2933 1469.48 93.76ZM1467.22 96.144C1466.05 96.144 1465.06 95.7173 1464.26 94.864C1463.46 94 1463.06 92.9013 1463.06 91.568C1463.06 90.224 1463.46 89.136 1464.24 88.304C1465.04 87.4613 1466.04 87.04 1467.22 87.04C1467.91 87.04 1468.52 87.2 1469.04 87.52C1469.58 87.8293 1469.99 88.24 1470.28 88.752V87.184H1472.12V96H1470.28V94.352C1469.98 94.896 1469.57 95.3333 1469.04 95.664C1468.52 95.984 1467.91 96.144 1467.22 96.144ZM1477.09 95.856L1473.62 87.184H1475.65L1478.13 93.904L1480.71 87.184H1482.6L1477.19 100.144H1475.3L1477.09 95.856Z" fill="#009191"/>
<rect opacity="0.8" x="433" y="67" width="96" height="48" rx="8" fill="#FBCB67"/>
<path d="M446.2 96V84.88H448.024V96H446.2ZM452.393 87.184V88.576C452.979 87.552 453.918 87.04 455.209 87.04C455.891 87.04 456.499 87.2 457.033 87.52C457.566 87.84 457.971 88.304 458.249 88.912C458.558 88.3253 458.985 87.8667 459.529 87.536C460.083 87.2053 460.707 87.04 461.401 87.04C462.414 87.04 463.246 87.3707 463.897 88.032C464.547 88.6827 464.873 89.6053 464.873 90.8V96H463.049V91.072C463.049 90.2827 462.851 89.68 462.457 89.264C462.062 88.8373 461.523 88.624 460.841 88.624C460.158 88.624 459.619 88.8373 459.225 89.264C458.83 89.68 458.633 90.2827 458.633 91.072V96H456.825V91.072C456.825 90.2827 456.627 89.68 456.233 89.264C455.838 88.8373 455.299 88.624 454.617 88.624C453.934 88.624 453.39 88.8373 452.985 89.264C452.59 89.68 452.393 90.2827 452.393 91.072V96H450.569V87.184H452.393ZM470.896 96.144C469.722 96.144 468.736 95.7173 467.936 94.864C467.136 94 466.736 92.9013 466.736 91.568C466.736 90.224 467.13 89.136 467.92 88.304C468.72 87.4613 469.712 87.04 470.896 87.04C471.589 87.04 472.197 87.2 472.72 87.52C473.253 87.8293 473.664 88.24 473.952 88.752V87.184H475.792V96.144C475.792 97.3813 475.408 98.3893 474.64 99.168C473.882 99.9573 472.869 100.352 471.6 100.352C470.33 100.352 469.301 100.069 468.512 99.504C467.722 98.9493 467.274 98.192 467.168 97.232H468.976C469.114 97.6907 469.408 98.0587 469.856 98.336C470.314 98.624 470.885 98.768 471.568 98.768C472.25 98.768 472.816 98.544 473.264 98.096C473.722 97.648 473.952 96.9973 473.952 96.144V94.352C473.653 94.896 473.242 95.3333 472.72 95.664C472.197 95.984 471.589 96.144 470.896 96.144ZM473.152 93.76C473.685 93.216 473.952 92.4907 473.952 91.584C473.952 90.6773 473.685 89.9573 473.152 89.424C472.629 88.8907 472.005 88.624 471.28 88.624C470.554 88.624 469.925 88.8853 469.392 89.408C468.869 89.9307 468.608 90.6453 468.608 91.552C468.608 92.4587 468.869 93.1893 469.392 93.744C469.925 94.288 470.554 94.56 471.28 94.56C472.005 94.56 472.629 94.2933 473.152 93.76ZM478.338 96V84.88H484.882V86.304H480.162V89.68H483.842V91.088H480.162V96H478.338ZM488.802 84.848C488.802 85.1787 488.69 85.456 488.466 85.68C488.242 85.904 487.965 86.016 487.634 86.016C487.314 86.016 487.042 85.904 486.818 85.68C486.594 85.456 486.482 85.1787 486.482 84.848C486.482 84.5173 486.594 84.24 486.818 84.016C487.042 83.792 487.314 83.68 487.634 83.68C487.965 83.68 488.242 83.792 488.466 84.016C488.69 84.24 488.802 84.5173 488.802 84.848ZM486.722 96V87.184H488.546V96H486.722ZM491.091 96V84.16H492.915V96H491.091ZM499.731 88.672H497.587V93.552C497.587 93.8827 497.662 94.1227 497.811 94.272C497.971 94.4107 498.238 94.48 498.611 94.48H499.731V96H498.291C496.595 96 495.747 95.184 495.747 93.552V88.672H494.707V87.184H495.747V84.992H497.587V87.184H499.731V88.672ZM505.274 96.144C503.994 96.144 502.954 95.728 502.154 94.896C501.354 94.064 500.954 92.96 500.954 91.584C500.954 90.208 501.36 89.1093 502.17 88.288C502.981 87.456 504.026 87.04 505.306 87.04C506.597 87.04 507.642 87.44 508.442 88.24C509.242 89.0293 509.642 90.064 509.642 91.344C509.642 91.6533 509.621 91.9413 509.578 92.208H502.826C502.869 92.944 503.114 93.5307 503.562 93.968C504.021 94.3947 504.592 94.608 505.274 94.608C506.266 94.608 506.965 94.1973 507.37 93.376H509.339C509.072 94.1867 508.586 94.8533 507.882 95.376C507.178 95.888 506.309 96.144 505.274 96.144ZM507.738 90.96C507.728 90.2347 507.488 89.6587 507.018 89.232C506.549 88.7947 505.978 88.576 505.306 88.576C504.634 88.576 504.069 88.7947 503.61 89.232C503.162 89.6587 502.906 90.2347 502.842 90.96H507.738ZM513.411 87.184V88.72C513.977 87.6 514.857 87.04 516.051 87.04V88.928H515.587C514.873 88.928 514.329 89.1093 513.955 89.472C513.593 89.8347 513.411 90.464 513.411 91.36V96H511.587V87.184H513.411Z" fill="#333333"/>
<rect opacity="0.8" x="565" y="67" width="114" height="48" rx="8" fill="#FBCB67"/>
<path d="M578.2 96V84.88H580.024V96H578.2ZM584.393 87.184V88.576C584.979 87.552 585.918 87.04 587.209 87.04C587.891 87.04 588.499 87.2 589.033 87.52C589.566 87.84 589.971 88.304 590.249 88.912C590.558 88.3253 590.985 87.8667 591.529 87.536C592.083 87.2053 592.707 87.04 593.401 87.04C594.414 87.04 595.246 87.3707 595.897 88.032C596.547 88.6827 596.873 89.6053 596.873 90.8V96H595.049V91.072C595.049 90.2827 594.851 89.68 594.457 89.264C594.062 88.8373 593.523 88.624 592.841 88.624C592.158 88.624 591.619 88.8373 591.225 89.264C590.83 89.68 590.633 90.2827 590.633 91.072V96H588.825V91.072C588.825 90.2827 588.627 89.68 588.233 89.264C587.838 88.8373 587.299 88.624 586.617 88.624C585.934 88.624 585.39 88.8373 584.985 89.264C584.59 89.68 584.393 90.2827 584.393 91.072V96H582.569V87.184H584.393ZM602.896 96.144C601.722 96.144 600.736 95.7173 599.936 94.864C599.136 94 598.736 92.9013 598.736 91.568C598.736 90.224 599.13 89.136 599.92 88.304C600.72 87.4613 601.712 87.04 602.896 87.04C603.589 87.04 604.197 87.2 604.72 87.52C605.253 87.8293 605.664 88.24 605.952 88.752V87.184H607.792V96.144C607.792 97.3813 607.408 98.3893 606.64 99.168C605.882 99.9573 604.869 100.352 603.6 100.352C602.33 100.352 601.301 100.069 600.512 99.504C599.722 98.9493 599.274 98.192 599.168 97.232H600.976C601.114 97.6907 601.408 98.0587 601.856 98.336C602.314 98.624 602.885 98.768 603.568 98.768C604.25 98.768 604.816 98.544 605.264 98.096C605.722 97.648 605.952 96.9973 605.952 96.144V94.352C605.653 94.896 605.242 95.3333 604.72 95.664C604.197 95.984 603.589 96.144 602.896 96.144ZM605.152 93.76C605.685 93.216 605.952 92.4907 605.952 91.584C605.952 90.6773 605.685 89.9573 605.152 89.424C604.629 88.8907 604.005 88.624 603.28 88.624C602.554 88.624 601.925 88.8853 601.392 89.408C600.869 89.9307 600.608 90.6453 600.608 91.552C600.608 92.4587 600.869 93.1893 601.392 93.744C601.925 94.288 602.554 94.56 603.28 94.56C604.005 94.56 604.629 94.2933 605.152 93.76ZM615.41 96.096C613.82 96.096 612.476 95.5627 611.378 94.496C610.279 93.4293 609.73 92.0747 609.73 90.432C609.73 88.7787 610.279 87.4187 611.378 86.352C612.476 85.2747 613.82 84.736 615.41 84.736C616.594 84.736 617.644 85.0293 618.562 85.616C619.49 86.192 620.162 87.0133 620.578 88.08H618.386C617.788 86.96 616.796 86.4 615.41 86.4C614.29 86.4 613.372 86.768 612.658 87.504C611.954 88.24 611.602 89.216 611.602 90.432C611.602 91.6373 611.954 92.608 612.658 93.344C613.372 94.08 614.29 94.448 615.41 94.448C616.796 94.448 617.788 93.888 618.386 92.768H620.578C620.162 93.8347 619.49 94.656 618.562 95.232C617.644 95.808 616.594 96.096 615.41 96.096ZM624.686 87.184V88.72C625.252 87.6 626.132 87.04 627.326 87.04V88.928H626.862C626.148 88.928 625.604 89.1093 625.23 89.472C624.868 89.8347 624.686 90.464 624.686 91.36V96H622.862V87.184H624.686ZM634.961 93.76C635.494 93.216 635.761 92.4907 635.761 91.584C635.761 90.6773 635.494 89.9573 634.961 89.424C634.438 88.8907 633.814 88.624 633.089 88.624C632.364 88.624 631.734 88.8853 631.201 89.408C630.678 89.9307 630.417 90.6453 630.417 91.552C630.417 92.4587 630.678 93.1893 631.201 93.744C631.734 94.288 632.364 94.56 633.089 94.56C633.814 94.56 634.438 94.2933 634.961 93.76ZM632.705 96.144C631.532 96.144 630.545 95.7173 629.745 94.864C628.945 94 628.545 92.9013 628.545 91.568C628.545 90.224 628.94 89.136 629.729 88.304C630.529 87.4613 631.521 87.04 632.705 87.04C633.398 87.04 634.006 87.2 634.529 87.52C635.062 87.8293 635.473 88.24 635.761 88.752V87.184H637.601V96H635.761V94.352C635.462 94.896 635.052 95.3333 634.529 95.664C634.006 95.984 633.398 96.144 632.705 96.144ZM643.843 87.184V88.672H642.211V96H640.371V88.672H639.331V87.184H640.371V86.56C640.371 85.5467 640.638 84.8107 641.171 84.352C641.715 83.8827 642.563 83.648 643.715 83.648V85.168C643.16 85.168 642.771 85.2747 642.547 85.488C642.323 85.6907 642.211 86.048 642.211 86.56V87.184H643.843ZM649.881 88.672H647.737V93.552C647.737 93.8827 647.812 94.1227 647.961 94.272C648.121 94.4107 648.388 94.48 648.761 94.48H649.881V96H648.441C646.745 96 645.897 95.184 645.897 93.552V88.672H644.857V87.184H645.897V84.992H647.737V87.184H649.881V88.672ZM655.424 96.144C654.144 96.144 653.104 95.728 652.304 94.896C651.504 94.064 651.104 92.96 651.104 91.584C651.104 90.208 651.51 89.1093 652.32 88.288C653.131 87.456 654.176 87.04 655.456 87.04C656.747 87.04 657.792 87.44 658.592 88.24C659.392 89.0293 659.792 90.064 659.792 91.344C659.792 91.6533 659.771 91.9413 659.728 92.208H652.976C653.019 92.944 653.264 93.5307 653.712 93.968C654.171 94.3947 654.742 94.608 655.424 94.608C656.416 94.608 657.115 94.1973 657.52 93.376H659.488C659.222 94.1867 658.736 94.8533 658.032 95.376C657.328 95.888 656.459 96.144 655.424 96.144ZM657.888 90.96C657.878 90.2347 657.638 89.6587 657.168 89.232C656.699 88.7947 656.128 88.576 655.456 88.576C654.784 88.576 654.219 88.7947 653.76 89.232C653.312 89.6587 653.056 90.2347 652.992 90.96H657.888ZM663.561 87.184V88.72C664.127 87.6 665.007 87.04 666.201 87.04V88.928H665.737C665.023 88.928 664.479 89.1093 664.105 89.472C663.743 89.8347 663.561 90.464 663.561 91.36V96H661.737V87.184H663.561Z" fill="#333333"/>
<rect opacity="0.8" x="574" y="147" width="97" height="48" rx="8" fill="#EB6161"/>
<path d="M586.624 166.304V164.88H594.384V166.304H591.424V176H589.6V166.304H586.624ZM600.093 176.144C598.813 176.144 597.773 175.728 596.973 174.896C596.173 174.064 595.773 172.96 595.773 171.584C595.773 170.208 596.179 169.109 596.989 168.288C597.8 167.456 598.845 167.04 600.125 167.04C601.416 167.04 602.461 167.44 603.261 168.24C604.061 169.029 604.461 170.064 604.461 171.344C604.461 171.653 604.44 171.941 604.397 172.208H597.645C597.688 172.944 597.933 173.531 598.381 173.968C598.84 174.395 599.411 174.608 600.093 174.608C601.085 174.608 601.784 174.197 602.189 173.376H604.157C603.891 174.187 603.405 174.853 602.701 175.376C601.997 175.888 601.128 176.144 600.093 176.144ZM602.557 170.96C602.547 170.235 602.307 169.659 601.837 169.232C601.368 168.795 600.797 168.576 600.125 168.576C599.453 168.576 598.888 168.795 598.429 169.232C597.981 169.659 597.725 170.235 597.661 170.96H602.557ZM613.03 167.184L610.182 171.536L613.03 176H610.966L609.062 173.008L607.27 176H605.366L608.214 171.664L605.366 167.184H607.43L609.334 170.176L611.126 167.184H613.03ZM618.813 168.672H616.669V173.552C616.669 173.883 616.743 174.123 616.893 174.272C617.053 174.411 617.319 174.48 617.693 174.48H618.813V176H617.373C615.677 176 614.829 175.184 614.829 173.552V168.672H613.789V167.184H614.829V164.992H616.669V167.184H618.813V168.672ZM620.644 176V164.88H627.188V166.304H622.468V169.68H626.148V171.088H622.468V176H620.644ZM631.108 164.848C631.108 165.179 630.996 165.456 630.772 165.68C630.548 165.904 630.271 166.016 629.94 166.016C629.62 166.016 629.348 165.904 629.124 165.68C628.9 165.456 628.788 165.179 628.788 164.848C628.788 164.517 628.9 164.24 629.124 164.016C629.348 163.792 629.62 163.68 629.94 163.68C630.271 163.68 630.548 163.792 630.772 164.016C630.996 164.24 631.108 164.517 631.108 164.848ZM629.028 176V167.184H630.852V176H629.028ZM633.397 176V164.16H635.221V176H633.397ZM642.038 168.672H639.894V173.552C639.894 173.883 639.968 174.123 640.118 174.272C640.278 174.411 640.544 174.48 640.918 174.48H642.038V176H640.598C638.902 176 638.054 175.184 638.054 173.552V168.672H637.014V167.184H638.054V164.992H639.894V167.184H642.038V168.672ZM647.581 176.144C646.301 176.144 645.261 175.728 644.461 174.896C643.661 174.064 643.261 172.96 643.261 171.584C643.261 170.208 643.666 169.109 644.477 168.288C645.287 167.456 646.333 167.04 647.613 167.04C648.903 167.04 649.949 167.44 650.749 168.24C651.549 169.029 651.949 170.064 651.949 171.344C651.949 171.653 651.927 171.941 651.885 172.208H645.133C645.175 172.944 645.421 173.531 645.869 173.968C646.327 174.395 646.898 174.608 647.581 174.608C648.573 174.608 649.271 174.197 649.677 173.376H651.645C651.378 174.187 650.893 174.853 650.189 175.376C649.485 175.888 648.615 176.144 647.581 176.144ZM650.045 170.96C650.034 170.235 649.794 169.659 649.325 169.232C648.855 168.795 648.285 168.576 647.613 168.576C646.941 168.576 646.375 168.795 645.917 169.232C645.469 169.659 645.213 170.235 645.149 170.96H650.045ZM655.718 167.184V168.72C656.283 167.6 657.163 167.04 658.358 167.04V168.928H657.894C657.179 168.928 656.635 169.109 656.262 169.472C655.899 169.835 655.718 170.464 655.718 171.36V176H653.894V167.184H655.718Z" fill="#333333"/>
<rect opacity="0.8" x="715" y="147" width="124" height="48" rx="8" fill="#EB6161"/>
<path d="M727.624 166.304V164.88H735.384V166.304H732.424V176H730.6V166.304H727.624ZM741.093 176.144C739.813 176.144 738.773 175.728 737.973 174.896C737.173 174.064 736.773 172.96 736.773 171.584C736.773 170.208 737.179 169.109 737.989 168.288C738.8 167.456 739.845 167.04 741.125 167.04C742.416 167.04 743.461 167.44 744.261 168.24C745.061 169.029 745.461 170.064 745.461 171.344C745.461 171.653 745.44 171.941 745.397 172.208H738.645C738.688 172.944 738.933 173.531 739.381 173.968C739.84 174.395 740.411 174.608 741.093 174.608C742.085 174.608 742.784 174.197 743.189 173.376H745.157C744.891 174.187 744.405 174.853 743.701 175.376C742.997 175.888 742.128 176.144 741.093 176.144ZM743.557 170.96C743.547 170.235 743.307 169.659 742.837 169.232C742.368 168.795 741.797 168.576 741.125 168.576C740.453 168.576 739.888 168.795 739.429 169.232C738.981 169.659 738.725 170.235 738.661 170.96H743.557ZM754.03 167.184L751.182 171.536L754.03 176H751.966L750.062 173.008L748.27 176H746.366L749.214 171.664L746.366 167.184H748.43L750.334 170.176L752.126 167.184H754.03ZM759.813 168.672H757.669V173.552C757.669 173.883 757.743 174.123 757.893 174.272C758.053 174.411 758.319 174.48 758.693 174.48H759.813V176H758.373C756.677 176 755.829 175.184 755.829 173.552V168.672H754.789V167.184H755.829V164.992H757.669V167.184H759.813V168.672ZM767.788 164.864V166.288H763.468V169.664H767.308V171.072H763.468V174.576H767.788V176H761.644V164.864H767.788ZM772.008 167.184V168.576C772.595 167.552 773.534 167.04 774.824 167.04C775.816 167.04 776.632 167.371 777.272 168.032C777.923 168.693 778.248 169.616 778.248 170.8V176H776.44V171.072C776.44 170.283 776.243 169.68 775.848 169.264C775.454 168.837 774.915 168.624 774.232 168.624C773.55 168.624 773.006 168.837 772.6 169.264C772.206 169.68 772.008 170.283 772.008 171.072V176H770.184V167.184H772.008ZM784.437 176.144C783.157 176.144 782.117 175.728 781.317 174.896C780.517 174.064 780.117 172.965 780.117 171.6C780.117 170.224 780.517 169.12 781.317 168.288C782.128 167.456 783.168 167.04 784.437 167.04C785.504 167.04 786.384 167.296 787.077 167.808C787.781 168.309 788.256 169.029 788.501 169.968H786.533C786.202 169.04 785.504 168.576 784.437 168.576C783.69 168.576 783.093 168.843 782.645 169.376C782.208 169.899 781.989 170.635 781.989 171.584C781.989 172.533 782.208 173.275 782.645 173.808C783.093 174.341 783.69 174.608 784.437 174.608C785.493 174.608 786.192 174.144 786.533 173.216H788.501C788.245 174.112 787.765 174.827 787.061 175.36C786.357 175.883 785.482 176.144 784.437 176.144ZM796.197 173.808C796.73 173.275 796.997 172.533 796.997 171.584C796.997 170.635 796.735 169.899 796.213 169.376C795.701 168.843 795.077 168.576 794.341 168.576C793.605 168.576 792.986 168.843 792.485 169.376C791.983 169.899 791.733 170.64 791.733 171.6C791.733 172.549 791.978 173.291 792.469 173.824C792.959 174.347 793.567 174.608 794.293 174.608C795.029 174.608 795.663 174.341 796.197 173.808ZM794.293 176.144C793.013 176.144 791.957 175.728 791.125 174.896C790.293 174.053 789.877 172.955 789.877 171.6C789.877 170.235 790.303 169.136 791.157 168.304C792.021 167.461 793.093 167.04 794.373 167.04C795.653 167.04 796.719 167.461 797.573 168.304C798.437 169.136 798.869 170.229 798.869 171.584C798.869 172.939 798.426 174.037 797.541 174.88C796.666 175.723 795.583 176.144 794.293 176.144ZM806.63 173.76C807.163 173.216 807.43 172.491 807.43 171.584C807.43 170.677 807.163 169.957 806.63 169.424C806.107 168.891 805.483 168.624 804.758 168.624C804.033 168.624 803.403 168.885 802.87 169.408C802.347 169.931 802.086 170.645 802.086 171.552C802.086 172.459 802.347 173.189 802.87 173.744C803.403 174.288 804.033 174.56 804.758 174.56C805.483 174.56 806.107 174.293 806.63 173.76ZM804.374 176.144C803.201 176.144 802.214 175.717 801.414 174.864C800.614 174 800.214 172.901 800.214 171.568C800.214 170.224 800.609 169.136 801.398 168.304C802.198 167.461 803.19 167.04 804.374 167.04C805.067 167.04 805.675 167.2 806.198 167.52C806.731 167.829 807.142 168.24 807.43 168.752V164.16H809.27V176H807.43V174.352C807.131 174.896 806.721 175.333 806.198 175.664C805.675 175.984 805.067 176.144 804.374 176.144ZM815.528 176.144C814.248 176.144 813.208 175.728 812.408 174.896C811.608 174.064 811.208 172.96 811.208 171.584C811.208 170.208 811.613 169.109 812.424 168.288C813.234 167.456 814.28 167.04 815.56 167.04C816.85 167.04 817.896 167.44 818.696 168.24C819.496 169.029 819.896 170.064 819.896 171.344C819.896 171.653 819.874 171.941 819.832 172.208H813.08C813.122 172.944 813.368 173.531 813.816 173.968C814.274 174.395 814.845 174.608 815.528 174.608C816.52 174.608 817.218 174.197 817.624 173.376H819.592C819.325 174.187 818.84 174.853 818.136 175.376C817.432 175.888 816.562 176.144 815.528 176.144ZM817.992 170.96C817.981 170.235 817.741 169.659 817.272 169.232C816.802 168.795 816.232 168.576 815.56 168.576C814.888 168.576 814.322 168.795 813.864 169.232C813.416 169.659 813.16 170.235 813.096 170.96H817.992ZM823.665 167.184V168.72C824.23 167.6 825.11 167.04 826.305 167.04V168.928H825.841C825.126 168.928 824.582 169.109 824.209 169.472C823.846 169.835 823.665 170.464 823.665 171.36V176H821.841V167.184H823.665Z" fill="#333333"/>
<rect x="1293" y="67" width="70" height="48" rx="8" fill="#009191"/>
<path d="M1306.2 87.184H1308.02V97.728C1308.02 99.3707 1307.18 100.192 1305.5 100.192H1304.55V98.656H1305.18C1305.55 98.656 1305.81 98.5813 1305.96 98.432C1306.12 98.2933 1306.2 98.0587 1306.2 97.728V87.184ZM1308.28 84.848C1308.28 85.1787 1308.17 85.456 1307.94 85.68C1307.72 85.904 1307.44 86.016 1307.11 86.016C1306.79 86.016 1306.52 85.904 1306.3 85.68C1306.07 85.456 1305.96 85.1787 1305.96 84.848C1305.96 84.5173 1306.07 84.24 1306.3 84.016C1306.52 83.792 1306.79 83.68 1307.11 83.68C1307.44 83.68 1307.72 83.792 1307.94 84.016C1308.17 84.24 1308.28 84.5173 1308.28 84.848ZM1316.3 93.808C1316.83 93.2747 1317.1 92.5333 1317.1 91.584C1317.1 90.6347 1316.84 89.8987 1316.31 89.376C1315.8 88.8427 1315.18 88.576 1314.44 88.576C1313.7 88.576 1313.09 88.8427 1312.58 89.376C1312.08 89.8987 1311.83 90.64 1311.83 91.6C1311.83 92.5493 1312.08 93.2907 1312.57 93.824C1313.06 94.3467 1313.67 94.608 1314.39 94.608C1315.13 94.608 1315.76 94.3413 1316.3 93.808ZM1314.39 96.144C1313.11 96.144 1312.06 95.728 1311.22 94.896C1310.39 94.0533 1309.98 92.9547 1309.98 91.6C1309.98 90.2347 1310.4 89.136 1311.26 88.304C1312.12 87.4613 1313.19 87.04 1314.47 87.04C1315.75 87.04 1316.82 87.4613 1317.67 88.304C1318.54 89.136 1318.97 90.2293 1318.97 91.584C1318.97 92.9387 1318.53 94.0373 1317.64 94.88C1316.77 95.7227 1315.68 96.144 1314.39 96.144ZM1323 84.848C1323 85.1787 1322.89 85.456 1322.67 85.68C1322.44 85.904 1322.16 86.016 1321.83 86.016C1321.51 86.016 1321.24 85.904 1321.02 85.68C1320.79 85.456 1320.68 85.1787 1320.68 84.848C1320.68 84.5173 1320.79 84.24 1321.02 84.016C1321.24 83.792 1321.51 83.68 1321.83 83.68C1322.16 83.68 1322.44 83.792 1322.67 84.016C1322.89 84.24 1323 84.5173 1323 84.848ZM1320.92 96V87.184H1322.75V96H1320.92ZM1327.11 87.184V88.576C1327.7 87.552 1328.64 87.04 1329.93 87.04C1330.92 87.04 1331.74 87.3707 1332.38 88.032C1333.03 88.6933 1333.35 89.616 1333.35 90.8V96H1331.55V91.072C1331.55 90.2827 1331.35 89.68 1330.95 89.264C1330.56 88.8373 1330.02 88.624 1329.34 88.624C1328.66 88.624 1328.11 88.8373 1327.71 89.264C1327.31 89.68 1327.11 90.2827 1327.11 91.072V96H1325.29V87.184H1327.11ZM1339.54 96.144C1338.26 96.144 1337.22 95.728 1336.42 94.896C1335.62 94.064 1335.22 92.96 1335.22 91.584C1335.22 90.208 1335.63 89.1093 1336.44 88.288C1337.25 87.456 1338.3 87.04 1339.58 87.04C1340.87 87.04 1341.91 87.44 1342.71 88.24C1343.51 89.0293 1343.91 90.064 1343.91 91.344C1343.91 91.6533 1343.89 91.9413 1343.85 92.208H1337.1C1337.14 92.944 1337.38 93.5307 1337.83 93.968C1338.29 94.3947 1338.86 94.608 1339.54 94.608C1340.54 94.608 1341.23 94.1973 1341.64 93.376H1343.61C1343.34 94.1867 1342.86 94.8533 1342.15 95.376C1341.45 95.888 1340.58 96.144 1339.54 96.144ZM1342.01 90.96C1342 90.2347 1341.76 89.6587 1341.29 89.232C1340.82 88.7947 1340.25 88.576 1339.58 88.576C1338.9 88.576 1338.34 88.7947 1337.88 89.232C1337.43 89.6587 1337.18 90.2347 1337.11 90.96H1342.01ZM1347.68 87.184V88.72C1348.25 87.6 1349.13 87.04 1350.32 87.04V88.928H1349.86C1349.14 88.928 1348.6 89.1093 1348.22 89.472C1347.86 89.8347 1347.68 90.464 1347.68 91.36V96H1345.86V87.184H1347.68Z" fill="white"/>
<rect x="1130" width="79" height="48" rx="8" fill="#F29C9F"/>
<path d="M1149.01 26.76C1149.54 26.216 1149.81 25.4907 1149.81 24.584C1149.81 23.6773 1149.54 22.9573 1149.01 22.424C1148.49 21.8907 1147.86 21.624 1147.14 21.624C1146.41 21.624 1145.78 21.8853 1145.25 22.408C1144.73 22.9307 1144.46 23.6453 1144.46 24.552C1144.46 25.4587 1144.73 26.1893 1145.25 26.744C1145.78 27.288 1146.41 27.56 1147.14 27.56C1147.86 27.56 1148.49 27.2933 1149.01 26.76ZM1146.75 29.144C1145.58 29.144 1144.59 28.7173 1143.79 27.864C1142.99 27 1142.59 25.9013 1142.59 24.568C1142.59 23.224 1142.99 22.136 1143.78 21.304C1144.58 20.4613 1145.57 20.04 1146.75 20.04C1147.45 20.04 1148.05 20.2 1148.58 20.52C1149.11 20.8293 1149.52 21.24 1149.81 21.752V17.16H1151.65V29H1149.81V27.352C1149.51 27.896 1149.1 28.3333 1148.58 28.664C1148.05 28.984 1147.45 29.144 1146.75 29.144ZM1159.92 26.808C1160.46 26.2747 1160.72 25.5333 1160.72 24.584C1160.72 23.6347 1160.46 22.8987 1159.94 22.376C1159.43 21.8427 1158.8 21.576 1158.07 21.576C1157.33 21.576 1156.71 21.8427 1156.21 22.376C1155.71 22.8987 1155.46 23.64 1155.46 24.6C1155.46 25.5493 1155.7 26.2907 1156.19 26.824C1156.68 27.3467 1157.29 27.608 1158.02 27.608C1158.75 27.608 1159.39 27.3413 1159.92 26.808ZM1158.02 29.144C1156.74 29.144 1155.68 28.728 1154.85 27.896C1154.02 27.0533 1153.6 25.9547 1153.6 24.6C1153.6 23.2347 1154.03 22.136 1154.88 21.304C1155.75 20.4613 1156.82 20.04 1158.1 20.04C1159.38 20.04 1160.44 20.4613 1161.3 21.304C1162.16 22.136 1162.59 23.2293 1162.59 24.584C1162.59 25.9387 1162.15 27.0373 1161.27 27.88C1160.39 28.7227 1159.31 29.144 1158.02 29.144ZM1168.26 29.144C1166.98 29.144 1165.94 28.728 1165.14 27.896C1164.34 27.064 1163.94 25.9653 1163.94 24.6C1163.94 23.224 1164.34 22.12 1165.14 21.288C1165.95 20.456 1166.99 20.04 1168.26 20.04C1169.33 20.04 1170.21 20.296 1170.9 20.808C1171.6 21.3093 1172.08 22.0293 1172.32 22.968H1170.35C1170.02 22.04 1169.33 21.576 1168.26 21.576C1167.51 21.576 1166.91 21.8427 1166.47 22.376C1166.03 22.8987 1165.81 23.6347 1165.81 24.584C1165.81 25.5333 1166.03 26.2747 1166.47 26.808C1166.91 27.3413 1167.51 27.608 1168.26 27.608C1169.31 27.608 1170.01 27.144 1170.35 26.216H1172.32C1172.07 27.112 1171.59 27.8267 1170.88 28.36C1170.18 28.8827 1169.3 29.144 1168.26 29.144ZM1176.37 17.848C1176.37 18.1787 1176.26 18.456 1176.03 18.68C1175.81 18.904 1175.53 19.016 1175.2 19.016C1174.88 19.016 1174.61 18.904 1174.39 18.68C1174.16 18.456 1174.05 18.1787 1174.05 17.848C1174.05 17.5173 1174.16 17.24 1174.39 17.016C1174.61 16.792 1174.88 16.68 1175.2 16.68C1175.53 16.68 1175.81 16.792 1176.03 17.016C1176.26 17.24 1176.37 17.5173 1176.37 17.848ZM1174.29 29V20.184H1176.11V29H1174.29ZM1184.47 26.76C1185 26.216 1185.27 25.4907 1185.27 24.584C1185.27 23.6773 1185 22.9573 1184.47 22.424C1183.94 21.8907 1183.32 21.624 1182.6 21.624C1181.87 21.624 1181.24 21.8853 1180.71 22.408C1180.18 22.9307 1179.92 23.6453 1179.92 24.552C1179.92 25.4587 1180.18 26.1893 1180.71 26.744C1181.24 27.288 1181.87 27.56 1182.6 27.56C1183.32 27.56 1183.94 27.2933 1184.47 26.76ZM1182.21 29.144C1181.04 29.144 1180.05 28.7173 1179.25 27.864C1178.45 27 1178.05 25.9013 1178.05 24.568C1178.05 23.224 1178.45 22.136 1179.24 21.304C1180.04 20.4613 1181.03 20.04 1182.21 20.04C1182.9 20.04 1183.51 20.2 1184.04 20.52C1184.57 20.8293 1184.98 21.24 1185.27 21.752V17.16H1187.11V29H1185.27V27.352C1184.97 27.896 1184.56 28.3333 1184.04 28.664C1183.51 28.984 1182.9 29.144 1182.21 29.144ZM1196.28 20.184L1193.43 24.536L1196.28 29H1194.21L1192.31 26.008L1190.52 29H1188.61L1191.46 24.664L1188.61 20.184H1190.68L1192.58 23.176L1194.37 20.184H1196.28Z" fill="#333333"/>
<rect opacity="0.8" x="716" y="67" width="123" height="48" rx="8" fill="#FBCB67"/>
<path d="M729.2 96V84.88H731.024V96H729.2ZM735.393 87.184V88.576C735.979 87.552 736.918 87.04 738.209 87.04C738.891 87.04 739.499 87.2 740.033 87.52C740.566 87.84 740.971 88.304 741.249 88.912C741.558 88.3253 741.985 87.8667 742.529 87.536C743.083 87.2053 743.707 87.04 744.401 87.04C745.414 87.04 746.246 87.3707 746.897 88.032C747.547 88.6827 747.873 89.6053 747.873 90.8V96H746.049V91.072C746.049 90.2827 745.851 89.68 745.457 89.264C745.062 88.8373 744.523 88.624 743.841 88.624C743.158 88.624 742.619 88.8373 742.225 89.264C741.83 89.68 741.633 90.2827 741.633 91.072V96H739.825V91.072C739.825 90.2827 739.627 89.68 739.233 89.264C738.838 88.8373 738.299 88.624 737.617 88.624C736.934 88.624 736.39 88.8373 735.985 89.264C735.59 89.68 735.393 90.2827 735.393 91.072V96H733.569V87.184H735.393ZM753.896 96.144C752.722 96.144 751.736 95.7173 750.936 94.864C750.136 94 749.736 92.9013 749.736 91.568C749.736 90.224 750.13 89.136 750.92 88.304C751.72 87.4613 752.712 87.04 753.896 87.04C754.589 87.04 755.197 87.2 755.72 87.52C756.253 87.8293 756.664 88.24 756.952 88.752V87.184H758.792V96.144C758.792 97.3813 758.408 98.3893 757.64 99.168C756.882 99.9573 755.869 100.352 754.6 100.352C753.33 100.352 752.301 100.069 751.512 99.504C750.722 98.9493 750.274 98.192 750.168 97.232H751.976C752.114 97.6907 752.408 98.0587 752.856 98.336C753.314 98.624 753.885 98.768 754.568 98.768C755.25 98.768 755.816 98.544 756.264 98.096C756.722 97.648 756.952 96.9973 756.952 96.144V94.352C756.653 94.896 756.242 95.3333 755.72 95.664C755.197 95.984 754.589 96.144 753.896 96.144ZM756.152 93.76C756.685 93.216 756.952 92.4907 756.952 91.584C756.952 90.6773 756.685 89.9573 756.152 89.424C755.629 88.8907 755.005 88.624 754.28 88.624C753.554 88.624 752.925 88.8853 752.392 89.408C751.869 89.9307 751.608 90.6453 751.608 91.552C751.608 92.4587 751.869 93.1893 752.392 93.744C752.925 94.288 753.554 94.56 754.28 94.56C755.005 94.56 755.629 94.2933 756.152 93.76ZM767.482 84.864V86.288H763.162V89.664H767.002V91.072H763.162V94.576H767.482V96H761.338V84.864H767.482ZM771.702 87.184V88.576C772.289 87.552 773.227 87.04 774.518 87.04C775.51 87.04 776.326 87.3707 776.966 88.032C777.617 88.6933 777.942 89.616 777.942 90.8V96H776.134V91.072C776.134 90.2827 775.937 89.68 775.542 89.264C775.147 88.8373 774.609 88.624 773.926 88.624C773.243 88.624 772.699 88.8373 772.294 89.264C771.899 89.68 771.702 90.2827 771.702 91.072V96H769.878V87.184H771.702ZM784.131 96.144C782.851 96.144 781.811 95.728 781.011 94.896C780.211 94.064 779.811 92.9653 779.811 91.6C779.811 90.224 780.211 89.12 781.011 88.288C781.821 87.456 782.861 87.04 784.131 87.04C785.197 87.04 786.077 87.296 786.771 87.808C787.475 88.3093 787.949 89.0293 788.195 89.968H786.227C785.896 89.04 785.197 88.576 784.131 88.576C783.384 88.576 782.787 88.8427 782.339 89.376C781.901 89.8987 781.683 90.6347 781.683 91.584C781.683 92.5333 781.901 93.2747 782.339 93.808C782.787 94.3413 783.384 94.608 784.131 94.608C785.187 94.608 785.885 94.144 786.227 93.216H788.195C787.939 94.112 787.459 94.8267 786.755 95.36C786.051 95.8827 785.176 96.144 784.131 96.144ZM795.891 93.808C796.424 93.2747 796.691 92.5333 796.691 91.584C796.691 90.6347 796.429 89.8987 795.907 89.376C795.395 88.8427 794.771 88.576 794.035 88.576C793.299 88.576 792.68 88.8427 792.179 89.376C791.677 89.8987 791.427 90.64 791.427 91.6C791.427 92.5493 791.672 93.2907 792.163 93.824C792.653 94.3467 793.261 94.608 793.987 94.608C794.723 94.608 795.357 94.3413 795.891 93.808ZM793.987 96.144C792.707 96.144 791.651 95.728 790.819 94.896C789.987 94.0533 789.571 92.9547 789.571 91.6C789.571 90.2347 789.997 89.136 790.851 88.304C791.715 87.4613 792.787 87.04 794.067 87.04C795.347 87.04 796.413 87.4613 797.267 88.304C798.131 89.136 798.563 90.2293 798.563 91.584C798.563 92.9387 798.12 94.0373 797.235 94.88C796.36 95.7227 795.277 96.144 793.987 96.144ZM806.324 93.76C806.857 93.216 807.124 92.4907 807.124 91.584C807.124 90.6773 806.857 89.9573 806.324 89.424C805.801 88.8907 805.177 88.624 804.452 88.624C803.726 88.624 803.097 88.8853 802.564 89.408C802.041 89.9307 801.78 90.6453 801.78 91.552C801.78 92.4587 802.041 93.1893 802.564 93.744C803.097 94.288 803.726 94.56 804.452 94.56C805.177 94.56 805.801 94.2933 806.324 93.76ZM804.068 96.144C802.894 96.144 801.908 95.7173 801.108 94.864C800.308 94 799.908 92.9013 799.908 91.568C799.908 90.224 800.302 89.136 801.092 88.304C801.892 87.4613 802.884 87.04 804.068 87.04C804.761 87.04 805.369 87.2 805.892 87.52C806.425 87.8293 806.836 88.24 807.124 88.752V84.16H808.964V96H807.124V94.352C806.825 94.896 806.414 95.3333 805.892 95.664C805.369 95.984 804.761 96.144 804.068 96.144ZM815.221 96.144C813.941 96.144 812.901 95.728 812.101 94.896C811.301 94.064 810.901 92.96 810.901 91.584C810.901 90.208 811.307 89.1093 812.117 88.288C812.928 87.456 813.973 87.04 815.253 87.04C816.544 87.04 817.589 87.44 818.389 88.24C819.189 89.0293 819.589 90.064 819.589 91.344C819.589 91.6533 819.568 91.9413 819.525 92.208H812.773C812.816 92.944 813.061 93.5307 813.509 93.968C813.968 94.3947 814.539 94.608 815.221 94.608C816.213 94.608 816.912 94.1973 817.317 93.376H819.285C819.019 94.1867 818.533 94.8533 817.829 95.376C817.125 95.888 816.256 96.144 815.221 96.144ZM817.685 90.96C817.675 90.2347 817.435 89.6587 816.965 89.232C816.496 88.7947 815.925 88.576 815.253 88.576C814.581 88.576 814.016 88.7947 813.557 89.232C813.109 89.6587 812.853 90.2347 812.789 90.96H817.685ZM823.358 87.184V88.72C823.924 87.6 824.804 87.04 825.998 87.04V88.928H825.534C824.82 88.928 824.276 89.1093 823.902 89.472C823.54 89.8347 823.358 90.464 823.358 91.36V96H821.534V87.184H823.358Z" fill="#333333"/>
<rect opacity="0.8" x="875" y="67" width="170" height="48" rx="8" fill="#FBCB67"/>
<path d="M890.28 84.848C890.28 85.1787 890.168 85.456 889.944 85.68C889.72 85.904 889.443 86.016 889.112 86.016C888.792 86.016 888.52 85.904 888.296 85.68C888.072 85.456 887.96 85.1787 887.96 84.848C887.96 84.5173 888.072 84.24 888.296 84.016C888.52 83.792 888.792 83.68 889.112 83.68C889.443 83.68 889.72 83.792 889.944 84.016C890.168 84.24 890.28 84.5173 890.28 84.848ZM888.2 96V87.184H890.024V96H888.2ZM894.393 87.184V88.576C894.979 87.552 895.918 87.04 897.209 87.04C897.891 87.04 898.499 87.2 899.033 87.52C899.566 87.84 899.971 88.304 900.249 88.912C900.558 88.3253 900.985 87.8667 901.529 87.536C902.083 87.2053 902.707 87.04 903.401 87.04C904.414 87.04 905.246 87.3707 905.897 88.032C906.547 88.6827 906.873 89.6053 906.873 90.8V96H905.049V91.072C905.049 90.2827 904.851 89.68 904.457 89.264C904.062 88.8373 903.523 88.624 902.841 88.624C902.158 88.624 901.619 88.8373 901.225 89.264C900.83 89.68 900.633 90.2827 900.633 91.072V96H898.825V91.072C898.825 90.2827 898.627 89.68 898.233 89.264C897.838 88.8373 897.299 88.624 896.617 88.624C895.934 88.624 895.39 88.8373 894.985 89.264C894.59 89.68 894.393 90.2827 894.393 91.072V96H892.569V87.184H894.393ZM912.896 96.144C911.722 96.144 910.736 95.7173 909.936 94.864C909.136 94 908.736 92.9013 908.736 91.568C908.736 90.224 909.13 89.136 909.92 88.304C910.72 87.4613 911.712 87.04 912.896 87.04C913.589 87.04 914.197 87.2 914.72 87.52C915.253 87.8293 915.664 88.24 915.952 88.752V87.184H917.792V96.144C917.792 97.3813 917.408 98.3893 916.64 99.168C915.882 99.9573 914.869 100.352 913.6 100.352C912.33 100.352 911.301 100.069 910.512 99.504C909.722 98.9493 909.274 98.192 909.168 97.232H910.976C911.114 97.6907 911.408 98.0587 911.856 98.336C912.314 98.624 912.885 98.768 913.568 98.768C914.25 98.768 914.816 98.544 915.264 98.096C915.722 97.648 915.952 96.9973 915.952 96.144V94.352C915.653 94.896 915.242 95.3333 914.72 95.664C914.197 95.984 913.589 96.144 912.896 96.144ZM915.152 93.76C915.685 93.216 915.952 92.4907 915.952 91.584C915.952 90.6773 915.685 89.9573 915.152 89.424C914.629 88.8907 914.005 88.624 913.28 88.624C912.554 88.624 911.925 88.8853 911.392 89.408C910.869 89.9307 910.608 90.6453 910.608 91.552C910.608 92.4587 910.869 93.1893 911.392 93.744C911.925 94.288 912.554 94.56 913.28 94.56C914.005 94.56 914.629 94.2933 915.152 93.76ZM925.41 96.096C923.82 96.096 922.476 95.5627 921.378 94.496C920.279 93.4293 919.73 92.0747 919.73 90.432C919.73 88.7787 920.279 87.4187 921.378 86.352C922.476 85.2747 923.82 84.736 925.41 84.736C926.594 84.736 927.644 85.0293 928.562 85.616C929.49 86.192 930.162 87.0133 930.578 88.08H928.386C927.788 86.96 926.796 86.4 925.41 86.4C924.29 86.4 923.372 86.768 922.658 87.504C921.954 88.24 921.602 89.216 921.602 90.432C921.602 91.6373 921.954 92.608 922.658 93.344C923.372 94.08 924.29 94.448 925.41 94.448C926.796 94.448 927.788 93.888 928.386 92.768H930.578C930.162 93.8347 929.49 94.656 928.562 95.232C927.644 95.808 926.594 96.096 925.41 96.096ZM934.686 84.16V88.576C935.273 87.552 936.212 87.04 937.502 87.04C938.494 87.04 939.31 87.3707 939.95 88.032C940.601 88.6933 940.926 89.616 940.926 90.8V96H939.118V91.072C939.118 90.2827 938.921 89.68 938.526 89.264C938.132 88.8373 937.593 88.624 936.91 88.624C936.228 88.624 935.684 88.8373 935.278 89.264C934.884 89.68 934.686 90.2827 934.686 91.072V96H932.862V84.16H934.686ZM949.563 87.184H951.387V96H949.563V94.608C948.987 95.6213 948.048 96.128 946.747 96.128C945.755 96.128 944.934 95.8027 944.283 95.152C943.643 94.4907 943.323 93.568 943.323 92.384V87.184H945.131V92.112C945.131 92.9013 945.328 93.5093 945.723 93.936C946.118 94.352 946.656 94.56 947.339 94.56C948.022 94.56 948.56 94.352 948.955 93.936C949.36 93.5093 949.563 92.9013 949.563 92.112V87.184ZM955.768 87.184V88.576C956.354 87.552 957.293 87.04 958.584 87.04C959.576 87.04 960.392 87.3707 961.032 88.032C961.682 88.6933 962.008 89.616 962.008 90.8V96H960.2V91.072C960.2 90.2827 960.002 89.68 959.608 89.264C959.213 88.8373 958.674 88.624 957.992 88.624C957.309 88.624 956.765 88.8373 956.36 89.264C955.965 89.68 955.768 90.2827 955.768 91.072V96H953.944V87.184H955.768ZM966.308 96H964.484V84.16H966.308V91.04L969.508 87.184H972.036L967.972 91.6L972.036 96H969.572L966.308 92.208V96ZM973.494 96V84.88H975.318V96H973.494ZM979.686 87.184V88.576C980.273 87.552 981.212 87.04 982.502 87.04C983.494 87.04 984.31 87.3707 984.95 88.032C985.601 88.6933 985.926 89.616 985.926 90.8V96H984.118V91.072C984.118 90.2827 983.921 89.68 983.526 89.264C983.132 88.8373 982.593 88.624 981.91 88.624C981.228 88.624 980.684 88.8373 980.278 89.264C979.884 89.68 979.686 90.2827 979.686 91.072V96H977.862V87.184H979.686ZM994.211 93.76C994.744 93.216 995.011 92.4907 995.011 91.584C995.011 90.6773 994.744 89.9573 994.211 89.424C993.688 88.8907 993.064 88.624 992.339 88.624C991.614 88.624 990.984 88.8853 990.451 89.408C989.928 89.9307 989.667 90.6453 989.667 91.552C989.667 92.4587 989.928 93.1893 990.451 93.744C990.984 94.288 991.614 94.56 992.339 94.56C993.064 94.56 993.688 94.2933 994.211 93.76ZM991.955 96.144C990.782 96.144 989.795 95.7173 988.995 94.864C988.195 94 987.795 92.9013 987.795 91.568C987.795 90.224 988.19 89.136 988.979 88.304C989.779 87.4613 990.771 87.04 991.955 87.04C992.648 87.04 993.256 87.2 993.779 87.52C994.312 87.8293 994.723 88.24 995.011 88.752V84.16H996.851V96H995.011V94.352C994.712 94.896 994.302 95.3333 993.779 95.664C993.256 95.984 992.648 96.144 991.955 96.144ZM1003.11 96.144C1001.83 96.144 1000.79 95.728 999.989 94.896C999.189 94.064 998.789 92.96 998.789 91.584C998.789 90.208 999.194 89.1093 1000 88.288C1000.82 87.456 1001.86 87.04 1003.14 87.04C1004.43 87.04 1005.48 87.44 1006.28 88.24C1007.08 89.0293 1007.48 90.064 1007.48 91.344C1007.48 91.6533 1007.46 91.9413 1007.41 92.208H1000.66C1000.7 92.944 1000.95 93.5307 1001.4 93.968C1001.86 94.3947 1002.43 94.608 1003.11 94.608C1004.1 94.608 1004.8 94.1973 1005.2 93.376H1007.17C1006.91 94.1867 1006.42 94.8533 1005.72 95.376C1005.01 95.888 1004.14 96.144 1003.11 96.144ZM1005.57 90.96C1005.56 90.2347 1005.32 89.6587 1004.85 89.232C1004.38 88.7947 1003.81 88.576 1003.14 88.576C1002.47 88.576 1001.9 88.7947 1001.44 89.232C1001 89.6587 1000.74 90.2347 1000.68 90.96H1005.57ZM1016.05 87.184L1013.2 91.536L1016.05 96H1013.98L1012.08 93.008L1010.29 96H1008.38L1011.23 91.664L1008.38 87.184H1010.45L1012.35 90.176L1014.14 87.184H1016.05ZM1021.27 96.144C1019.99 96.144 1018.95 95.728 1018.15 94.896C1017.35 94.064 1016.95 92.96 1016.95 91.584C1016.95 90.208 1017.35 89.1093 1018.16 88.288C1018.97 87.456 1020.02 87.04 1021.3 87.04C1022.59 87.04 1023.64 87.44 1024.44 88.24C1025.24 89.0293 1025.64 90.064 1025.64 91.344C1025.64 91.6533 1025.61 91.9413 1025.57 92.208H1018.82C1018.86 92.944 1019.11 93.5307 1019.56 93.968C1020.01 94.3947 1020.59 94.608 1021.27 94.608C1022.26 94.608 1022.96 94.1973 1023.36 93.376H1025.33C1025.07 94.1867 1024.58 94.8533 1023.88 95.376C1023.17 95.888 1022.3 96.144 1021.27 96.144ZM1023.73 90.96C1023.72 90.2347 1023.48 89.6587 1023.01 89.232C1022.54 88.7947 1021.97 88.576 1021.3 88.576C1020.63 88.576 1020.06 88.7947 1019.6 89.232C1019.16 89.6587 1018.9 90.2347 1018.84 90.96H1023.73ZM1029.41 87.184V88.72C1029.97 87.6 1030.85 87.04 1032.05 87.04V88.928H1031.58C1030.87 88.928 1030.32 89.1093 1029.95 89.472C1029.59 89.8347 1029.41 90.464 1029.41 91.36V96H1027.58V87.184H1029.41Z" fill="#333333"/>
<rect opacity="0.8" x="876" y="147" width="168" height="48" rx="8" fill="#EB6161"/>
<path d="M893.472 168.672H891.328V173.552C891.328 173.883 891.403 174.123 891.552 174.272C891.712 174.411 891.979 174.48 892.352 174.48H893.472V176H892.032C890.336 176 889.488 175.184 889.488 173.552V168.672H888.448V167.184H889.488V164.992H891.328V167.184H893.472V168.672ZM899.015 176.144C897.735 176.144 896.695 175.728 895.895 174.896C895.095 174.064 894.695 172.96 894.695 171.584C894.695 170.208 895.1 169.109 895.911 168.288C896.722 167.456 897.767 167.04 899.047 167.04C900.338 167.04 901.383 167.44 902.183 168.24C902.983 169.029 903.383 170.064 903.383 171.344C903.383 171.653 903.362 171.941 903.319 172.208H896.567C896.61 172.944 896.855 173.531 897.303 173.968C897.762 174.395 898.332 174.608 899.015 174.608C900.007 174.608 900.706 174.197 901.111 173.376H903.079C902.812 174.187 902.327 174.853 901.623 175.376C900.919 175.888 900.05 176.144 899.015 176.144ZM901.479 170.96C901.468 170.235 901.228 169.659 900.759 169.232C900.29 168.795 899.719 168.576 899.047 168.576C898.375 168.576 897.81 168.795 897.351 169.232C896.903 169.659 896.647 170.235 896.583 170.96H901.479ZM911.952 167.184L909.104 171.536L911.952 176H909.888L907.984 173.008L906.192 176H904.288L907.136 171.664L904.288 167.184H906.352L908.256 170.176L910.048 167.184H911.952ZM917.735 168.672H915.591V173.552C915.591 173.883 915.665 174.123 915.815 174.272C915.975 174.411 916.241 174.48 916.615 174.48H917.735V176H916.295C914.599 176 913.751 175.184 913.751 173.552V168.672H912.711V167.184H913.751V164.992H915.591V167.184H917.735V168.672ZM924.638 176.096C923.048 176.096 921.704 175.563 920.606 174.496C919.507 173.429 918.958 172.075 918.958 170.432C918.958 168.779 919.507 167.419 920.606 166.352C921.704 165.275 923.048 164.736 924.638 164.736C925.822 164.736 926.872 165.029 927.79 165.616C928.718 166.192 929.39 167.013 929.806 168.08H927.614C927.016 166.96 926.024 166.4 924.638 166.4C923.518 166.4 922.6 166.768 921.886 167.504C921.182 168.24 920.83 169.216 920.83 170.432C920.83 171.637 921.182 172.608 921.886 173.344C922.6 174.08 923.518 174.448 924.638 174.448C926.024 174.448 927.016 173.888 927.614 172.768H929.806C929.39 173.835 928.718 174.656 927.79 175.232C926.872 175.808 925.822 176.096 924.638 176.096ZM933.915 164.16V168.576C934.501 167.552 935.44 167.04 936.731 167.04C937.723 167.04 938.539 167.371 939.179 168.032C939.829 168.693 940.155 169.616 940.155 170.8V176H938.347V171.072C938.347 170.283 938.149 169.68 937.755 169.264C937.36 168.837 936.821 168.624 936.139 168.624C935.456 168.624 934.912 168.837 934.507 169.264C934.112 169.68 933.915 170.283 933.915 171.072V176H932.091V164.16H933.915ZM948.791 167.184H950.615V176H948.791V174.608C948.215 175.621 947.277 176.128 945.975 176.128C944.983 176.128 944.162 175.803 943.511 175.152C942.871 174.491 942.551 173.568 942.551 172.384V167.184H944.359V172.112C944.359 172.901 944.557 173.509 944.951 173.936C945.346 174.352 945.885 174.56 946.567 174.56C947.25 174.56 947.789 174.352 948.183 173.936C948.589 173.509 948.791 172.901 948.791 172.112V167.184ZM954.996 167.184V168.576C955.583 167.552 956.521 167.04 957.812 167.04C958.804 167.04 959.62 167.371 960.26 168.032C960.911 168.693 961.236 169.616 961.236 170.8V176H959.428V171.072C959.428 170.283 959.231 169.68 958.836 169.264C958.441 168.837 957.903 168.624 957.22 168.624C956.537 168.624 955.993 168.837 955.588 169.264C955.193 169.68 954.996 170.283 954.996 171.072V176H953.172V167.184H954.996ZM965.536 176H963.712V164.16H965.536V171.04L968.736 167.184H971.264L967.2 171.6L971.264 176H968.8L965.536 172.208V176ZM972.722 176V164.88H974.546V176H972.722ZM978.915 167.184V168.576C979.501 167.552 980.44 167.04 981.731 167.04C982.723 167.04 983.539 167.371 984.179 168.032C984.829 168.693 985.155 169.616 985.155 170.8V176H983.347V171.072C983.347 170.283 983.149 169.68 982.755 169.264C982.36 168.837 981.821 168.624 981.139 168.624C980.456 168.624 979.912 168.837 979.507 169.264C979.112 169.68 978.915 170.283 978.915 171.072V176H977.091V167.184H978.915ZM993.439 173.76C993.973 173.216 994.239 172.491 994.239 171.584C994.239 170.677 993.973 169.957 993.439 169.424C992.917 168.891 992.293 168.624 991.567 168.624C990.842 168.624 990.213 168.885 989.679 169.408C989.157 169.931 988.895 170.645 988.895 171.552C988.895 172.459 989.157 173.189 989.679 173.744C990.213 174.288 990.842 174.56 991.567 174.56C992.293 174.56 992.917 174.293 993.439 173.76ZM991.183 176.144C990.01 176.144 989.023 175.717 988.223 174.864C987.423 174 987.023 172.901 987.023 171.568C987.023 170.224 987.418 169.136 988.207 168.304C989.007 167.461 989.999 167.04 991.183 167.04C991.877 167.04 992.485 167.2 993.007 167.52C993.541 167.829 993.951 168.24 994.239 168.752V164.16H996.079V176H994.239V174.352C993.941 174.896 993.53 175.333 993.007 175.664C992.485 175.984 991.877 176.144 991.183 176.144ZM1002.34 176.144C1001.06 176.144 1000.02 175.728 999.217 174.896C998.417 174.064 998.017 172.96 998.017 171.584C998.017 170.208 998.422 169.109 999.233 168.288C1000.04 167.456 1001.09 167.04 1002.37 167.04C1003.66 167.04 1004.71 167.44 1005.51 168.24C1006.31 169.029 1006.71 170.064 1006.71 171.344C1006.71 171.653 1006.68 171.941 1006.64 172.208H999.889C999.932 172.944 1000.18 173.531 1000.63 173.968C1001.08 174.395 1001.65 174.608 1002.34 174.608C1003.33 174.608 1004.03 174.197 1004.43 173.376H1006.4C1006.13 174.187 1005.65 174.853 1004.95 175.376C1004.24 175.888 1003.37 176.144 1002.34 176.144ZM1004.8 170.96C1004.79 170.235 1004.55 169.659 1004.08 169.232C1003.61 168.795 1003.04 168.576 1002.37 168.576C1001.7 168.576 1001.13 168.795 1000.67 169.232C1000.23 169.659 999.969 170.235 999.905 170.96H1004.8ZM1015.27 167.184L1012.43 171.536L1015.27 176H1013.21L1011.31 173.008L1009.51 176H1007.61L1010.46 171.664L1007.61 167.184H1009.67L1011.58 170.176L1013.37 167.184H1015.27ZM1020.5 176.144C1019.22 176.144 1018.18 175.728 1017.38 174.896C1016.58 174.064 1016.18 172.96 1016.18 171.584C1016.18 170.208 1016.58 169.109 1017.39 168.288C1018.2 167.456 1019.25 167.04 1020.53 167.04C1021.82 167.04 1022.86 167.44 1023.66 168.24C1024.46 169.029 1024.86 170.064 1024.86 171.344C1024.86 171.653 1024.84 171.941 1024.8 172.208H1018.05C1018.09 172.944 1018.34 173.531 1018.78 173.968C1019.24 174.395 1019.81 174.608 1020.5 174.608C1021.49 174.608 1022.19 174.197 1022.59 173.376H1024.56C1024.29 174.187 1023.81 174.853 1023.1 175.376C1022.4 175.888 1021.53 176.144 1020.5 176.144ZM1022.96 170.96C1022.95 170.235 1022.71 169.659 1022.24 169.232C1021.77 168.795 1021.2 168.576 1020.53 168.576C1019.86 168.576 1019.29 168.795 1018.83 169.232C1018.38 169.659 1018.13 170.235 1018.06 170.96H1022.96ZM1028.63 167.184V168.72C1029.2 167.6 1030.08 167.04 1031.27 167.04V168.928H1030.81C1030.09 168.928 1029.55 169.109 1029.18 169.472C1028.81 169.835 1028.63 170.464 1028.63 171.36V176H1026.81V167.184H1028.63Z" fill="#333333"/>
<rect opacity="0.8" x="1081" y="67" width="176" height="48" rx="8" fill="#FBCB67"/>
<path d="M1096.28 84.848C1096.28 85.1787 1096.17 85.456 1095.94 85.68C1095.72 85.904 1095.44 86.016 1095.11 86.016C1094.79 86.016 1094.52 85.904 1094.3 85.68C1094.07 85.456 1093.96 85.1787 1093.96 84.848C1093.96 84.5173 1094.07 84.24 1094.3 84.016C1094.52 83.792 1094.79 83.68 1095.11 83.68C1095.44 83.68 1095.72 83.792 1095.94 84.016C1096.17 84.24 1096.28 84.5173 1096.28 84.848ZM1094.2 96V87.184H1096.02V96H1094.2ZM1100.39 87.184V88.576C1100.98 87.552 1101.92 87.04 1103.21 87.04C1103.89 87.04 1104.5 87.2 1105.03 87.52C1105.57 87.84 1105.97 88.304 1106.25 88.912C1106.56 88.3253 1106.98 87.8667 1107.53 87.536C1108.08 87.2053 1108.71 87.04 1109.4 87.04C1110.41 87.04 1111.25 87.3707 1111.9 88.032C1112.55 88.6827 1112.87 89.6053 1112.87 90.8V96H1111.05V91.072C1111.05 90.2827 1110.85 89.68 1110.46 89.264C1110.06 88.8373 1109.52 88.624 1108.84 88.624C1108.16 88.624 1107.62 88.8373 1107.22 89.264C1106.83 89.68 1106.63 90.2827 1106.63 91.072V96H1104.82V91.072C1104.82 90.2827 1104.63 89.68 1104.23 89.264C1103.84 88.8373 1103.3 88.624 1102.62 88.624C1101.93 88.624 1101.39 88.8373 1100.98 89.264C1100.59 89.68 1100.39 90.2827 1100.39 91.072V96H1098.57V87.184H1100.39ZM1121.15 93.76C1121.69 93.216 1121.95 92.4907 1121.95 91.584C1121.95 90.6773 1121.69 89.9573 1121.15 89.424C1120.63 88.8907 1120.01 88.624 1119.28 88.624C1118.55 88.624 1117.93 88.8853 1117.39 89.408C1116.87 89.9307 1116.61 90.6453 1116.61 91.552C1116.61 92.4587 1116.87 93.1893 1117.39 93.744C1117.93 94.288 1118.55 94.56 1119.28 94.56C1120.01 94.56 1120.63 94.2933 1121.15 93.76ZM1118.9 96.144C1117.72 96.144 1116.74 95.7173 1115.94 94.864C1115.14 94 1114.74 92.9013 1114.74 91.568C1114.74 90.224 1115.13 89.136 1115.92 88.304C1116.72 87.4613 1117.71 87.04 1118.9 87.04C1119.59 87.04 1120.2 87.2 1120.72 87.52C1121.25 87.8293 1121.66 88.24 1121.95 88.752V87.184H1123.79V96H1121.95V94.352C1121.65 94.896 1121.24 95.3333 1120.72 95.664C1120.2 95.984 1119.59 96.144 1118.9 96.144ZM1129.89 96.144C1128.72 96.144 1127.73 95.7173 1126.93 94.864C1126.13 94 1125.73 92.9013 1125.73 91.568C1125.73 90.224 1126.12 89.136 1126.91 88.304C1127.71 87.4613 1128.71 87.04 1129.89 87.04C1130.58 87.04 1131.19 87.2 1131.71 87.52C1132.25 87.8293 1132.66 88.24 1132.95 88.752V87.184H1134.79V96.144C1134.79 97.3813 1134.4 98.3893 1133.63 99.168C1132.88 99.9573 1131.86 100.352 1130.59 100.352C1129.32 100.352 1128.29 100.069 1127.51 99.504C1126.72 98.9493 1126.27 98.192 1126.16 97.232H1127.97C1128.11 97.6907 1128.4 98.0587 1128.85 98.336C1129.31 98.624 1129.88 98.768 1130.56 98.768C1131.24 98.768 1131.81 98.544 1132.26 98.096C1132.72 97.648 1132.95 96.9973 1132.95 96.144V94.352C1132.65 94.896 1132.24 95.3333 1131.71 95.664C1131.19 95.984 1130.58 96.144 1129.89 96.144ZM1132.15 93.76C1132.68 93.216 1132.95 92.4907 1132.95 91.584C1132.95 90.6773 1132.68 89.9573 1132.15 89.424C1131.62 88.8907 1131 88.624 1130.27 88.624C1129.55 88.624 1128.92 88.8853 1128.39 89.408C1127.86 89.9307 1127.6 90.6453 1127.6 91.552C1127.6 92.4587 1127.86 93.1893 1128.39 93.744C1128.92 94.288 1129.55 94.56 1130.27 94.56C1131 94.56 1131.62 94.2933 1132.15 93.76ZM1141.04 96.144C1139.76 96.144 1138.72 95.728 1137.92 94.896C1137.12 94.064 1136.72 92.96 1136.72 91.584C1136.72 90.208 1137.13 89.1093 1137.94 88.288C1138.75 87.456 1139.8 87.04 1141.08 87.04C1142.37 87.04 1143.41 87.44 1144.21 88.24C1145.01 89.0293 1145.41 90.064 1145.41 91.344C1145.41 91.6533 1145.39 91.9413 1145.35 92.208H1138.6C1138.64 92.944 1138.88 93.5307 1139.33 93.968C1139.79 94.3947 1140.36 94.608 1141.04 94.608C1142.04 94.608 1142.73 94.1973 1143.14 93.376H1145.11C1144.84 94.1867 1144.36 94.8533 1143.65 95.376C1142.95 95.888 1142.08 96.144 1141.04 96.144ZM1143.51 90.96C1143.5 90.2347 1143.26 89.6587 1142.79 89.232C1142.32 88.7947 1141.75 88.576 1141.08 88.576C1140.4 88.576 1139.84 88.7947 1139.38 89.232C1138.93 89.6587 1138.68 90.2347 1138.61 90.96H1143.51ZM1152.43 96.096C1150.84 96.096 1149.49 95.5627 1148.4 94.496C1147.3 93.4293 1146.75 92.0747 1146.75 90.432C1146.75 88.7787 1147.3 87.4187 1148.4 86.352C1149.49 85.2747 1150.84 84.736 1152.43 84.736C1153.61 84.736 1154.66 85.0293 1155.58 85.616C1156.51 86.192 1157.18 87.0133 1157.6 88.08H1155.4C1154.81 86.96 1153.81 86.4 1152.43 86.4C1151.31 86.4 1150.39 86.768 1149.68 87.504C1148.97 88.24 1148.62 89.216 1148.62 90.432C1148.62 91.6373 1148.97 92.608 1149.68 93.344C1150.39 94.08 1151.31 94.448 1152.43 94.448C1153.81 94.448 1154.81 93.888 1155.4 92.768H1157.6C1157.18 93.8347 1156.51 94.656 1155.58 95.232C1154.66 95.808 1153.61 96.096 1152.43 96.096ZM1161.71 84.16V88.576C1162.29 87.552 1163.23 87.04 1164.52 87.04C1165.51 87.04 1166.33 87.3707 1166.97 88.032C1167.62 88.6933 1167.95 89.616 1167.95 90.8V96H1166.14V91.072C1166.14 90.2827 1165.94 89.68 1165.55 89.264C1165.15 88.8373 1164.61 88.624 1163.93 88.624C1163.25 88.624 1162.7 88.8373 1162.3 89.264C1161.9 89.68 1161.71 90.2827 1161.71 91.072V96H1159.88V84.16H1161.71ZM1176.58 87.184H1178.41V96H1176.58V94.608C1176.01 95.6213 1175.07 96.128 1173.77 96.128C1172.77 96.128 1171.95 95.8027 1171.3 95.152C1170.66 94.4907 1170.34 93.568 1170.34 92.384V87.184H1172.15V92.112C1172.15 92.9013 1172.35 93.5093 1172.74 93.936C1173.14 94.352 1173.68 94.56 1174.36 94.56C1175.04 94.56 1175.58 94.352 1175.97 93.936C1176.38 93.5093 1176.58 92.9013 1176.58 92.112V87.184ZM1182.79 87.184V88.576C1183.37 87.552 1184.31 87.04 1185.6 87.04C1186.59 87.04 1187.41 87.3707 1188.05 88.032C1188.7 88.6933 1189.03 89.616 1189.03 90.8V96H1187.22V91.072C1187.22 90.2827 1187.02 89.68 1186.63 89.264C1186.23 88.8373 1185.69 88.624 1185.01 88.624C1184.33 88.624 1183.78 88.8373 1183.38 89.264C1182.98 89.68 1182.79 90.2827 1182.79 91.072V96H1180.96V87.184H1182.79ZM1193.33 96H1191.5V84.16H1193.33V91.04L1196.53 87.184H1199.06L1194.99 91.6L1199.06 96H1196.59L1193.33 92.208V96ZM1202.34 96H1200.51V84.88H1202.34V89.952L1206.66 84.88H1209.04L1204.02 90.464L1209.04 96H1206.64L1202.34 91.024V96ZM1214.08 96L1209.89 84.88H1211.84L1215.12 94.112L1218.44 84.88H1220.37L1216.2 96H1214.08ZM1224.13 84.848C1224.13 85.1787 1224.01 85.456 1223.79 85.68C1223.57 85.904 1223.29 86.016 1222.96 86.016C1222.64 86.016 1222.37 85.904 1222.14 85.68C1221.92 85.456 1221.81 85.1787 1221.81 84.848C1221.81 84.5173 1221.92 84.24 1222.14 84.016C1222.37 83.792 1222.64 83.68 1222.96 83.68C1223.29 83.68 1223.57 83.792 1223.79 84.016C1224.01 84.24 1224.13 84.5173 1224.13 84.848ZM1222.05 96V87.184H1223.87V96H1222.05ZM1232.22 93.76C1232.76 93.216 1233.02 92.4907 1233.02 91.584C1233.02 90.6773 1232.76 89.9573 1232.22 89.424C1231.7 88.8907 1231.08 88.624 1230.35 88.624C1229.63 88.624 1229 88.8853 1228.46 89.408C1227.94 89.9307 1227.68 90.6453 1227.68 91.552C1227.68 92.4587 1227.94 93.1893 1228.46 93.744C1229 94.288 1229.63 94.56 1230.35 94.56C1231.08 94.56 1231.7 94.2933 1232.22 93.76ZM1229.97 96.144C1228.79 96.144 1227.81 95.7173 1227.01 94.864C1226.21 94 1225.81 92.9013 1225.81 91.568C1225.81 90.224 1226.2 89.136 1226.99 88.304C1227.79 87.4613 1228.78 87.04 1229.97 87.04C1230.66 87.04 1231.27 87.2 1231.79 87.52C1232.32 87.8293 1232.74 88.24 1233.02 88.752V84.16H1234.86V96H1233.02V94.352C1232.72 94.896 1232.31 95.3333 1231.79 95.664C1231.27 95.984 1230.66 96.144 1229.97 96.144ZM1244.03 87.184L1241.19 91.536L1244.03 96H1241.97L1240.07 93.008L1238.27 96H1236.37L1239.22 91.664L1236.37 87.184H1238.43L1240.34 90.176L1242.13 87.184H1244.03Z" fill="#333333"/>
<rect opacity="0.8" x="1093" y="147" width="153" height="48" rx="8" fill="#EB6161"/>
<path d="M1110.47 168.672H1108.33V173.552C1108.33 173.883 1108.4 174.123 1108.55 174.272C1108.71 174.411 1108.98 174.48 1109.35 174.48H1110.47V176H1109.03C1107.34 176 1106.49 175.184 1106.49 173.552V168.672H1105.45V167.184H1106.49V164.992H1108.33V167.184H1110.47V168.672ZM1116.02 176.144C1114.74 176.144 1113.7 175.728 1112.9 174.896C1112.1 174.064 1111.7 172.96 1111.7 171.584C1111.7 170.208 1112.1 169.109 1112.91 168.288C1113.72 167.456 1114.77 167.04 1116.05 167.04C1117.34 167.04 1118.38 167.44 1119.18 168.24C1119.98 169.029 1120.38 170.064 1120.38 171.344C1120.38 171.653 1120.36 171.941 1120.32 172.208H1113.57C1113.61 172.944 1113.86 173.531 1114.3 173.968C1114.76 174.395 1115.33 174.608 1116.02 174.608C1117.01 174.608 1117.71 174.197 1118.11 173.376H1120.08C1119.81 174.187 1119.33 174.853 1118.62 175.376C1117.92 175.888 1117.05 176.144 1116.02 176.144ZM1118.48 170.96C1118.47 170.235 1118.23 169.659 1117.76 169.232C1117.29 168.795 1116.72 168.576 1116.05 168.576C1115.38 168.576 1114.81 168.795 1114.35 169.232C1113.9 169.659 1113.65 170.235 1113.58 170.96H1118.48ZM1128.95 167.184L1126.1 171.536L1128.95 176H1126.89L1124.98 173.008L1123.19 176H1121.29L1124.14 171.664L1121.29 167.184H1123.35L1125.26 170.176L1127.05 167.184H1128.95ZM1134.73 168.672H1132.59V173.552C1132.59 173.883 1132.67 174.123 1132.81 174.272C1132.97 174.411 1133.24 174.48 1133.61 174.48H1134.73V176H1133.29C1131.6 176 1130.75 175.184 1130.75 173.552V168.672H1129.71V167.184H1130.75V164.992H1132.59V167.184H1134.73V168.672ZM1141.64 176.096C1140.05 176.096 1138.7 175.563 1137.61 174.496C1136.51 173.429 1135.96 172.075 1135.96 170.432C1135.96 168.779 1136.51 167.419 1137.61 166.352C1138.7 165.275 1140.05 164.736 1141.64 164.736C1142.82 164.736 1143.87 165.029 1144.79 165.616C1145.72 166.192 1146.39 167.013 1146.81 168.08H1144.61C1144.02 166.96 1143.02 166.4 1141.64 166.4C1140.52 166.4 1139.6 166.768 1138.89 167.504C1138.18 168.24 1137.83 169.216 1137.83 170.432C1137.83 171.637 1138.18 172.608 1138.89 173.344C1139.6 174.08 1140.52 174.448 1141.64 174.448C1143.02 174.448 1144.02 173.888 1144.61 172.768H1146.81C1146.39 173.835 1145.72 174.656 1144.79 175.232C1143.87 175.808 1142.82 176.096 1141.64 176.096ZM1150.91 164.16V168.576C1151.5 167.552 1152.44 167.04 1153.73 167.04C1154.72 167.04 1155.54 167.371 1156.18 168.032C1156.83 168.693 1157.15 169.616 1157.15 170.8V176H1155.35V171.072C1155.35 170.283 1155.15 169.68 1154.75 169.264C1154.36 168.837 1153.82 168.624 1153.14 168.624C1152.46 168.624 1151.91 168.837 1151.51 169.264C1151.11 169.68 1150.91 170.283 1150.91 171.072V176H1149.09V164.16H1150.91ZM1165.79 167.184H1167.62V176H1165.79V174.608C1165.22 175.621 1164.28 176.128 1162.98 176.128C1161.98 176.128 1161.16 175.803 1160.51 175.152C1159.87 174.491 1159.55 173.568 1159.55 172.384V167.184H1161.36V172.112C1161.36 172.901 1161.56 173.509 1161.95 173.936C1162.35 174.352 1162.88 174.56 1163.57 174.56C1164.25 174.56 1164.79 174.352 1165.18 173.936C1165.59 173.509 1165.79 172.901 1165.79 172.112V167.184ZM1172 167.184V168.576C1172.58 167.552 1173.52 167.04 1174.81 167.04C1175.8 167.04 1176.62 167.371 1177.26 168.032C1177.91 168.693 1178.24 169.616 1178.24 170.8V176H1176.43V171.072C1176.43 170.283 1176.23 169.68 1175.84 169.264C1175.44 168.837 1174.9 168.624 1174.22 168.624C1173.54 168.624 1172.99 168.837 1172.59 169.264C1172.19 169.68 1172 170.283 1172 171.072V176H1170.17V167.184H1172ZM1182.54 176H1180.71V164.16H1182.54V171.04L1185.74 167.184H1188.26L1184.2 171.6L1188.26 176H1185.8L1182.54 172.208V176ZM1191.55 176H1189.72V164.88H1191.55V169.952L1195.87 164.88H1198.25L1193.23 170.464L1198.25 176H1195.85L1191.55 171.024V176ZM1203.29 176L1199.1 164.88H1201.05L1204.33 174.112L1207.64 164.88H1209.58L1205.4 176H1203.29ZM1213.34 164.848C1213.34 165.179 1213.22 165.456 1213 165.68C1212.78 165.904 1212.5 166.016 1212.17 166.016C1211.85 166.016 1211.58 165.904 1211.35 165.68C1211.13 165.456 1211.02 165.179 1211.02 164.848C1211.02 164.517 1211.13 164.24 1211.35 164.016C1211.58 163.792 1211.85 163.68 1212.17 163.68C1212.5 163.68 1212.78 163.792 1213 164.016C1213.22 164.24 1213.34 164.517 1213.34 164.848ZM1211.26 176V167.184H1213.08V176H1211.26ZM1221.43 173.76C1221.97 173.216 1222.23 172.491 1222.23 171.584C1222.23 170.677 1221.97 169.957 1221.43 169.424C1220.91 168.891 1220.29 168.624 1219.56 168.624C1218.84 168.624 1218.21 168.885 1217.67 169.408C1217.15 169.931 1216.89 170.645 1216.89 171.552C1216.89 172.459 1217.15 173.189 1217.67 173.744C1218.21 174.288 1218.84 174.56 1219.56 174.56C1220.29 174.56 1220.91 174.293 1221.43 173.76ZM1219.18 176.144C1218 176.144 1217.02 175.717 1216.22 174.864C1215.42 174 1215.02 172.901 1215.02 171.568C1215.02 170.224 1215.41 169.136 1216.2 168.304C1217 167.461 1217.99 167.04 1219.18 167.04C1219.87 167.04 1220.48 167.2 1221 167.52C1221.53 167.829 1221.95 168.24 1222.23 168.752V164.16H1224.07V176H1222.23V174.352C1221.93 174.896 1221.52 175.333 1221 175.664C1220.48 175.984 1219.87 176.144 1219.18 176.144ZM1233.24 167.184L1230.39 171.536L1233.24 176H1231.18L1229.27 173.008L1227.48 176H1225.58L1228.43 171.664L1225.58 167.184H1227.64L1229.55 170.176L1231.34 167.184H1233.24Z" fill="#333333"/>
<rect x="132" y="67" width="114" height="48" rx="8" fill="#009191"/>
<path d="M149.04 84.88C150.299 84.88 151.269 85.1947 151.952 85.824C152.635 86.4427 152.976 87.2213 152.976 88.16C152.976 89.088 152.651 89.8773 152 90.528C151.36 91.168 150.373 91.488 149.04 91.488H147.024V96H145.2V84.88H149.04ZM147.024 90.064H149.04C149.733 90.064 150.251 89.8987 150.592 89.568C150.933 89.2373 151.104 88.7787 151.104 88.192C151.104 87.5947 150.933 87.1307 150.592 86.8C150.251 86.4693 149.733 86.304 149.04 86.304H147.024V90.064ZM160.674 93.76C161.207 93.216 161.474 92.4907 161.474 91.584C161.474 90.6773 161.207 89.9573 160.674 89.424C160.151 88.8907 159.527 88.624 158.802 88.624C158.076 88.624 157.447 88.8853 156.914 89.408C156.391 89.9307 156.13 90.6453 156.13 91.552C156.13 92.4587 156.391 93.1893 156.914 93.744C157.447 94.288 158.076 94.56 158.802 94.56C159.527 94.56 160.151 94.2933 160.674 93.76ZM158.418 96.144C157.244 96.144 156.258 95.7173 155.458 94.864C154.658 94 154.258 92.9013 154.258 91.568C154.258 90.224 154.652 89.136 155.442 88.304C156.242 87.4613 157.234 87.04 158.418 87.04C159.111 87.04 159.719 87.2 160.242 87.52C160.775 87.8293 161.186 88.24 161.474 88.752V84.16H163.314V96H161.474V94.352C161.175 94.896 160.764 95.3333 160.242 95.664C159.719 95.984 159.111 96.144 158.418 96.144ZM169.555 87.184V88.672H167.923V96H166.083V88.672H165.043V87.184H166.083V86.56C166.083 85.5467 166.35 84.8107 166.883 84.352C167.427 83.8827 168.275 83.648 169.427 83.648V85.168C168.873 85.168 168.483 85.2747 168.259 85.488C168.035 85.6907 167.923 86.048 167.923 86.56V87.184H169.555ZM171.322 96V84.88H173.146V96H171.322ZM177.515 87.184V88.576C178.101 87.552 179.04 87.04 180.331 87.04C181.013 87.04 181.621 87.2 182.155 87.52C182.688 87.84 183.093 88.304 183.371 88.912C183.68 88.3253 184.107 87.8667 184.651 87.536C185.205 87.2053 185.829 87.04 186.523 87.04C187.536 87.04 188.368 87.3707 189.019 88.032C189.669 88.6827 189.995 89.6053 189.995 90.8V96H188.171V91.072C188.171 90.2827 187.973 89.68 187.579 89.264C187.184 88.8373 186.645 88.624 185.963 88.624C185.28 88.624 184.741 88.8373 184.347 89.264C183.952 89.68 183.755 90.2827 183.755 91.072V96H181.947V91.072C181.947 90.2827 181.749 89.68 181.355 89.264C180.96 88.8373 180.421 88.624 179.739 88.624C179.056 88.624 178.512 88.8373 178.107 89.264C177.712 89.68 177.515 90.2827 177.515 91.072V96H175.691V87.184H177.515ZM196.018 96.144C194.844 96.144 193.858 95.7173 193.058 94.864C192.258 94 191.858 92.9013 191.858 91.568C191.858 90.224 192.252 89.136 193.042 88.304C193.842 87.4613 194.834 87.04 196.018 87.04C196.711 87.04 197.319 87.2 197.842 87.52C198.375 87.8293 198.786 88.24 199.074 88.752V87.184H200.914V96.144C200.914 97.3813 200.53 98.3893 199.762 99.168C199.004 99.9573 197.991 100.352 196.722 100.352C195.452 100.352 194.423 100.069 193.634 99.504C192.844 98.9493 192.396 98.192 192.29 97.232H194.098C194.236 97.6907 194.53 98.0587 194.978 98.336C195.436 98.624 196.007 98.768 196.69 98.768C197.372 98.768 197.938 98.544 198.386 98.096C198.844 97.648 199.074 96.9973 199.074 96.144V94.352C198.775 94.896 198.364 95.3333 197.842 95.664C197.319 95.984 196.711 96.144 196.018 96.144ZM198.274 93.76C198.807 93.216 199.074 92.4907 199.074 91.584C199.074 90.6773 198.807 89.9573 198.274 89.424C197.751 88.8907 197.127 88.624 196.402 88.624C195.676 88.624 195.047 88.8853 194.514 89.408C193.991 89.9307 193.73 90.6453 193.73 91.552C193.73 92.4587 193.991 93.1893 194.514 93.744C195.047 94.288 195.676 94.56 196.402 94.56C197.127 94.56 197.751 94.2933 198.274 93.76ZM206.915 86.224C206.371 86.224 205.929 86.3627 205.587 86.64C205.246 86.9173 205.075 87.3227 205.075 87.856C205.075 88.3787 205.278 88.7787 205.683 89.056C206.089 89.3333 206.579 89.536 207.155 89.664C207.731 89.792 208.307 89.9413 208.883 90.112C209.459 90.272 209.95 90.576 210.355 91.024C210.761 91.472 210.963 92.1067 210.963 92.928C210.963 93.7493 210.617 94.4853 209.923 95.136C209.23 95.7867 208.302 96.112 207.139 96.112C205.977 96.112 205.033 95.84 204.307 95.296C203.582 94.752 203.219 94 203.219 93.04H205.171C205.214 93.5307 205.395 93.92 205.715 94.208C206.035 94.496 206.505 94.64 207.123 94.64C207.742 94.64 208.227 94.48 208.579 94.16C208.942 93.84 209.123 93.4613 209.123 93.024C209.123 92.5867 209.011 92.2453 208.787 92C208.574 91.7547 208.291 91.5733 207.939 91.456C207.598 91.328 207.219 91.216 206.803 91.12C206.387 91.024 205.966 90.912 205.539 90.784C205.123 90.656 204.739 90.4907 204.387 90.288C204.046 90.0853 203.763 89.792 203.539 89.408C203.326 89.0133 203.219 88.5333 203.219 87.968C203.219 86.9973 203.566 86.2187 204.259 85.632C204.963 85.0347 205.87 84.736 206.979 84.736C208.099 84.736 208.99 84.992 209.651 85.504C210.323 86.016 210.697 86.7573 210.771 87.728H208.755C208.713 87.3013 208.531 86.944 208.211 86.656C207.891 86.368 207.459 86.224 206.915 86.224ZM216.978 96.144C215.698 96.144 214.658 95.728 213.858 94.896C213.058 94.064 212.658 92.96 212.658 91.584C212.658 90.208 213.063 89.1093 213.874 88.288C214.684 87.456 215.73 87.04 217.01 87.04C218.3 87.04 219.346 87.44 220.146 88.24C220.946 89.0293 221.346 90.064 221.346 91.344C221.346 91.6533 221.324 91.9413 221.282 92.208H214.53C214.572 92.944 214.818 93.5307 215.266 93.968C215.724 94.3947 216.295 94.608 216.978 94.608C217.97 94.608 218.668 94.1973 219.074 93.376H221.042C220.775 94.1867 220.29 94.8533 219.586 95.376C218.882 95.888 218.012 96.144 216.978 96.144ZM219.442 90.96C219.431 90.2347 219.191 89.6587 218.722 89.232C218.252 88.7947 217.682 88.576 217.01 88.576C216.338 88.576 215.772 88.7947 215.314 89.232C214.866 89.6587 214.61 90.2347 214.546 90.96H219.442ZM226.843 96.144C225.669 96.144 224.683 95.7173 223.883 94.864C223.083 94 222.683 92.9013 222.683 91.568C222.683 90.224 223.077 89.136 223.867 88.304C224.667 87.4613 225.659 87.04 226.843 87.04C227.536 87.04 228.144 87.2 228.667 87.52C229.2 87.8293 229.611 88.24 229.899 88.752V87.184H231.739V96.144C231.739 97.3813 231.355 98.3893 230.587 99.168C229.829 99.9573 228.816 100.352 227.547 100.352C226.277 100.352 225.248 100.069 224.459 99.504C223.669 98.9493 223.221 98.192 223.115 97.232H224.923C225.061 97.6907 225.355 98.0587 225.803 98.336C226.261 98.624 226.832 98.768 227.515 98.768C228.197 98.768 228.763 98.544 229.211 98.096C229.669 97.648 229.899 96.9973 229.899 96.144V94.352C229.6 94.896 229.189 95.3333 228.667 95.664C228.144 95.984 227.536 96.144 226.843 96.144ZM229.099 93.76C229.632 93.216 229.899 92.4907 229.899 91.584C229.899 90.6773 229.632 89.9573 229.099 89.424C228.576 88.8907 227.952 88.624 227.227 88.624C226.501 88.624 225.872 88.8853 225.339 89.408C224.816 89.9307 224.555 90.6453 224.555 91.552C224.555 92.4587 224.816 93.1893 225.339 93.744C225.872 94.288 226.501 94.56 227.227 94.56C227.952 94.56 228.576 94.2933 229.099 93.76Z" fill="#333333"/>
<rect x="282" y="67" width="115" height="48" rx="8" fill="#009191"/>
<path d="M299.04 84.88C300.299 84.88 301.269 85.1947 301.952 85.824C302.635 86.4427 302.976 87.2213 302.976 88.16C302.976 89.088 302.651 89.8773 302 90.528C301.36 91.168 300.373 91.488 299.04 91.488H297.024V96H295.2V84.88H299.04ZM297.024 90.064H299.04C299.733 90.064 300.251 89.8987 300.592 89.568C300.933 89.2373 301.104 88.7787 301.104 88.192C301.104 87.5947 300.933 87.1307 300.592 86.8C300.251 86.4693 299.733 86.304 299.04 86.304H297.024V90.064ZM310.674 93.76C311.207 93.216 311.474 92.4907 311.474 91.584C311.474 90.6773 311.207 89.9573 310.674 89.424C310.151 88.8907 309.527 88.624 308.802 88.624C308.076 88.624 307.447 88.8853 306.914 89.408C306.391 89.9307 306.13 90.6453 306.13 91.552C306.13 92.4587 306.391 93.1893 306.914 93.744C307.447 94.288 308.076 94.56 308.802 94.56C309.527 94.56 310.151 94.2933 310.674 93.76ZM308.418 96.144C307.244 96.144 306.258 95.7173 305.458 94.864C304.658 94 304.258 92.9013 304.258 91.568C304.258 90.224 304.652 89.136 305.442 88.304C306.242 87.4613 307.234 87.04 308.418 87.04C309.111 87.04 309.719 87.2 310.242 87.52C310.775 87.8293 311.186 88.24 311.474 88.752V84.16H313.314V96H311.474V94.352C311.175 94.896 310.764 95.3333 310.242 95.664C309.719 95.984 309.111 96.144 308.418 96.144ZM319.555 87.184V88.672H317.923V96H316.083V88.672H315.043V87.184H316.083V86.56C316.083 85.5467 316.35 84.8107 316.883 84.352C317.427 83.8827 318.275 83.648 319.427 83.648V85.168C318.873 85.168 318.483 85.2747 318.259 85.488C318.035 85.6907 317.923 86.048 317.923 86.56V87.184H319.555ZM320.746 86.304V84.88H328.506V86.304H325.546V96H323.722V86.304H320.746ZM334.215 96.144C332.935 96.144 331.895 95.728 331.095 94.896C330.295 94.064 329.895 92.96 329.895 91.584C329.895 90.208 330.3 89.1093 331.111 88.288C331.922 87.456 332.967 87.04 334.247 87.04C335.538 87.04 336.583 87.44 337.383 88.24C338.183 89.0293 338.583 90.064 338.583 91.344C338.583 91.6533 338.562 91.9413 338.519 92.208H331.767C331.81 92.944 332.055 93.5307 332.503 93.968C332.962 94.3947 333.532 94.608 334.215 94.608C335.207 94.608 335.906 94.1973 336.311 93.376H338.279C338.012 94.1867 337.527 94.8533 336.823 95.376C336.119 95.888 335.25 96.144 334.215 96.144ZM336.679 90.96C336.668 90.2347 336.428 89.6587 335.959 89.232C335.49 88.7947 334.919 88.576 334.247 88.576C333.575 88.576 333.01 88.7947 332.551 89.232C332.103 89.6587 331.847 90.2347 331.783 90.96H336.679ZM347.152 87.184L344.304 91.536L347.152 96H345.088L343.184 93.008L341.392 96H339.488L342.336 91.664L339.488 87.184H341.552L343.456 90.176L345.248 87.184H347.152ZM352.935 88.672H350.791V93.552C350.791 93.8827 350.865 94.1227 351.015 94.272C351.175 94.4107 351.441 94.48 351.815 94.48H352.935V96H351.495C349.799 96 348.951 95.184 348.951 93.552V88.672H347.911V87.184H348.951V84.992H350.791V87.184H352.935V88.672ZM358.222 86.224C357.678 86.224 357.235 86.3627 356.894 86.64C356.552 86.9173 356.382 87.3227 356.382 87.856C356.382 88.3787 356.584 88.7787 356.99 89.056C357.395 89.3333 357.886 89.536 358.462 89.664C359.038 89.792 359.614 89.9413 360.19 90.112C360.766 90.272 361.256 90.576 361.662 91.024C362.067 91.472 362.27 92.1067 362.27 92.928C362.27 93.7493 361.923 94.4853 361.23 95.136C360.536 95.7867 359.608 96.112 358.446 96.112C357.283 96.112 356.339 95.84 355.614 95.296C354.888 94.752 354.526 94 354.526 93.04H356.478C356.52 93.5307 356.702 93.92 357.022 94.208C357.342 94.496 357.811 94.64 358.43 94.64C359.048 94.64 359.534 94.48 359.886 94.16C360.248 93.84 360.43 93.4613 360.43 93.024C360.43 92.5867 360.318 92.2453 360.094 92C359.88 91.7547 359.598 91.5733 359.246 91.456C358.904 91.328 358.526 91.216 358.11 91.12C357.694 91.024 357.272 90.912 356.846 90.784C356.43 90.656 356.046 90.4907 355.694 90.288C355.352 90.0853 355.07 89.792 354.846 89.408C354.632 89.0133 354.526 88.5333 354.526 87.968C354.526 86.9973 354.872 86.2187 355.566 85.632C356.27 85.0347 357.176 84.736 358.286 84.736C359.406 84.736 360.296 84.992 360.958 85.504C361.63 86.016 362.003 86.7573 362.078 87.728H360.062C360.019 87.3013 359.838 86.944 359.518 86.656C359.198 86.368 358.766 86.224 358.222 86.224ZM368.284 96.144C367.004 96.144 365.964 95.728 365.164 94.896C364.364 94.064 363.964 92.96 363.964 91.584C363.964 90.208 364.369 89.1093 365.18 88.288C365.991 87.456 367.036 87.04 368.316 87.04C369.607 87.04 370.652 87.44 371.452 88.24C372.252 89.0293 372.652 90.064 372.652 91.344C372.652 91.6533 372.631 91.9413 372.588 92.208H365.836C365.879 92.944 366.124 93.5307 366.572 93.968C367.031 94.3947 367.601 94.608 368.284 94.608C369.276 94.608 369.975 94.1973 370.38 93.376H372.348C372.081 94.1867 371.596 94.8533 370.892 95.376C370.188 95.888 369.319 96.144 368.284 96.144ZM370.748 90.96C370.737 90.2347 370.497 89.6587 370.028 89.232C369.559 88.7947 368.988 88.576 368.316 88.576C367.644 88.576 367.079 88.7947 366.62 89.232C366.172 89.6587 365.916 90.2347 365.852 90.96H370.748ZM378.149 96.144C376.976 96.144 375.989 95.7173 375.189 94.864C374.389 94 373.989 92.9013 373.989 91.568C373.989 90.224 374.384 89.136 375.173 88.304C375.973 87.4613 376.965 87.04 378.149 87.04C378.842 87.04 379.45 87.2 379.973 87.52C380.506 87.8293 380.917 88.24 381.205 88.752V87.184H383.045V96.144C383.045 97.3813 382.661 98.3893 381.893 99.168C381.136 99.9573 380.122 100.352 378.853 100.352C377.584 100.352 376.554 100.069 375.765 99.504C374.976 98.9493 374.528 98.192 374.421 97.232H376.229C376.368 97.6907 376.661 98.0587 377.109 98.336C377.568 98.624 378.138 98.768 378.821 98.768C379.504 98.768 380.069 98.544 380.517 98.096C380.976 97.648 381.205 96.9973 381.205 96.144V94.352C380.906 94.896 380.496 95.3333 379.973 95.664C379.45 95.984 378.842 96.144 378.149 96.144ZM380.405 93.76C380.938 93.216 381.205 92.4907 381.205 91.584C381.205 90.6773 380.938 89.9573 380.405 89.424C379.882 88.8907 379.258 88.624 378.533 88.624C377.808 88.624 377.178 88.8853 376.645 89.408C376.122 89.9307 375.861 90.6453 375.861 91.552C375.861 92.4587 376.122 93.1893 376.645 93.744C377.178 94.288 377.808 94.56 378.533 94.56C379.258 94.56 379.882 94.2933 380.405 93.76Z" fill="white"/>
<path d="M132 91L127 88.1132V93.8868L132 91ZM96 91.5H127.5V90.5H96V91.5Z" fill="#949596"/>
<path d="M565 91L560 88.1132V93.8868L565 91ZM529 91.5H560.5V90.5H529V91.5Z" fill="#949596"/>
<path d="M433 91L428 88.1132V93.8868L433 91ZM397 91.5H428.5V90.5H397V91.5Z" fill="#949596"/>
<path d="M716 91L711 88.1132V93.8868L716 91ZM679 91.5H711.5V90.5H679V91.5Z" fill="#949596"/>
<path d="M715 171L710 168.113L710 173.887L715 171ZM671 171.5L710.5 171.5L710.5 170.5L671 170.5L671 171.5Z" fill="#949596"/>
<path d="M340 171L339.5 171L339.5 171.5L340 171.5L340 171ZM574 171L569 168.113L569 173.887L574 171ZM340 171.5L569.5 171.5L569.5 170.5L340 170.5L340 171.5ZM340.5 171L340.5 115L339.5 115L339.5 171L340.5 171Z" fill="#949596"/>
<path d="M875 91L870 88.1132V93.8868L875 91ZM839 91.5H870.5V90.5H839V91.5Z" fill="#949596"/>
<path d="M876 171L871 168.113V173.887L876 171ZM839 171.5H871.5V170.5H839V171.5Z" fill="#949596"/>
<path d="M1081 91L1076 88.1132V93.8868L1081 91ZM1045 91.5H1076.5V90.5H1045V91.5Z" fill="#949596"/>
<path d="M1293 91L1288 88.1132V93.8868L1293 91ZM1257 91.5H1288.5V90.5H1257V91.5Z" fill="#949596"/>
<path d="M1399 91L1394 88.1132V93.8868L1399 91ZM1363 91.5H1394.5V90.5H1363V91.5Z" fill="#949596"/>
<path d="M1328 25H1328.5V24.5H1328V25ZM1328 67L1330.89 62H1325.11L1328 67ZM1327.5 25V62.5H1328.5V25H1327.5ZM1328 24.5L1209.4 24.5V25.5L1328 25.5V24.5Z" fill="#949596"/>
<path d="M1328 171H1328.5V171.5H1328V171ZM1328 115L1330.89 120H1325.11L1328 115ZM1327.5 171V119.5H1328.5V171H1327.5ZM1328 171.5H1246V170.5H1328V171.5Z" fill="#949596"/>
<path d="M1093 171L1088 168.113V173.887L1093 171ZM1044 171.5H1088.5V170.5H1044V171.5Z" fill="#949596"/>
<path d="M339.5 25V24.5H338.994L339 25.006L339.5 25ZM1130 25L1125 22.1132V27.8868L1130 25ZM339.5 25.5H1125.5V24.5H339.5V25.5ZM339 25.006L339.5 67.006L340.5 66.994L340 24.994L339 25.006Z" fill="#949596"/>
</svg>
