<svg width="946" height="212" viewBox="0 0 946 212" fill="none" xmlns="http://www.w3.org/2000/svg">
<rect x="0.5" y="82.5" width="95" height="47" rx="7.5" fill="white" stroke="#009191"/>
<path d="M16.752 111.144C15.5787 111.144 14.592 110.717 13.792 109.864C12.992 109 12.592 107.901 12.592 106.568C12.592 105.224 12.9867 104.136 13.776 103.304C14.576 102.461 15.568 102.04 16.752 102.04C17.4453 102.04 18.0533 102.2 18.576 102.52C19.1093 102.829 19.52 103.24 19.808 103.752V102.184H21.648V111.144C21.648 112.381 21.264 113.389 20.496 114.168C19.7387 114.957 18.7253 115.352 17.456 115.352C16.1867 115.352 15.1573 115.069 14.368 114.504C13.5787 113.949 13.1307 113.192 13.024 112.232H14.832C14.9707 112.691 15.264 113.059 15.712 113.336C16.1707 113.624 16.7413 113.768 17.424 113.768C18.1067 113.768 18.672 113.544 19.12 113.096C19.5787 112.648 19.808 111.997 19.808 111.144V109.352C19.5093 109.896 19.0987 110.333 18.576 110.664C18.0533 110.984 17.4453 111.144 16.752 111.144ZM19.008 108.76C19.5413 108.216 19.808 107.491 19.808 106.584C19.808 105.677 19.5413 104.957 19.008 104.424C18.4853 103.891 17.8613 103.624 17.136 103.624C16.4107 103.624 15.7813 103.885 15.248 104.408C14.7253 104.931 14.464 105.645 14.464 106.552C14.464 107.459 14.7253 108.189 15.248 108.744C15.7813 109.288 16.4107 109.56 17.136 109.56C17.8613 109.56 18.4853 109.293 19.008 108.76ZM30.0017 108.76C30.5351 108.216 30.8018 107.491 30.8018 106.584C30.8018 105.677 30.5351 104.957 30.0017 104.424C29.4791 103.891 28.8551 103.624 28.1297 103.624C27.4044 103.624 26.7751 103.885 26.2417 104.408C25.7191 104.931 25.4577 105.645 25.4577 106.552C25.4577 107.459 25.7191 108.189 26.2417 108.744C26.7751 109.288 27.4044 109.56 28.1297 109.56C28.8551 109.56 29.4791 109.293 30.0017 108.76ZM27.7457 111.144C26.5724 111.144 25.5857 110.717 24.7857 109.864C23.9857 109 23.5857 107.901 23.5857 106.568C23.5857 105.224 23.9804 104.136 24.7697 103.304C25.5697 102.461 26.5617 102.04 27.7457 102.04C28.4391 102.04 29.0471 102.2 29.5697 102.52C30.1031 102.829 30.5138 103.24 30.8018 103.752V102.184H32.6418V111H30.8018V109.352C30.5031 109.896 30.0924 110.333 29.5697 110.664C29.0471 110.984 28.4391 111.144 27.7457 111.144ZM39.4595 103.672H37.3155V108.552C37.3155 108.883 37.3902 109.123 37.5395 109.272C37.6995 109.411 37.9662 109.48 38.3395 109.48H39.4595V111H38.0195C36.3235 111 35.4755 110.184 35.4755 108.552V103.672H34.4355V102.184H35.4755V99.992H37.3155V102.184H39.4595V103.672ZM45.0026 111.144C43.7226 111.144 42.6826 110.728 41.8826 109.896C41.0826 109.064 40.6826 107.96 40.6826 106.584C40.6826 105.208 41.088 104.109 41.8986 103.288C42.7093 102.456 43.7546 102.04 45.0346 102.04C46.3253 102.04 47.3706 102.44 48.1706 103.24C48.9706 104.029 49.3706 105.064 49.3706 106.344C49.3706 106.653 49.3493 106.941 49.3066 107.208H42.5546C42.5973 107.944 42.8426 108.531 43.2906 108.968C43.7493 109.395 44.32 109.608 45.0026 109.608C45.9946 109.608 46.6933 109.197 47.0986 108.376H49.0666C48.8 109.187 48.3146 109.853 47.6106 110.376C46.9066 110.888 46.0373 111.144 45.0026 111.144ZM47.4666 105.96C47.456 105.235 47.216 104.659 46.7466 104.232C46.2773 103.795 45.7066 103.576 45.0346 103.576C44.3626 103.576 43.7973 103.795 43.3386 104.232C42.8906 104.659 42.6346 105.235 42.5706 105.96H47.4666ZM61.3636 102.184H63.1556L60.4196 111H58.4996L56.7236 104.488L54.9476 111H53.0276L50.2756 102.184H52.1316L53.9716 109.272L55.8436 102.184H57.7476L59.5396 109.24L61.3636 102.184ZM70.4768 108.76C71.0101 108.216 71.2768 107.491 71.2768 106.584C71.2768 105.677 71.0101 104.957 70.4768 104.424C69.9541 103.891 69.3301 103.624 68.6048 103.624C67.8794 103.624 67.2501 103.885 66.7168 104.408C66.1941 104.931 65.9328 105.645 65.9328 106.552C65.9328 107.459 66.1941 108.189 66.7168 108.744C67.2501 109.288 67.8794 109.56 68.6048 109.56C69.3301 109.56 69.9541 109.293 70.4768 108.76ZM68.2208 111.144C67.0474 111.144 66.0608 110.717 65.2608 109.864C64.4608 109 64.0608 107.901 64.0608 106.568C64.0608 105.224 64.4554 104.136 65.2448 103.304C66.0448 102.461 67.0368 102.04 68.2208 102.04C68.9141 102.04 69.5221 102.2 70.0448 102.52C70.5781 102.829 70.9888 103.24 71.2768 103.752V102.184H73.1168V111H71.2768V109.352C70.9781 109.896 70.5674 110.333 70.0448 110.664C69.5221 110.984 68.9141 111.144 68.2208 111.144ZM78.0945 110.856L74.6225 102.184H76.6545L79.1345 108.904L81.7105 102.184H83.5985L78.1905 115.144H76.3025L78.0945 110.856Z" fill="#009191"/>
<rect x="850.5" y="82.5" width="95" height="47" rx="7.5" fill="white" stroke="#009191"/>
<path d="M866.752 111.144C865.579 111.144 864.592 110.717 863.792 109.864C862.992 109 862.592 107.901 862.592 106.568C862.592 105.224 862.987 104.136 863.776 103.304C864.576 102.461 865.568 102.04 866.752 102.04C867.445 102.04 868.053 102.2 868.576 102.52C869.109 102.829 869.52 103.24 869.808 103.752V102.184H871.648V111.144C871.648 112.381 871.264 113.389 870.496 114.168C869.739 114.957 868.725 115.352 867.456 115.352C866.187 115.352 865.157 115.069 864.368 114.504C863.579 113.949 863.131 113.192 863.024 112.232H864.832C864.971 112.691 865.264 113.059 865.712 113.336C866.171 113.624 866.741 113.768 867.424 113.768C868.107 113.768 868.672 113.544 869.12 113.096C869.579 112.648 869.808 111.997 869.808 111.144V109.352C869.509 109.896 869.099 110.333 868.576 110.664C868.053 110.984 867.445 111.144 866.752 111.144ZM869.008 108.76C869.541 108.216 869.808 107.491 869.808 106.584C869.808 105.677 869.541 104.957 869.008 104.424C868.485 103.891 867.861 103.624 867.136 103.624C866.411 103.624 865.781 103.885 865.248 104.408C864.725 104.931 864.464 105.645 864.464 106.552C864.464 107.459 864.725 108.189 865.248 108.744C865.781 109.288 866.411 109.56 867.136 109.56C867.861 109.56 868.485 109.293 869.008 108.76ZM880.002 108.76C880.535 108.216 880.802 107.491 880.802 106.584C880.802 105.677 880.535 104.957 880.002 104.424C879.479 103.891 878.855 103.624 878.13 103.624C877.404 103.624 876.775 103.885 876.242 104.408C875.719 104.931 875.458 105.645 875.458 106.552C875.458 107.459 875.719 108.189 876.242 108.744C876.775 109.288 877.404 109.56 878.13 109.56C878.855 109.56 879.479 109.293 880.002 108.76ZM877.746 111.144C876.572 111.144 875.586 110.717 874.786 109.864C873.986 109 873.586 107.901 873.586 106.568C873.586 105.224 873.98 104.136 874.77 103.304C875.57 102.461 876.562 102.04 877.746 102.04C878.439 102.04 879.047 102.2 879.57 102.52C880.103 102.829 880.514 103.24 880.802 103.752V102.184H882.642V111H880.802V109.352C880.503 109.896 880.092 110.333 879.57 110.664C879.047 110.984 878.439 111.144 877.746 111.144ZM889.459 103.672H887.315V108.552C887.315 108.883 887.39 109.123 887.539 109.272C887.699 109.411 887.966 109.48 888.339 109.48H889.459V111H888.019C886.323 111 885.475 110.184 885.475 108.552V103.672H884.435V102.184H885.475V99.992H887.315V102.184H889.459V103.672ZM895.003 111.144C893.723 111.144 892.683 110.728 891.883 109.896C891.083 109.064 890.683 107.96 890.683 106.584C890.683 105.208 891.088 104.109 891.899 103.288C892.709 102.456 893.755 102.04 895.035 102.04C896.325 102.04 897.371 102.44 898.171 103.24C898.971 104.029 899.371 105.064 899.371 106.344C899.371 106.653 899.349 106.941 899.307 107.208H892.555C892.597 107.944 892.843 108.531 893.291 108.968C893.749 109.395 894.32 109.608 895.003 109.608C895.995 109.608 896.693 109.197 897.099 108.376H899.067C898.8 109.187 898.315 109.853 897.611 110.376C896.907 110.888 896.037 111.144 895.003 111.144ZM897.467 105.96C897.456 105.235 897.216 104.659 896.747 104.232C896.277 103.795 895.707 103.576 895.035 103.576C894.363 103.576 893.797 103.795 893.339 104.232C892.891 104.659 892.635 105.235 892.571 105.96H897.467ZM911.364 102.184H913.156L910.42 111H908.5L906.724 104.488L904.948 111H903.028L900.276 102.184H902.132L903.972 109.272L905.844 102.184H907.748L909.54 109.24L911.364 102.184ZM920.477 108.76C921.01 108.216 921.277 107.491 921.277 106.584C921.277 105.677 921.01 104.957 920.477 104.424C919.954 103.891 919.33 103.624 918.605 103.624C917.879 103.624 917.25 103.885 916.717 104.408C916.194 104.931 915.933 105.645 915.933 106.552C915.933 107.459 916.194 108.189 916.717 108.744C917.25 109.288 917.879 109.56 918.605 109.56C919.33 109.56 919.954 109.293 920.477 108.76ZM918.221 111.144C917.047 111.144 916.061 110.717 915.261 109.864C914.461 109 914.061 107.901 914.061 106.568C914.061 105.224 914.455 104.136 915.245 103.304C916.045 102.461 917.037 102.04 918.221 102.04C918.914 102.04 919.522 102.2 920.045 102.52C920.578 102.829 920.989 103.24 921.277 103.752V102.184H923.117V111H921.277V109.352C920.978 109.896 920.567 110.333 920.045 110.664C919.522 110.984 918.914 111.144 918.221 111.144ZM928.095 110.856L924.623 102.184H926.655L929.135 108.904L931.711 102.184H933.599L928.191 115.144H926.303L928.095 110.856Z" fill="#009191"/>
<rect opacity="0.8" x="558" width="100" height="32" rx="8" fill="#EB6161"/>
<path d="M571.2 21V9.88H573.024V21H571.2ZM577.393 12.184V13.576C577.979 12.552 578.918 12.04 580.209 12.04C581.201 12.04 582.017 12.3707 582.657 13.032C583.307 13.6933 583.633 14.616 583.633 15.8V21H581.825V16.072C581.825 15.2827 581.627 14.68 581.233 14.264C580.838 13.8373 580.299 13.624 579.617 13.624C578.934 13.624 578.39 13.8373 577.985 14.264C577.59 14.68 577.393 15.2827 577.393 16.072V21H575.569V12.184H577.393ZM591.917 18.76C592.451 18.216 592.717 17.4907 592.717 16.584C592.717 15.6773 592.451 14.9573 591.917 14.424C591.395 13.8907 590.771 13.624 590.045 13.624C589.32 13.624 588.691 13.8853 588.157 14.408C587.635 14.9307 587.373 15.6453 587.373 16.552C587.373 17.4587 587.635 18.1893 588.157 18.744C588.691 19.288 589.32 19.56 590.045 19.56C590.771 19.56 591.395 19.2933 591.917 18.76ZM589.661 21.144C588.488 21.144 587.501 20.7173 586.701 19.864C585.901 19 585.501 17.9013 585.501 16.568C585.501 15.224 585.896 14.136 586.685 13.304C587.485 12.4613 588.477 12.04 589.661 12.04C590.355 12.04 590.963 12.2 591.485 12.52C592.019 12.8293 592.429 13.24 592.717 13.752V9.16H594.557V21H592.717V19.352C592.419 19.896 592.008 20.3333 591.485 20.664C590.963 20.984 590.355 21.144 589.661 21.144ZM600.815 21.144C599.535 21.144 598.495 20.728 597.695 19.896C596.895 19.064 596.495 17.96 596.495 16.584C596.495 15.208 596.9 14.1093 597.711 13.288C598.522 12.456 599.567 12.04 600.847 12.04C602.138 12.04 603.183 12.44 603.983 13.24C604.783 14.0293 605.183 15.064 605.183 16.344C605.183 16.6533 605.162 16.9413 605.119 17.208H598.367C598.41 17.944 598.655 18.5307 599.103 18.968C599.562 19.3947 600.132 19.608 600.815 19.608C601.807 19.608 602.506 19.1973 602.911 18.376H604.879C604.612 19.1867 604.127 19.8533 603.423 20.376C602.719 20.888 601.85 21.144 600.815 21.144ZM603.279 15.96C603.268 15.2347 603.028 14.6587 602.559 14.232C602.09 13.7947 601.519 13.576 600.847 13.576C600.175 13.576 599.61 13.7947 599.151 14.232C598.703 14.6587 598.447 15.2347 598.383 15.96H603.279ZM613.752 12.184L610.904 16.536L613.752 21H611.688L609.784 18.008L607.992 21H606.088L608.936 16.664L606.088 12.184H608.152L610.056 15.176L611.848 12.184H613.752ZM618.975 21.144C617.695 21.144 616.655 20.728 615.855 19.896C615.055 19.064 614.655 17.96 614.655 16.584C614.655 15.208 615.06 14.1093 615.871 13.288C616.681 12.456 617.727 12.04 619.007 12.04C620.297 12.04 621.343 12.44 622.142 13.24C622.943 14.0293 623.343 15.064 623.343 16.344C623.343 16.6533 623.321 16.9413 623.279 17.208H616.527C616.569 17.944 616.815 18.5307 617.263 18.968C617.721 19.3947 618.292 19.608 618.975 19.608C619.967 19.608 620.665 19.1973 621.071 18.376H623.039C622.772 19.1867 622.287 19.8533 621.583 20.376C620.879 20.888 620.009 21.144 618.975 21.144ZM621.439 15.96C621.428 15.2347 621.188 14.6587 620.719 14.232C620.249 13.7947 619.679 13.576 619.007 13.576C618.335 13.576 617.769 13.7947 617.311 14.232C616.863 14.6587 616.607 15.2347 616.543 15.96H621.439ZM627.112 12.184V13.72C627.677 12.6 628.557 12.04 629.752 12.04V13.928H629.288C628.573 13.928 628.029 14.1093 627.656 14.472C627.293 14.8347 627.112 15.464 627.112 16.36V21H625.288V12.184H627.112ZM638.429 9.784C638.984 9.48533 639.656 9.336 640.445 9.336C641.234 9.336 641.906 9.48533 642.461 9.784C643.016 10.072 643.442 10.488 643.741 11.032C644.05 11.576 644.269 12.184 644.397 12.856C644.536 13.5173 644.605 14.28 644.605 15.144C644.605 16.008 644.536 16.776 644.397 17.448C644.269 18.1093 644.05 18.7173 643.741 19.272C643.442 19.816 643.016 20.2373 642.461 20.536C641.906 20.824 641.234 20.968 640.445 20.968C639.656 20.968 638.984 20.824 638.429 20.536C637.874 20.2373 637.442 19.816 637.133 19.272C636.834 18.7173 636.616 18.1093 636.477 17.448C636.349 16.776 636.285 16.008 636.285 15.144C636.285 14.28 636.349 13.5173 636.477 12.856C636.616 12.184 636.834 11.576 637.133 11.032C637.442 10.488 637.874 10.072 638.429 9.784ZM640.445 11C639.933 11 639.512 11.112 639.181 11.336C638.85 11.5493 638.61 11.8693 638.461 12.296C638.205 13.032 638.077 13.9813 638.077 15.144C638.077 16.3173 638.205 17.272 638.461 18.008C638.76 18.872 639.421 19.304 640.445 19.304C641.469 19.304 642.13 18.872 642.429 18.008C642.685 17.272 642.813 16.3173 642.813 15.144C642.813 13.9813 642.685 13.032 642.429 12.296C642.13 11.432 641.469 11 640.445 11Z" fill="white"/>
<rect opacity="0.8" x="558" y="36" width="100" height="32" rx="8" fill="#EB6161"/>
<path d="M571.2 57V45.88H573.024V57H571.2ZM577.393 48.184V49.576C577.979 48.552 578.918 48.04 580.209 48.04C581.201 48.04 582.017 48.3707 582.657 49.032C583.307 49.6933 583.633 50.616 583.633 51.8V57H581.825V52.072C581.825 51.2827 581.627 50.68 581.233 50.264C580.838 49.8373 580.299 49.624 579.617 49.624C578.934 49.624 578.39 49.8373 577.985 50.264C577.59 50.68 577.393 51.2827 577.393 52.072V57H575.569V48.184H577.393ZM591.917 54.76C592.451 54.216 592.717 53.4907 592.717 52.584C592.717 51.6773 592.451 50.9573 591.917 50.424C591.395 49.8907 590.771 49.624 590.045 49.624C589.32 49.624 588.691 49.8853 588.157 50.408C587.635 50.9307 587.373 51.6453 587.373 52.552C587.373 53.4587 587.635 54.1893 588.157 54.744C588.691 55.288 589.32 55.56 590.045 55.56C590.771 55.56 591.395 55.2933 591.917 54.76ZM589.661 57.144C588.488 57.144 587.501 56.7173 586.701 55.864C585.901 55 585.501 53.9013 585.501 52.568C585.501 51.224 585.896 50.136 586.685 49.304C587.485 48.4613 588.477 48.04 589.661 48.04C590.355 48.04 590.963 48.2 591.485 48.52C592.019 48.8293 592.429 49.24 592.717 49.752V45.16H594.557V57H592.717V55.352C592.419 55.896 592.008 56.3333 591.485 56.664C590.963 56.984 590.355 57.144 589.661 57.144ZM600.815 57.144C599.535 57.144 598.495 56.728 597.695 55.896C596.895 55.064 596.495 53.96 596.495 52.584C596.495 51.208 596.9 50.1093 597.711 49.288C598.522 48.456 599.567 48.04 600.847 48.04C602.138 48.04 603.183 48.44 603.983 49.24C604.783 50.0293 605.183 51.064 605.183 52.344C605.183 52.6533 605.162 52.9413 605.119 53.208H598.367C598.41 53.944 598.655 54.5307 599.103 54.968C599.562 55.3947 600.132 55.608 600.815 55.608C601.807 55.608 602.506 55.1973 602.911 54.376H604.879C604.612 55.1867 604.127 55.8533 603.423 56.376C602.719 56.888 601.85 57.144 600.815 57.144ZM603.279 51.96C603.268 51.2347 603.028 50.6587 602.559 50.232C602.09 49.7947 601.519 49.576 600.847 49.576C600.175 49.576 599.61 49.7947 599.151 50.232C598.703 50.6587 598.447 51.2347 598.383 51.96H603.279ZM613.752 48.184L610.904 52.536L613.752 57H611.688L609.784 54.008L607.992 57H606.088L608.936 52.664L606.088 48.184H608.152L610.056 51.176L611.848 48.184H613.752ZM618.975 57.144C617.695 57.144 616.655 56.728 615.855 55.896C615.055 55.064 614.655 53.96 614.655 52.584C614.655 51.208 615.06 50.1093 615.871 49.288C616.681 48.456 617.727 48.04 619.007 48.04C620.297 48.04 621.343 48.44 622.142 49.24C622.943 50.0293 623.343 51.064 623.343 52.344C623.343 52.6533 623.321 52.9413 623.279 53.208H616.527C616.569 53.944 616.815 54.5307 617.263 54.968C617.721 55.3947 618.292 55.608 618.975 55.608C619.967 55.608 620.665 55.1973 621.071 54.376H623.039C622.772 55.1867 622.287 55.8533 621.583 56.376C620.879 56.888 620.009 57.144 618.975 57.144ZM621.439 51.96C621.428 51.2347 621.188 50.6587 620.719 50.232C620.249 49.7947 619.679 49.576 619.007 49.576C618.335 49.576 617.769 49.7947 617.311 50.232C616.863 50.6587 616.607 51.2347 616.543 51.96H621.439ZM627.112 48.184V49.72C627.677 48.6 628.557 48.04 629.752 48.04V49.928H629.288C628.573 49.928 628.029 50.1093 627.656 50.472C627.293 50.8347 627.112 51.464 627.112 52.36V57H625.288V48.184H627.112ZM640.18 57V47.304H638.692V45.64H642.02V57H640.18Z" fill="white"/>
<rect opacity="0.8" x="558" y="72" width="100" height="32" rx="8" fill="#EB6161"/>
<path d="M571.2 93V81.88H573.024V93H571.2ZM577.393 84.184V85.576C577.979 84.552 578.918 84.04 580.209 84.04C581.201 84.04 582.017 84.3707 582.657 85.032C583.307 85.6933 583.633 86.616 583.633 87.8V93H581.825V88.072C581.825 87.2827 581.627 86.68 581.233 86.264C580.838 85.8373 580.299 85.624 579.617 85.624C578.934 85.624 578.39 85.8373 577.985 86.264C577.59 86.68 577.393 87.2827 577.393 88.072V93H575.569V84.184H577.393ZM591.917 90.76C592.451 90.216 592.717 89.4907 592.717 88.584C592.717 87.6773 592.451 86.9573 591.917 86.424C591.395 85.8907 590.771 85.624 590.045 85.624C589.32 85.624 588.691 85.8853 588.157 86.408C587.635 86.9307 587.373 87.6453 587.373 88.552C587.373 89.4587 587.635 90.1893 588.157 90.744C588.691 91.288 589.32 91.56 590.045 91.56C590.771 91.56 591.395 91.2933 591.917 90.76ZM589.661 93.144C588.488 93.144 587.501 92.7173 586.701 91.864C585.901 91 585.501 89.9013 585.501 88.568C585.501 87.224 585.896 86.136 586.685 85.304C587.485 84.4613 588.477 84.04 589.661 84.04C590.355 84.04 590.963 84.2 591.485 84.52C592.019 84.8293 592.429 85.24 592.717 85.752V81.16H594.557V93H592.717V91.352C592.419 91.896 592.008 92.3333 591.485 92.664C590.963 92.984 590.355 93.144 589.661 93.144ZM600.815 93.144C599.535 93.144 598.495 92.728 597.695 91.896C596.895 91.064 596.495 89.96 596.495 88.584C596.495 87.208 596.9 86.1093 597.711 85.288C598.522 84.456 599.567 84.04 600.847 84.04C602.138 84.04 603.183 84.44 603.983 85.24C604.783 86.0293 605.183 87.064 605.183 88.344C605.183 88.6533 605.162 88.9413 605.119 89.208H598.367C598.41 89.944 598.655 90.5307 599.103 90.968C599.562 91.3947 600.132 91.608 600.815 91.608C601.807 91.608 602.506 91.1973 602.911 90.376H604.879C604.612 91.1867 604.127 91.8533 603.423 92.376C602.719 92.888 601.85 93.144 600.815 93.144ZM603.279 87.96C603.268 87.2347 603.028 86.6587 602.559 86.232C602.09 85.7947 601.519 85.576 600.847 85.576C600.175 85.576 599.61 85.7947 599.151 86.232C598.703 86.6587 598.447 87.2347 598.383 87.96H603.279ZM613.752 84.184L610.904 88.536L613.752 93H611.688L609.784 90.008L607.992 93H606.088L608.936 88.664L606.088 84.184H608.152L610.056 87.176L611.848 84.184H613.752ZM618.975 93.144C617.695 93.144 616.655 92.728 615.855 91.896C615.055 91.064 614.655 89.96 614.655 88.584C614.655 87.208 615.06 86.1093 615.871 85.288C616.681 84.456 617.727 84.04 619.007 84.04C620.297 84.04 621.343 84.44 622.142 85.24C622.943 86.0293 623.343 87.064 623.343 88.344C623.343 88.6533 623.321 88.9413 623.279 89.208H616.527C616.569 89.944 616.815 90.5307 617.263 90.968C617.721 91.3947 618.292 91.608 618.975 91.608C619.967 91.608 620.665 91.1973 621.071 90.376H623.039C622.772 91.1867 622.287 91.8533 621.583 92.376C620.879 92.888 620.009 93.144 618.975 93.144ZM621.439 87.96C621.428 87.2347 621.188 86.6587 620.719 86.232C620.249 85.7947 619.679 85.576 619.007 85.576C618.335 85.576 617.769 85.7947 617.311 86.232C616.863 86.6587 616.607 87.2347 616.543 87.96H621.439ZM627.112 84.184V85.72C627.677 84.6 628.557 84.04 629.752 84.04V85.928H629.288C628.573 85.928 628.029 86.1093 627.656 86.472C627.293 86.8347 627.112 87.464 627.112 88.36V93H625.288V84.184H627.112ZM636.991 92.84V91.512C637.258 91.2773 637.647 90.9413 638.159 90.504C638.671 90.0667 639.06 89.7307 639.327 89.496C639.604 89.2507 639.946 88.9413 640.351 88.568C640.756 88.184 641.071 87.8587 641.295 87.592C641.519 87.3147 641.748 87.0053 641.983 86.664C642.42 86.0453 642.639 85.4267 642.639 84.808C642.639 83.4853 642.01 82.824 640.751 82.824C640.122 82.824 639.631 83.0267 639.279 83.432C638.938 83.8267 638.756 84.36 638.735 85.032H636.975C637.007 83.816 637.37 82.888 638.063 82.248C638.767 81.5973 639.679 81.272 640.799 81.272C641.919 81.272 642.804 81.5867 643.455 82.216C644.116 82.8453 644.447 83.6773 644.447 84.712C644.447 85.4907 644.239 86.232 643.823 86.936C643.599 87.2987 643.386 87.624 643.183 87.912C642.98 88.1893 642.698 88.5093 642.335 88.872C641.972 89.2347 641.684 89.5173 641.471 89.72C641.258 89.9227 640.943 90.2053 640.527 90.568C640.122 90.9307 639.844 91.1813 639.695 91.32H644.767V92.84H636.991Z" fill="white"/>
<rect opacity="0.8" x="558" y="108" width="100" height="32" rx="8" fill="#EB6161"/>
<path d="M571.2 129V117.88H573.024V129H571.2ZM577.393 120.184V121.576C577.979 120.552 578.918 120.04 580.209 120.04C581.201 120.04 582.017 120.371 582.657 121.032C583.307 121.693 583.633 122.616 583.633 123.8V129H581.825V124.072C581.825 123.283 581.627 122.68 581.233 122.264C580.838 121.837 580.299 121.624 579.617 121.624C578.934 121.624 578.39 121.837 577.985 122.264C577.59 122.68 577.393 123.283 577.393 124.072V129H575.569V120.184H577.393ZM591.917 126.76C592.451 126.216 592.717 125.491 592.717 124.584C592.717 123.677 592.451 122.957 591.917 122.424C591.395 121.891 590.771 121.624 590.045 121.624C589.32 121.624 588.691 121.885 588.157 122.408C587.635 122.931 587.373 123.645 587.373 124.552C587.373 125.459 587.635 126.189 588.157 126.744C588.691 127.288 589.32 127.56 590.045 127.56C590.771 127.56 591.395 127.293 591.917 126.76ZM589.661 129.144C588.488 129.144 587.501 128.717 586.701 127.864C585.901 127 585.501 125.901 585.501 124.568C585.501 123.224 585.896 122.136 586.685 121.304C587.485 120.461 588.477 120.04 589.661 120.04C590.355 120.04 590.963 120.2 591.485 120.52C592.019 120.829 592.429 121.24 592.717 121.752V117.16H594.557V129H592.717V127.352C592.419 127.896 592.008 128.333 591.485 128.664C590.963 128.984 590.355 129.144 589.661 129.144ZM600.815 129.144C599.535 129.144 598.495 128.728 597.695 127.896C596.895 127.064 596.495 125.96 596.495 124.584C596.495 123.208 596.9 122.109 597.711 121.288C598.522 120.456 599.567 120.04 600.847 120.04C602.138 120.04 603.183 120.44 603.983 121.24C604.783 122.029 605.183 123.064 605.183 124.344C605.183 124.653 605.162 124.941 605.119 125.208H598.367C598.41 125.944 598.655 126.531 599.103 126.968C599.562 127.395 600.132 127.608 600.815 127.608C601.807 127.608 602.506 127.197 602.911 126.376H604.879C604.612 127.187 604.127 127.853 603.423 128.376C602.719 128.888 601.85 129.144 600.815 129.144ZM603.279 123.96C603.268 123.235 603.028 122.659 602.559 122.232C602.09 121.795 601.519 121.576 600.847 121.576C600.175 121.576 599.61 121.795 599.151 122.232C598.703 122.659 598.447 123.235 598.383 123.96H603.279ZM613.752 120.184L610.904 124.536L613.752 129H611.688L609.784 126.008L607.992 129H606.088L608.936 124.664L606.088 120.184H608.152L610.056 123.176L611.848 120.184H613.752ZM618.975 129.144C617.695 129.144 616.655 128.728 615.855 127.896C615.055 127.064 614.655 125.96 614.655 124.584C614.655 123.208 615.06 122.109 615.871 121.288C616.681 120.456 617.727 120.04 619.007 120.04C620.297 120.04 621.343 120.44 622.142 121.24C622.943 122.029 623.343 123.064 623.343 124.344C623.343 124.653 623.321 124.941 623.279 125.208H616.527C616.569 125.944 616.815 126.531 617.263 126.968C617.721 127.395 618.292 127.608 618.975 127.608C619.967 127.608 620.665 127.197 621.071 126.376H623.039C622.772 127.187 622.287 127.853 621.583 128.376C620.879 128.888 620.009 129.144 618.975 129.144ZM621.439 123.96C621.428 123.235 621.188 122.659 620.719 122.232C620.249 121.795 619.679 121.576 619.007 121.576C618.335 121.576 617.769 121.795 617.311 122.232C616.863 122.659 616.607 123.235 616.543 123.96H621.439ZM627.112 120.184V121.72C627.677 120.6 628.557 120.04 629.752 120.04V121.928H629.288C628.573 121.928 628.029 122.109 627.656 122.472C627.293 122.835 627.112 123.464 627.112 124.36V129H625.288V120.184H627.112ZM637.103 120.216C637.167 119.224 637.546 118.451 638.239 117.896C638.943 117.341 639.844 117.064 640.943 117.064C642.052 117.064 642.922 117.352 643.551 117.928C644.191 118.493 644.511 119.219 644.511 120.104C644.511 120.765 644.335 121.331 643.983 121.8C643.631 122.269 643.21 122.584 642.719 122.744V122.808C643.348 123 643.839 123.352 644.191 123.864C644.543 124.365 644.719 125.053 644.719 125.928C644.719 126.803 644.388 127.544 643.727 128.152C643.076 128.76 642.164 129.064 640.991 129.064C639.828 129.064 638.874 128.771 638.127 128.184C637.391 127.587 636.996 126.733 636.943 125.624H638.703C638.746 126.189 638.964 126.653 639.359 127.016C639.754 127.368 640.282 127.544 640.943 127.544C641.604 127.544 642.111 127.368 642.463 127.016C642.815 126.653 642.991 126.189 642.991 125.624C642.991 124.877 642.751 124.349 642.271 124.04C641.802 123.72 641.076 123.56 640.095 123.56H639.679V122.056H640.111C641.882 122.035 642.767 121.453 642.767 120.312C642.767 119.8 642.602 119.395 642.271 119.096C641.94 118.787 641.471 118.632 640.863 118.632C640.266 118.632 639.802 118.787 639.471 119.096C639.14 119.395 638.943 119.768 638.879 120.216H637.103Z" fill="white"/>
<rect opacity="0.8" x="558" y="144" width="100" height="32" rx="8" fill="#EB6161"/>
<path d="M571.2 165V153.88H573.024V165H571.2ZM577.393 156.184V157.576C577.979 156.552 578.918 156.04 580.209 156.04C581.201 156.04 582.017 156.371 582.657 157.032C583.307 157.693 583.633 158.616 583.633 159.8V165H581.825V160.072C581.825 159.283 581.627 158.68 581.233 158.264C580.838 157.837 580.299 157.624 579.617 157.624C578.934 157.624 578.39 157.837 577.985 158.264C577.59 158.68 577.393 159.283 577.393 160.072V165H575.569V156.184H577.393ZM591.917 162.76C592.451 162.216 592.717 161.491 592.717 160.584C592.717 159.677 592.451 158.957 591.917 158.424C591.395 157.891 590.771 157.624 590.045 157.624C589.32 157.624 588.691 157.885 588.157 158.408C587.635 158.931 587.373 159.645 587.373 160.552C587.373 161.459 587.635 162.189 588.157 162.744C588.691 163.288 589.32 163.56 590.045 163.56C590.771 163.56 591.395 163.293 591.917 162.76ZM589.661 165.144C588.488 165.144 587.501 164.717 586.701 163.864C585.901 163 585.501 161.901 585.501 160.568C585.501 159.224 585.896 158.136 586.685 157.304C587.485 156.461 588.477 156.04 589.661 156.04C590.355 156.04 590.963 156.2 591.485 156.52C592.019 156.829 592.429 157.24 592.717 157.752V153.16H594.557V165H592.717V163.352C592.419 163.896 592.008 164.333 591.485 164.664C590.963 164.984 590.355 165.144 589.661 165.144ZM600.815 165.144C599.535 165.144 598.495 164.728 597.695 163.896C596.895 163.064 596.495 161.96 596.495 160.584C596.495 159.208 596.9 158.109 597.711 157.288C598.522 156.456 599.567 156.04 600.847 156.04C602.138 156.04 603.183 156.44 603.983 157.24C604.783 158.029 605.183 159.064 605.183 160.344C605.183 160.653 605.162 160.941 605.119 161.208H598.367C598.41 161.944 598.655 162.531 599.103 162.968C599.562 163.395 600.132 163.608 600.815 163.608C601.807 163.608 602.506 163.197 602.911 162.376H604.879C604.612 163.187 604.127 163.853 603.423 164.376C602.719 164.888 601.85 165.144 600.815 165.144ZM603.279 159.96C603.268 159.235 603.028 158.659 602.559 158.232C602.09 157.795 601.519 157.576 600.847 157.576C600.175 157.576 599.61 157.795 599.151 158.232C598.703 158.659 598.447 159.235 598.383 159.96H603.279ZM613.752 156.184L610.904 160.536L613.752 165H611.688L609.784 162.008L607.992 165H606.088L608.936 160.664L606.088 156.184H608.152L610.056 159.176L611.848 156.184H613.752ZM618.975 165.144C617.695 165.144 616.655 164.728 615.855 163.896C615.055 163.064 614.655 161.96 614.655 160.584C614.655 159.208 615.06 158.109 615.871 157.288C616.681 156.456 617.727 156.04 619.007 156.04C620.297 156.04 621.343 156.44 622.142 157.24C622.943 158.029 623.343 159.064 623.343 160.344C623.343 160.653 623.321 160.941 623.279 161.208H616.527C616.569 161.944 616.815 162.531 617.263 162.968C617.721 163.395 618.292 163.608 618.975 163.608C619.967 163.608 620.665 163.197 621.071 162.376H623.039C622.772 163.187 622.287 163.853 621.583 164.376C620.879 164.888 620.009 165.144 618.975 165.144ZM621.439 159.96C621.428 159.235 621.188 158.659 620.719 158.232C620.249 157.795 619.679 157.576 619.007 157.576C618.335 157.576 617.769 157.795 617.311 158.232C616.863 158.659 616.607 159.235 616.543 159.96H621.439ZM627.112 156.184V157.72C627.677 156.6 628.557 156.04 629.752 156.04V157.928H629.288C628.573 157.928 628.029 158.109 627.656 158.472C627.293 158.835 627.112 159.464 627.112 160.36V165H625.288V156.184H627.112ZM641.933 160.984V155.336L638.157 160.984H641.933ZM641.853 165V162.568H636.061V161.192L641.437 153.48H643.645V160.984H645.133V162.568H643.645V165H641.853Z" fill="white"/>
<rect opacity="0.8" x="558" y="180" width="100" height="32" rx="8" fill="#EB6161"/>
<path d="M571.2 201V189.88H573.024V201H571.2ZM577.393 192.184V193.576C577.979 192.552 578.918 192.04 580.209 192.04C581.201 192.04 582.017 192.371 582.657 193.032C583.307 193.693 583.633 194.616 583.633 195.8V201H581.825V196.072C581.825 195.283 581.627 194.68 581.233 194.264C580.838 193.837 580.299 193.624 579.617 193.624C578.934 193.624 578.39 193.837 577.985 194.264C577.59 194.68 577.393 195.283 577.393 196.072V201H575.569V192.184H577.393ZM591.917 198.76C592.451 198.216 592.717 197.491 592.717 196.584C592.717 195.677 592.451 194.957 591.917 194.424C591.395 193.891 590.771 193.624 590.045 193.624C589.32 193.624 588.691 193.885 588.157 194.408C587.635 194.931 587.373 195.645 587.373 196.552C587.373 197.459 587.635 198.189 588.157 198.744C588.691 199.288 589.32 199.56 590.045 199.56C590.771 199.56 591.395 199.293 591.917 198.76ZM589.661 201.144C588.488 201.144 587.501 200.717 586.701 199.864C585.901 199 585.501 197.901 585.501 196.568C585.501 195.224 585.896 194.136 586.685 193.304C587.485 192.461 588.477 192.04 589.661 192.04C590.355 192.04 590.963 192.2 591.485 192.52C592.019 192.829 592.429 193.24 592.717 193.752V189.16H594.557V201H592.717V199.352C592.419 199.896 592.008 200.333 591.485 200.664C590.963 200.984 590.355 201.144 589.661 201.144ZM600.815 201.144C599.535 201.144 598.495 200.728 597.695 199.896C596.895 199.064 596.495 197.96 596.495 196.584C596.495 195.208 596.9 194.109 597.711 193.288C598.522 192.456 599.567 192.04 600.847 192.04C602.138 192.04 603.183 192.44 603.983 193.24C604.783 194.029 605.183 195.064 605.183 196.344C605.183 196.653 605.162 196.941 605.119 197.208H598.367C598.41 197.944 598.655 198.531 599.103 198.968C599.562 199.395 600.132 199.608 600.815 199.608C601.807 199.608 602.506 199.197 602.911 198.376H604.879C604.612 199.187 604.127 199.853 603.423 200.376C602.719 200.888 601.85 201.144 600.815 201.144ZM603.279 195.96C603.268 195.235 603.028 194.659 602.559 194.232C602.09 193.795 601.519 193.576 600.847 193.576C600.175 193.576 599.61 193.795 599.151 194.232C598.703 194.659 598.447 195.235 598.383 195.96H603.279ZM613.752 192.184L610.904 196.536L613.752 201H611.688L609.784 198.008L607.992 201H606.088L608.936 196.664L606.088 192.184H608.152L610.056 195.176L611.848 192.184H613.752ZM618.975 201.144C617.695 201.144 616.655 200.728 615.855 199.896C615.055 199.064 614.655 197.96 614.655 196.584C614.655 195.208 615.06 194.109 615.871 193.288C616.681 192.456 617.727 192.04 619.007 192.04C620.297 192.04 621.343 192.44 622.142 193.24C622.943 194.029 623.343 195.064 623.343 196.344C623.343 196.653 623.321 196.941 623.279 197.208H616.527C616.569 197.944 616.815 198.531 617.263 198.968C617.721 199.395 618.292 199.608 618.975 199.608C619.967 199.608 620.665 199.197 621.071 198.376H623.039C622.772 199.187 622.287 199.853 621.583 200.376C620.879 200.888 620.009 201.144 618.975 201.144ZM621.439 195.96C621.428 195.235 621.188 194.659 620.719 194.232C620.249 193.795 619.679 193.576 619.007 193.576C618.335 193.576 617.769 193.795 617.311 194.232C616.863 194.659 616.607 195.235 616.543 195.96H621.439ZM627.112 192.184V193.72C627.677 192.6 628.557 192.04 629.752 192.04V193.928H629.288C628.573 193.928 628.029 194.109 627.656 194.472C627.293 194.835 627.112 195.464 627.112 196.36V201H625.288V192.184H627.112ZM636.765 189.304H643.805V190.904H638.445V194.088C638.669 193.789 639 193.539 639.437 193.336C639.885 193.133 640.402 193.032 640.989 193.032C641.586 193.032 642.136 193.149 642.637 193.384C643.149 193.619 643.538 193.933 643.805 194.328C644.338 195.096 644.605 195.96 644.605 196.92C644.605 198.136 644.258 199.123 643.565 199.88C642.872 200.627 641.906 201 640.669 201C639.442 201 638.477 200.712 637.773 200.136C637.069 199.56 636.648 198.797 636.509 197.848H638.285C638.402 198.349 638.664 198.749 639.069 199.048C639.474 199.336 640.018 199.48 640.701 199.48C641.384 199.48 641.912 199.251 642.285 198.792C642.669 198.333 642.861 197.725 642.861 196.968C642.861 196.2 642.669 195.613 642.285 195.208C641.901 194.792 641.336 194.584 640.589 194.584C640.066 194.584 639.624 194.717 639.261 194.984C638.909 195.24 638.653 195.592 638.493 196.04H636.765V189.304Z" fill="white"/>
<rect x="144" y="82" width="222" height="48" rx="8" fill="#009191"/>
<path d="M160.752 111.144C159.579 111.144 158.592 110.717 157.792 109.864C156.992 109 156.592 107.901 156.592 106.568C156.592 105.224 156.987 104.136 157.776 103.304C158.576 102.461 159.568 102.04 160.752 102.04C161.445 102.04 162.053 102.2 162.576 102.52C163.109 102.829 163.52 103.24 163.808 103.752V102.184H165.648V111.144C165.648 112.381 165.264 113.389 164.496 114.168C163.739 114.957 162.725 115.352 161.456 115.352C160.187 115.352 159.157 115.069 158.368 114.504C157.579 113.949 157.131 113.192 157.024 112.232H158.832C158.971 112.691 159.264 113.059 159.712 113.336C160.171 113.624 160.741 113.768 161.424 113.768C162.107 113.768 162.672 113.544 163.12 113.096C163.579 112.648 163.808 111.997 163.808 111.144V109.352C163.509 109.896 163.099 110.333 162.576 110.664C162.053 110.984 161.445 111.144 160.752 111.144ZM163.008 108.76C163.541 108.216 163.808 107.491 163.808 106.584C163.808 105.677 163.541 104.957 163.008 104.424C162.485 103.891 161.861 103.624 161.136 103.624C160.411 103.624 159.781 103.885 159.248 104.408C158.725 104.931 158.464 105.645 158.464 106.552C158.464 107.459 158.725 108.189 159.248 108.744C159.781 109.288 160.411 109.56 161.136 109.56C161.861 109.56 162.485 109.293 163.008 108.76ZM168.194 111V99.16H170.018V111H168.194ZM178.947 108.744C179.48 108.189 179.747 107.459 179.747 106.552C179.747 105.645 179.48 104.931 178.947 104.408C178.424 103.885 177.795 103.624 177.059 103.624C176.333 103.624 175.704 103.891 175.171 104.424C174.648 104.957 174.387 105.677 174.387 106.584C174.387 107.491 174.648 108.216 175.171 108.76C175.704 109.293 176.333 109.56 177.059 109.56C177.784 109.56 178.413 109.288 178.947 108.744ZM177.459 102.04C178.643 102.04 179.629 102.461 180.419 103.304C181.208 104.136 181.603 105.224 181.603 106.568C181.603 107.901 181.203 109 180.403 109.864C179.613 110.717 178.632 111.144 177.459 111.144C176.765 111.144 176.157 110.984 175.635 110.664C175.112 110.333 174.696 109.896 174.387 109.352V111H172.563V99.16H174.387V103.752C174.685 103.24 175.096 102.829 175.619 102.52C176.152 102.2 176.765 102.04 177.459 102.04ZM184.372 113.336V111.64H193.3V113.336H184.372ZM200.184 111.144C198.904 111.144 197.864 110.728 197.064 109.896C196.264 109.064 195.864 107.965 195.864 106.6C195.864 105.224 196.264 104.12 197.064 103.288C197.875 102.456 198.915 102.04 200.184 102.04C201.251 102.04 202.131 102.296 202.824 102.808C203.528 103.309 204.003 104.029 204.248 104.968H202.28C201.949 104.04 201.251 103.576 200.184 103.576C199.437 103.576 198.84 103.843 198.392 104.376C197.955 104.899 197.736 105.635 197.736 106.584C197.736 107.533 197.955 108.275 198.392 108.808C198.84 109.341 199.437 109.608 200.184 109.608C201.24 109.608 201.939 109.144 202.28 108.216H204.248C203.992 109.112 203.512 109.827 202.808 110.36C202.104 110.883 201.229 111.144 200.184 111.144ZM208.04 102.184V103.72C208.605 102.6 209.485 102.04 210.68 102.04V103.928H210.216C209.501 103.928 208.957 104.109 208.584 104.472C208.221 104.835 208.04 105.464 208.04 106.36V111H206.216V102.184H208.04ZM218.314 108.76C218.848 108.216 219.114 107.491 219.114 106.584C219.114 105.677 218.848 104.957 218.314 104.424C217.792 103.891 217.168 103.624 216.442 103.624C215.717 103.624 215.088 103.885 214.554 104.408C214.032 104.931 213.77 105.645 213.77 106.552C213.77 107.459 214.032 108.189 214.554 108.744C215.088 109.288 215.717 109.56 216.442 109.56C217.168 109.56 217.792 109.293 218.314 108.76ZM216.058 111.144C214.885 111.144 213.898 110.717 213.098 109.864C212.298 109 211.898 107.901 211.898 106.568C211.898 105.224 212.293 104.136 213.082 103.304C213.882 102.461 214.874 102.04 216.058 102.04C216.752 102.04 217.36 102.2 217.882 102.52C218.416 102.829 218.826 103.24 219.114 103.752V102.184H220.954V111H219.114V109.352C218.816 109.896 218.405 110.333 217.882 110.664C217.36 110.984 216.752 111.144 216.058 111.144ZM227.196 102.184V103.672H225.564V111H223.724V103.672H222.684V102.184H223.724V101.56C223.724 100.547 223.991 99.8107 224.524 99.352C225.068 98.8827 225.916 98.648 227.068 98.648V100.168C226.513 100.168 226.124 100.275 225.9 100.488C225.676 100.691 225.564 101.048 225.564 101.56V102.184H227.196ZM233.234 103.672H231.09V108.552C231.09 108.883 231.165 109.123 231.314 109.272C231.474 109.411 231.741 109.48 232.114 109.48H233.234V111H231.794C230.098 111 229.25 110.184 229.25 108.552V103.672H228.21V102.184H229.25V99.992H231.09V102.184H233.234V103.672ZM238.778 111.144C237.498 111.144 236.458 110.728 235.658 109.896C234.858 109.064 234.458 107.96 234.458 106.584C234.458 105.208 234.863 104.109 235.674 103.288C236.484 102.456 237.53 102.04 238.81 102.04C240.1 102.04 241.146 102.44 241.946 103.24C242.746 104.029 243.146 105.064 243.146 106.344C243.146 106.653 243.124 106.941 243.082 107.208H236.33C236.372 107.944 236.618 108.531 237.066 108.968C237.524 109.395 238.095 109.608 238.778 109.608C239.77 109.608 240.468 109.197 240.874 108.376H242.842C242.575 109.187 242.09 109.853 241.386 110.376C240.682 110.888 239.812 111.144 238.778 111.144ZM241.242 105.96C241.231 105.235 240.991 104.659 240.522 104.232C240.052 103.795 239.482 103.576 238.81 103.576C238.138 103.576 237.572 103.795 237.114 104.232C236.666 104.659 236.41 105.235 236.346 105.96H241.242ZM246.915 102.184V103.72C247.48 102.6 248.36 102.04 249.555 102.04V103.928H249.091C248.376 103.928 247.832 104.109 247.459 104.472C247.096 104.835 246.915 105.464 246.915 106.36V111H245.091V102.184H246.915ZM256.469 113.96C255.189 113.011 254.16 111.704 253.381 110.04C252.603 108.365 252.213 106.541 252.213 104.568C252.213 102.584 252.603 100.76 253.381 99.096C254.16 97.4213 255.189 96.1147 256.469 95.176H258.357V95.352C256.896 96.5147 255.803 97.896 255.077 99.496C254.352 101.085 253.989 102.776 253.989 104.568C253.989 106.349 254.352 108.04 255.077 109.64C255.803 111.229 256.896 112.611 258.357 113.784V113.96H256.469ZM265.101 111.096C263.586 111.096 262.279 110.563 261.181 109.496C260.082 108.429 259.533 107.075 259.533 105.432C259.533 103.779 260.082 102.419 261.181 101.352C262.279 100.275 263.623 99.736 265.213 99.736C266.397 99.736 267.447 100.029 268.365 100.616C269.293 101.192 269.965 102.013 270.381 103.08H268.189C267.591 101.96 266.599 101.4 265.213 101.4C264.093 101.4 263.175 101.768 262.461 102.504C261.757 103.24 261.405 104.216 261.405 105.432C261.405 106.637 261.757 107.608 262.461 108.344C263.175 109.08 264.061 109.448 265.117 109.448C266.173 109.448 267.01 109.171 267.629 108.616C268.258 108.051 268.637 107.288 268.765 106.328H264.589V104.904H270.717V106.328C270.546 107.661 269.949 108.792 268.925 109.72C267.901 110.637 266.626 111.096 265.101 111.096ZM272.666 111V99.16H274.49V111H272.666ZM283.418 108.744C283.952 108.189 284.218 107.459 284.218 106.552C284.218 105.645 283.952 104.931 283.418 104.408C282.896 103.885 282.266 103.624 281.53 103.624C280.805 103.624 280.176 103.891 279.642 104.424C279.12 104.957 278.858 105.677 278.858 106.584C278.858 107.491 279.12 108.216 279.642 108.76C280.176 109.293 280.805 109.56 281.53 109.56C282.256 109.56 282.885 109.288 283.418 108.744ZM281.93 102.04C283.114 102.04 284.101 102.461 284.89 103.304C285.68 104.136 286.074 105.224 286.074 106.568C286.074 107.901 285.674 109 284.874 109.864C284.085 110.717 283.104 111.144 281.93 111.144C281.237 111.144 280.629 110.984 280.106 110.664C279.584 110.333 279.168 109.896 278.858 109.352V111H277.034V99.16H278.858V103.752C279.157 103.24 279.568 102.829 280.09 102.52C280.624 102.2 281.237 102.04 281.93 102.04ZM293.1 111.096C291.511 111.096 290.167 110.563 289.068 109.496C287.969 108.429 287.42 107.075 287.42 105.432C287.42 103.779 287.969 102.419 289.068 101.352C290.167 100.275 291.511 99.736 293.1 99.736C294.284 99.736 295.335 100.029 296.252 100.616C297.18 101.192 297.852 102.013 298.268 103.08H296.076C295.479 101.96 294.487 101.4 293.1 101.4C291.98 101.4 291.063 101.768 290.348 102.504C289.644 103.24 289.292 104.216 289.292 105.432C289.292 106.637 289.644 107.608 290.348 108.344C291.063 109.08 291.98 109.448 293.1 109.448C294.487 109.448 295.479 108.888 296.076 107.768H298.268C297.852 108.835 297.18 109.656 296.252 110.232C295.335 110.808 294.284 111.096 293.1 111.096ZM302.377 102.184V103.72C302.942 102.6 303.822 102.04 305.017 102.04V103.928H304.553C303.838 103.928 303.294 104.109 302.921 104.472C302.558 104.835 302.377 105.464 302.377 106.36V111H300.553V102.184H302.377ZM312.652 108.76C313.185 108.216 313.452 107.491 313.452 106.584C313.452 105.677 313.185 104.957 312.652 104.424C312.129 103.891 311.505 103.624 310.78 103.624C310.054 103.624 309.425 103.885 308.892 104.408C308.369 104.931 308.108 105.645 308.108 106.552C308.108 107.459 308.369 108.189 308.892 108.744C309.425 109.288 310.054 109.56 310.78 109.56C311.505 109.56 312.129 109.293 312.652 108.76ZM310.396 111.144C309.222 111.144 308.236 110.717 307.436 109.864C306.636 109 306.236 107.901 306.236 106.568C306.236 105.224 306.63 104.136 307.42 103.304C308.22 102.461 309.212 102.04 310.396 102.04C311.089 102.04 311.697 102.2 312.22 102.52C312.753 102.829 313.164 103.24 313.452 103.752V102.184H315.292V111H313.452V109.352C313.153 109.896 312.742 110.333 312.22 110.664C311.697 110.984 311.089 111.144 310.396 111.144ZM321.533 102.184V103.672H319.901V111H318.061V103.672H317.021V102.184H318.061V101.56C318.061 100.547 318.328 99.8107 318.861 99.352C319.405 98.8827 320.253 98.648 321.405 98.648V100.168C320.851 100.168 320.461 100.275 320.237 100.488C320.013 100.691 319.901 101.048 319.901 101.56V102.184H321.533ZM327.572 103.672H325.428V108.552C325.428 108.883 325.503 109.123 325.652 109.272C325.812 109.411 326.079 109.48 326.452 109.48H327.572V111H326.132C324.436 111 323.588 110.184 323.588 108.552V103.672H322.548V102.184H323.588V99.992H325.428V102.184H327.572V103.672ZM333.115 111.144C331.835 111.144 330.795 110.728 329.995 109.896C329.195 109.064 328.795 107.96 328.795 106.584C328.795 105.208 329.2 104.109 330.011 103.288C330.822 102.456 331.867 102.04 333.147 102.04C334.438 102.04 335.483 102.44 336.283 103.24C337.083 104.029 337.483 105.064 337.483 106.344C337.483 106.653 337.462 106.941 337.419 107.208H330.667C330.71 107.944 330.955 108.531 331.403 108.968C331.862 109.395 332.432 109.608 333.115 109.608C334.107 109.608 334.806 109.197 335.211 108.376H337.179C336.912 109.187 336.427 109.853 335.723 110.376C335.019 110.888 334.15 111.144 333.115 111.144ZM335.579 105.96C335.568 105.235 335.328 104.659 334.859 104.232C334.39 103.795 333.819 103.576 333.147 103.576C332.475 103.576 331.91 103.795 331.451 104.232C331.003 104.659 330.747 105.235 330.683 105.96H335.579ZM341.252 102.184V103.72C341.817 102.6 342.697 102.04 343.892 102.04V103.928H343.428C342.713 103.928 342.169 104.109 341.796 104.472C341.433 104.835 341.252 105.464 341.252 106.36V111H339.428V102.184H341.252ZM346.839 95.176C348.129 96.1147 349.164 97.4213 349.943 99.096C350.721 100.76 351.111 102.584 351.111 104.568C351.111 106.541 350.721 108.365 349.943 110.04C349.164 111.704 348.129 113.011 346.839 113.96H344.951V113.784C346.423 112.611 347.521 111.229 348.247 109.64C348.972 108.04 349.335 106.349 349.335 104.568C349.335 102.776 348.972 101.085 348.247 99.496C347.521 97.896 346.423 96.5147 344.951 95.352V95.176H346.839Z" fill="white"/>
<path d="M144 106L139 103.113V108.887L144 106ZM96 106.5H139.5V105.5H96V106.5Z" fill="#949596"/>
<path d="M414 106L409 103.113V108.887L414 106ZM366 106.5H409.5V105.5H366V106.5Z" fill="#949596"/>
<path d="M558 160L553 157.113L553 162.887L558 160ZM510 160.5L553.5 160.5L553.5 159.5L510 159.5L510 160.5Z" fill="#949596"/>
<path d="M658 160L706 160" stroke="#949596"/>
<path d="M558 52L553 49.1132L553 54.8867L558 52ZM510 52.5L553.5 52.5L553.5 51.5L510 51.5L510 52.5Z" fill="#949596"/>
<path d="M658 52L706 52" stroke="#949596"/>
<path d="M558 124L553 121.113L553 126.887L558 124ZM510 124.5L553.5 124.5L553.5 123.5L510 123.5L510 124.5Z" fill="#949596"/>
<path d="M658 124L706 124" stroke="#949596"/>
<path d="M558 88L553 85.1133L553 90.8868L558 88ZM510 88.5L553.5 88.5L553.5 87.5L510 87.5L510 88.5Z" fill="#949596"/>
<path d="M658 88L706 88" stroke="#949596"/>
<path d="M462 106L510 106" stroke="#949596"/>
<path d="M754 106L749 103.113L749 108.887L754 106ZM706 106.5L749.5 106.5L749.5 105.5L706 105.5L706 106.5Z" fill="#949596"/>
<path d="M850 106L845 103.113V108.887L850 106ZM802 106.5H845.5V105.5H802V106.5Z" fill="#949596"/>
<path d="M510 197L509.5 197L509.5 197.5L510 197.5L510 197ZM558 197L553 194.113L553 199.887L558 197ZM510 197.5L553.5 197.5L553.5 196.5L510 196.5L510 197.5ZM510.5 197L510.5 130L509.5 130L509.5 197L510.5 197Z" fill="#949596"/>
<path d="M658 201L706 201L706 130" stroke="#949596"/>
<path d="M510 16L509.5 16L509.5 15.5L510 15.5L510 16ZM558 16.0001L553 18.8868L553 13.1133L558 16.0001ZM510 15.5L553.5 15.5001L553.5 16.5001L510 16.5L510 15.5ZM510.5 16L510.5 137L509.5 137L509.5 16L510.5 16Z" fill="#949596"/>
<path d="M658 16.0001L706 16L706 137" stroke="#949596"/>
<circle opacity="0.8" cx="438" cy="106" r="24" fill="#EB6161"/>
<circle opacity="0.8" cx="778" cy="106" r="24" fill="#EB6161"/>
</svg>
