<svg width="40" height="40" viewBox="0 0 40 40" fill="none" xmlns="http://www.w3.org/2000/svg">
<path d="M2.3999 20.0001C2.3999 22.3114 2.85514 24.6 3.73962 26.7354C4.62411 28.8707 5.92051 30.8109 7.55482 32.4452C9.18913 34.0795 11.1293 35.3759 13.2647 36.2604C15.4 37.1449 17.6886 37.6001 19.9999 37.6001C22.3112 37.6001 24.5998 37.1449 26.7351 36.2604C28.8705 35.3759 30.8107 34.0795 32.445 32.4452C34.0793 30.8109 35.3757 28.8707 36.2602 26.7354C37.1447 24.6 37.5999 22.3114 37.5999 20.0001C37.5999 15.3323 35.7456 10.8557 32.445 7.55507C29.1443 4.25443 24.6677 2.40015 19.9999 2.40015C15.3321 2.40015 10.8555 4.25443 7.55482 7.55507C4.25418 10.8557 2.3999 15.3323 2.3999 20.0001Z" fill="#009191"/>
<path d="M24.4001 27.1999C24.7183 27.1999 25.0236 27.3263 25.2486 27.5514C25.4737 27.7764 25.6001 28.0816 25.6001 28.3999C25.6001 28.7182 25.4737 29.0234 25.2486 29.2484C25.0236 29.4735 24.7183 29.5999 24.4001 29.5999H15.6001C15.2818 29.5999 14.9766 29.4735 14.7516 29.2484C14.5265 29.0234 14.4001 28.7182 14.4001 28.3999C14.4001 28.0816 14.5265 27.7764 14.7516 27.5514C14.9766 27.3263 15.2818 27.1999 15.6001 27.1999H24.4001ZM20.0001 10.3999C20.3183 10.3999 20.6236 10.5263 20.8486 10.7514C21.0737 10.9764 21.2001 11.2816 21.2001 11.5999V20.1143L23.5153 17.5887C23.7224 17.3586 24.0103 17.2174 24.3191 17.1947C24.6278 17.1719 24.9333 17.2694 25.1719 17.4666C25.4105 17.6639 25.5636 17.9457 25.5993 18.2532C25.6349 18.5607 25.5504 18.8701 25.3633 19.1167L25.2849 19.2111L20.8849 24.0111C20.6719 24.2435 20.376 24.3827 20.0612 24.3987C19.7464 24.4148 19.438 24.3063 19.2025 24.0967L19.1153 24.0111L14.7153 19.2111C14.5073 18.9844 14.3944 18.6864 14.3998 18.3788C14.4053 18.0711 14.5287 17.7774 14.7445 17.5581C14.9604 17.3389 15.2522 17.2109 15.5597 17.2007C15.8672 17.1904 16.1669 17.2987 16.3969 17.5031L16.4849 17.5887L18.8001 20.1159V11.5999C18.8001 11.2816 18.9265 10.9764 19.1516 10.7514C19.3766 10.5263 19.6818 10.3999 20.0001 10.3999Z" fill="white"/>
</svg>
