<svg width="14" height="14" viewBox="0 0 14 14" fill="none" xmlns="http://www.w3.org/2000/svg">
<path d="M13.4736 12.4988L11.192 10.2172C12.0164 9.18014 12.5056 7.86259 12.5056 6.41981C12.5056 3.03462 9.81183 0.34082 6.42664 0.34082C3.04146 0.34082 0.347656 3.10376 0.347656 6.41981C0.347656 9.73586 3.04146 12.4988 6.42664 12.4988C7.86943 12.4988 9.18697 12.0083 10.2241 11.1852L12.5056 13.4667C12.6439 13.605 12.7822 13.6742 12.9896 13.6742C13.1279 13.6742 13.3353 13.605 13.4736 13.4667C13.7488 13.1889 13.7488 12.774 13.4736 12.4988ZM6.42664 11.1173C3.87112 11.1173 1.65999 9.04447 1.65999 6.41981C1.65999 3.79515 3.80198 1.72229 6.42664 1.72229C9.05131 1.72229 11.1242 3.86428 11.1242 6.41981C11.1242 8.97533 8.98347 11.1173 6.42664 11.1173Z" fill="black" fill-opacity="0.5"/>
<path fill-rule="evenodd" clip-rule="evenodd" d="M6 8.5C6 8.77614 6.22386 9 6.5 9C6.77614 9 7 8.77614 7 8.5V7H8.5C8.77614 7 9 6.77614 9 6.5C9 6.22386 8.77614 6 8.5 6H7V4.5C7 4.22386 6.77614 4 6.5 4C6.22386 4 6 4.22386 6 4.5V6H4.5C4.22386 6 4 6.22386 4 6.5C4 6.77614 4.22386 7 4.5 7H6V8.5Z" fill="#7B7C7D"/>
</svg>
