<svg width="32" height="32" viewBox="0 0 32 32" fill="none" xmlns="http://www.w3.org/2000/svg">
<path d="M24.0737 26.9997H7.92658C6.31745 26.9997 5.00024 25.6823 5.00024 24.0814V7.91832C5.00024 6.31746 6.31745 5 7.92658 5H24.0737C25.6828 5 27 6.31746 27 7.91832V24.0814C27 25.6823 25.6828 26.9997 24.0737 26.9997Z" stroke="black" stroke-opacity="0.4" stroke-width="2"/>
<path d="M8.64551 10.75C8.64551 11.8218 9.23574 12.8121 10.1939 13.348C11.152 13.8839 12.3325 13.8839 13.2906 13.348C14.2488 12.8121 14.839 11.8218 14.839 10.75C14.839 9.09313 13.4525 7.75 11.7422 7.75C10.032 7.75 8.64551 9.09313 8.64551 10.75Z" fill="#949596"/>
<path d="M24.847 16.3387C23.3919 14.8871 21.0152 14.8871 19.5601 16.3387L8.06486 27.8063L7.87085 27.9999H24.1194C26.2536 27.9999 27.9997 26.2579 27.9997 24.1289V19.5322L24.847 16.3387Z" fill="#949596"/>
<path d="M20.2579 28.0004L11.9331 19.3842C10.464 17.8726 8.06447 17.8726 6.59539 19.3842L4 22.1051V23.9694C4 26.1864 5.7629 28.0004 7.91757 28.0004H20.2579Z" fill="#949596"/>
</svg>
